<svg xmlns="http://www.w3.org/2000/svg" xml:space="preserve" style="enable-background:new 0 0 689 352" viewBox="0 0 689 352"><style>.st0{fill:#404eed}.st1{fill:#2835bd}.st2{fill:#ffc619}.st3{fill:none;stroke:#000;stroke-width:2;stroke-linecap:round;stroke-linejoin:round}.st4{fill:#fff}.st5{fill:#de3a93}.st6{fill:#ff78b9}.st9{fill:#8cd9ff}.st10{fill:#5865f2}.st11{fill:#121b80}.st12{fill:#ffe75c}.st13{fill:#29cc7a}.st16{fill:#15ad75}.st18{fill:#ffe6f8}.st19,.st20{fill:none;stroke:#000;stroke-width:2;stroke-linecap:round;stroke-miterlimit:10}.st20{stroke:#fff;stroke-width:3.0059}.st21{fill:#66bcff}.st22{fill:#45aaf7}.st23{fill:#a3e1ff}.st24{fill:#ffa8d2}.st25{fill:#ff8c19}.st26{fill:#3442d9}.st31{fill:#3f4eeb}.st34{fill:none;stroke-width:3;stroke:#000;stroke-miterlimit:10}.st35{fill:#ffc2db}</style><g id="Layer_1"><path d="M291.4 351.9H18.1C6.8 341.8-.1 330.1 1 319.3c2.3-23.3 39-26.7 74.6-9.9l7 3.5c1.2-4.3 3.1-8.3 5.6-12 17.8-26.1 58-28.6 84-9.5 2.9 2.1 5.5 4.4 8 7 3.5-4.8 7.5-9.3 11.9-13.3 24.1-21.8 52.7-26.5 63.6-13.1 9.6 11.8 2.2 34.5-16 52.4 0 0 53.8 1.3 51.7 27.5" class="st0"/><path d="M629.4 351.4c-22.1-45.6-34.5-100.2-34.5-100.2l-1-5.3-44.5 5.3v100.2z" class="st1"/><path d="M619.8 351.4c-19.4-40-30.2-87.9-30.2-87.9l-2.6-13.4-37.3 13.4v87.9z"/><path d="M626.8 218h-16.2v133.5h16.2z" class="st1"/><path d="M626.8 235.3c-2.4 1.1-5.1 1.5-7.8 1.1-2.6-.4-5.1-1.5-7.1-3.2l-1.3-1.1v-6l16.2-3.1z"/><path d="M602 351.4c11.1-2.7 26.2-17.4 26.2-17.4s5.3 11.4 8.4 17.4h11.2c1.2 0 2.4-.2 3.5-.7s2.1-1.2 2.9-2.1c.8-.9 1.4-2 1.8-3.1.4-1.1.5-2.4.4-3.6-.5-4.9-2.8-10.4-6.3-18.4-5.9-13.3-7.8-20.3-19.3-20.3h-10.4l-24-10.6c-15.4 8.1-26 12.8-35.1 18.2-13.4 8.2-24 24.4-13.6 40.6z" class="st2"/><path d="M433 263.5v87.9h121.8c19.4-40 30.2-87.9 30.2-87.9l2.9-12.3z" class="st1"/><path d="M557.2 266.2 433 277.8v73.6h92.9c9-20.5 31.3-85.2 31.3-85.2"/><path d="M540.7 344.7c10.2-15.8 18.4-33 24.2-50.9" class="st3"/><path d="M526.2 332.5c-5.1 0-10.1 2-13.7 5.7s-5.7 8.6-5.7 13.7h38.8c0-5.1-2-10.1-5.7-13.7s-8.6-5.7-13.7-5.7" class="st0"/><path d="M553.8 351.4c19.4-40 30.3-87.9 30.3-87.9z" class="st1"/><path d="M591.3 351.3c-.1-.2-7-17.6-10.6-28.8l-.2-.7c-2.4-7.6-4.4-13.7-4.1-19.1l-1.7.9c0 5.4 1.9 11.4 4.3 18.7l.2.7c3.3 10.2 9.2 25.5 10.4 28.4h1.7z"/><path d="M653.8 349c.6-.6 1.1-1.3 1.4-2.2.3-.8.4-1.7.2-2.5-.7-7.1-4.4-15.6-8.3-24.4l-4-9.4-1.5.6c1.3 3.2 2.7 6.3 4 9.4 4.7 10.7 9.2 21 8.2 28.5" class="st4"/><path d="M620.4 322.9c-1.9 7.8-4.6 17.5-8.1 28.5h-21s-6.8-17.5-10.5-28.8-6.4-19.4-2.7-26.9 9.5-8.1 18.3-3.1l-1.3 14.2 6.7 19 3.1-10.1c6.6-4.3 14.9-1.9 15.5 7.2" class="st2"/><path d="m593.3 345.1-1.7-4.9c-3.7-10.9-6.9-20.2-9.1-28.7-1.8-7-3.3-15.3-2.4-19-.7.9-1.4 1.9-1.9 2.9 0 5.4 1.8 12.9 2.7 16.5 2.3 8.6 5.5 17.9 9.2 28.8l1.7 5c.7 2.1 1.4 4 2.1 5.7h1.8c-.8-1.8-1.5-3.8-2.4-6.3m15.2 6.3c2.3-7.7 5.6-19 9.9-33.6v-.3c0-.1 0-.2-.1-.3-.1-.1-.1-.2-.2-.2-.1-.1-.2-.1-.3-.1-.1 0-.2-.1-.3-.1-.1 0-.2 0-.3.1-.1 0-.2.1-.2.2-.1.1-.1.2-.1.3-4.4 14.9-7.7 26.4-10 34.1h1.6z" class="st4"/><path d="M616.6 261.4c-12.6-1.8-17.4-.9-22.1 9.7s-2.3 19.6 5.5 31 27 9.3 34.3 6.6c7.3-2.7 13.7-10 17.3-20.3 3.6-10.3 2.5-21.6-2.9-27.8-5.4-6.2-14.5-11.3-22.7-8.7-8.2 2.6-9.4 9.5-9.4 9.5" class="st5"/><path d="m622.7 276.3-3.8-1m4 2.6-3.9.5" class="st3"/><path d="M620.4 322.9c1.2-5.1 2.1-9.4 2.6-12.7 1.4-8.6-1.2-10-5-11.1s-6.5-3.2-8.3-9.7-2.9-6.4-5.1-5.3c-2.4 1.3-4.5 3.1-6 5.4-1.2 2.1-1 4.5 1.3 10.4 1.5 3.7 4 6.9 7.1 9.4l-2.1 6.4c7.7-.3 12.3.7 15.5 7.2m12.5-4c-1.1-4.9-2.5-10.2 0-11.6 2.5-1.4 10.2-5 14.4-14.1.1-.2.2-.4.4-.6.2-.2.4-.3.6-.4.2-.1.5-.1.7-.1.2 0 .5.1.7.2h.2c.2.1.3.2.5.3.1.1.3.3.3.5.1.2.1.4.1.6 0 .2 0 .4-.1.6-2 4.4-4.5 8.5-7.3 12.4.6 2.3 1.3 4.6 2.2 6.9-4.6 2.1-12.7 5.3-12.7 5.3" class="st6"/><path d="M608.3 302.9c.1-.2.2-.4.2-.6 0-.2-.1-.4-.2-.6-1.5-1.6-2.8-3.3-4-5.1-1.9-3.3-3.7-9.2-2.4-10.7l-1.4 1.3c-.2.2-.4.5-.5.8-.1.3-.1.6-.1 1 .5 2.9 1.5 5.8 3 8.4 1.2 2 2.6 3.8 4.2 5.5l.6.2z"/><path d="M607.8 309.5c2.9-.4 5.8-.5 8.7-.4m-18.2 27.6 6.3-20m-2.8 9.1-6.1-17.5m37.3 11.4c1.8 9.7 5.7 23.3 5.7 23.3" class="st3"/><path d="M551.9 326c-3.5 0-6.8 1.4-9.3 3.8-2.5 2.5-3.8 5.8-3.8 9.3v12.8h26.1v-12.8c0-3.5-1.4-6.8-3.8-9.2-2.4-2.5-5.7-3.9-9.2-3.9" class="st0"/><path d="M564.9 339.1c-1.7 0-3.4.3-4.9.9-1.6.6-3 1.6-4.2 2.8-1.2 1.2-2.2 2.6-2.8 4.2-.7 1.6-1 3.2-1 4.9h25.7c0-3.4-1.3-6.6-3.7-9.1-2.4-2.4-5.7-3.7-9.1-3.7" class="st0"/><path d="m605 227.5 19.7-3.1" style="fill:none;stroke:#000;stroke-width:8;stroke-linecap:round;stroke-linejoin:round"/><path d="M624.2 224.5c16.7-2.8 43.5-9 57.4-12.7" style="fill:none;stroke:#2835bd;stroke-width:8;stroke-linecap:round;stroke-linejoin:round"/><path d="m676.6 214.5 5.3 24.6" class="st3"/><path d="M686.9 238.3v-3.2h-20.6v3.3c0 .5-.2.9-.4 1.3-1 1.5-1.6 3.3-1.6 5.1v13.1c0 2.2.8 4.4 2.3 6 1.5 1.7 3.5 2.8 5.6 3.1 3 .4 5.9.4 8.9 0 2.2-.3 4.1-1.4 5.5-3.1 1.4-1.7 2.2-3.8 2.2-6v-13.1c0-1.8-.5-3.6-1.5-5.1-.3-.4-.4-.9-.4-1.4" class="st9"/><path d="M685 239.7v-4.1h-16.9v4.1c0 .8-.2 1.6-.6 2.3-.8 1.2-1.2 2.6-1.2 4v11.2c0 1.9.7 3.7 1.9 5.1 1.2 1.4 2.9 2.3 4.7 2.6 2.4.3 4.8.3 7.2 0 1.9-.2 3.6-1.2 4.8-2.6 1.2-1.4 1.9-3.2 1.9-5.1V246c0-1.4-.4-2.8-1.1-4-.4-.7-.7-1.5-.7-2.3" class="st10"/><path d="M666.3 236.7c0 1.4 4.6 2.5 10.3 2.5 5.7 0 10.3-1.1 10.3-2.5l-10.3-4.1z" class="st9"/><path d="M665.7 235.9c-.1.2-.1.3-.2.5v.5c0 .2.1.3.2.5.1.1.2.2.4.3 1.7 1 5.7 1.7 10.4 1.7s8.7-.7 10.4-1.7c.3-.2.5-.5.6-.8s.1-.7-.1-1l-10.9-21.4z" class="st3"/><path d="m675.6 258-3.1-.7c-.3-.1-.5-.3-.7-.6-.1-.3-.2-.6-.1-.9.1-.3.3-.5.6-.7.2-.1.3-.1.5-.2h.5c.2 0 .3.1.5.2.1.1.2.2.3.4zm0 0-.2-3.1c0-.1 0-.3.1-.4.1-.1.1-.3.2-.4l.3-.3c.1-.1.3-.1.4-.1.2 0 .3 0 .5.1.1.1.3.2.4.3.3.2.4.5.5.9 0 .3-.1.7-.3.9z" class="st4"/><path d="M676.2 260.9c-1.7.5-3.3 0-3.7-1.1-.4-1.1.2-1.7 1.8-2.1.7-.2 1.4-.4 2-.8 1.3-.7 2 .1 2.3 1 .3.9-.7 2.4-2.4 3" class="st11"/><path d="M673.1 257.9h-1.2c-.8 0-1.5.6-1.5 1.5v.1c0 .8.6 1.5 1.5 1.5h1.2c.8 0 1.5-.6 1.5-1.5v-.1c0-.8-.6-1.5-1.5-1.5" class="st12"/><path d="M640.4 255.8s15.9-10.8 24 7.2c0 0-7.6 10.6-18.2 3.3-10.7-7.3-5.8-10.5-5.8-10.5" class="st5"/><path d="m678.8 246.2 2.8-1.5c.2-.2.4-.4.5-.7 0-.2.1-.3 0-.5 0-.2-.1-.3-.1-.4-.1-.1-.2-.3-.3-.4-.1-.1-.3-.2-.4-.2-.3-.1-.7 0-1 .1-.3.2-.5.4-.6.8zm0 0-.5-3.1c-.1-.3-.3-.6-.5-.8-.3-.1-.6-.2-.9-.1s-.6.2-.8.4c-.2.3-.3.7-.2 1 .1.4.3.7.6.9z" class="st4"/><path d="M679.6 245.8c1.4 1 2.1 2.6 1.4 3.5-.7.9-1.5 1-2.8-.1-.5-.4-1.2-.8-1.8-1.1-.2-.1-.5-.2-.7-.4-.2-.2-.3-.4-.4-.7-.1-.2-.1-.5 0-.7.1-.2.2-.5.4-.6.7-1 2.5-.9 3.9.1" class="st11"/><path d="m678.9 249.4.7 1c.5.7 1.4.8 2.1.3l.1-.1c.7-.5.8-1.4.3-2.1l-.7-1c-.5-.7-1.4-.8-2.1-.3l-.1.1c-.6.5-.8 1.4-.3 2.1" class="st12"/><path d="M676.6 237.6c5.7 0 10.3-1.1 10.3-2.5s-4.6-2.5-10.3-2.5c-5.7 0-10.3 1.1-10.3 2.5s4.6 2.5 10.3 2.5" class="st9"/><path d="M687 235.1h-20.7v1.4H687z" class="st9"/><path d="M680.8 235.9c-.5.1-.9.4-.9.9 0 .1 0 .2.1.3.1.1.1.2.2.2.1.1.2.1.3.1h.3l1.7-.3c.2 0 .4-.1.6-.3.2-.2.3-.4.3-.6 0-.1 0-.2-.1-.3-.1-.1-.1-.2-.2-.2-.1-.1-.2-.1-.3-.1h-.3z" class="st4"/><path d="m676.6 214.5-5.3 24.6m6.1-22.9-2.6-5.6m2 5.9.3-6.4" class="st3"/><path d="M633 281.4c-2.2-4.6-6-7.9-9.5-7.4s-2.1 5.7 2.5 9.2 9.4 3.2 7-1.8" class="st4"/><path d="M633.1 281.7c0-.1-.1-.2-.1-.3-1.1-2.3-2.7-4.3-4.7-5.9-.6 1.1-.8 2.4-.7 3.7.2 2.7 1.6 4.8 3.2 4.7.6-.1 1.1-.3 1.5-.7.4-.4.7-.9.8-1.5"/><path d="M635 291.7c6.3-1.6 8.8-2.3 9.8-.9s.1 3-1.4 4.6c1.6 3.5 1.1 5.1-2 5.1-2.3-.2-4.5-.8-6.4-2" class="st3"/><path d="M641.7 293.7c-.4 1-.9 2-1.6 2.9" class="st3"/><path d="M213.6 351.4H224l7.8-23.8h-20.5z"/><path d="M356.9 343.8h-55.7c-35.8 0-56.4-10.3-71.8-22l-3.6 22h-9.1c0-105.6 13.6-205.8 13.6-205.8 2-11.3 23.5-16.4 50.2-7.1 26.7 9.3 33.8 21.2 32.8 32s-9.5 83.6-12.7 117.7l5.7 6.2c2 2 3.4 4.5 4.3 7.2.8 2.7 1 5.6.5 8.4l-.6 3.3c22 14.2 56 7.1 46.4 38.1" class="st13"/><path d="M229.2 165c-.9 12.6-1.1 17.8-1.1 19.8 0 .3.1.6.2.9.1.3.3.6.5.8 5.9 5.9 12.9 7.8 18.4 8.5.3 0 .6 0 .9-.1.3-.1.6-.2.8-.5.2-.2.4-.5.6-.8.1-.3.2-.6.2-.9l1.1-16" style="fill:none;stroke:#fff;stroke-width:2;stroke-linecap:round;stroke-miterlimit:10"/><path d="M224.8 282.3c-3.3.1-6.6-.7-9.5-2.3m1.2 6.9c4.3.6 9.6-1.3 9.6-1.3" style="fill:none;stroke:#000;stroke-width:4;stroke-linecap:round;stroke-miterlimit:10"/><path d="M275.8 215.1c-.9 9-1.1 18.9 3.4 21.5 2.8 1.7 8.5 1.5 14.8-1.5 2.5-24.9 5.2-46.3 6.5-58.4l-29.8 4.9c-2.9 25.7-3.4 34.1 5.1 33.5" class="st16"/><path d="M296.5 178.7c4.8-10-8-26.1-28.6-35.9-20.6-9.8-41.2-9.7-45.9.4-4.8 10 8 26.1 28.6 35.9 20.6 9.8 41.2 9.6 45.9-.4"/><path d="M217.2 329.4c15.4 11.7 36 22 71.8 22h55.7c.9-2.9 1.5-5.9 1.6-8.9-59.1 0-93.4-1.2-141-36.8-.4 14.2-.7 29.5-.8 45.7h9.1z" style="fill:#57f287"/><path d="M221.2 279.1c2.6 10.1 9.7 17.8 15.9 17.2 6.2-.6 6.4-6.4 4-16.1-.6-2.6-1.1-5.1-1.6-7.7-1.8-9.2-6.3-13.2-11.8-12.7s-9.2 9.3-6.5 19.3" class="st4"/><path d="M221.2 279.1c2.6 10.1 9.7 17.8 15.9 17.2 6.2-.6 6.4-6.4 4-16.1-.6-2.6-1.1-5.1-1.6-7.7-1.8-9.2-6.3-13.2-11.8-12.7s-9.2 9.3-6.5 19.3" class="st4"/><path d="M237.5 279.2c1 4.4.3 8.3-1.4 8.6-1.7.3-3.8-2-4.5-7.5-.7-5.5-.3-8.5 1.4-8.5s3.6 2.9 4.5 7.4"/><path d="M295.4 312.5c.1 0 .3 0 .4-.1.1-.1.3-.2.3-.3.1-.1.1-.3.2-.4v-.4c-2-10-8.1-11.4-19.4-8.8-11.3 2.6-15.8 3.6-18 4.4-2.2.8-1.2 1.3 13.7 3.6 7.5 1.3 15.2 1.9 22.8 2" class="st16"/><path d="M345.8 337.4c-11.1.1-29.6-.1-47.8-1.3-33.8-2.3-64.9-14.9-92.5-37.4v1.8c27.6 22.3 58.6 34.8 92.4 37 17 1.2 34.2 1.4 45.5 1.4h2.7z"/><path d="M239.5 272.6c-1.8-9.2-6.3-13.2-11.8-12.7s-7 4.6-7.4 10.5c6.2 2 12.7 2.7 19.2 2.2" class="st10"/><path d="m381.4 192.3-33.3 18.6c.6.5 1.3.9 2.1 1 .8.1 1.6 0 2.2-.4 1.9-.8 6.5-5 8.3-6 1.8-1 6.9-3 9.4-4 3.1-1.2 6-2.9 8.6-4.9 2.2-1.8 3-2.5 2.7-4.3"/><path d="M299.2 123.2c-6.1-3.8-6.4-3.7-9.8-9.8s-7.7-9.1-12.7-9.8l6.2 44.9c13 3.8 21-2.8 22.8-9.3 1.8-6.5-.3-12.2-6.5-16" class="st18"/><path d="m260.4 177.7-48.9-52c.7-3.2 1.8-6.2 3.3-9.1 3.5-7.3 5.2-15.3 5-23.4l-.2-18v-4.3c0-1.3 0-2.6.2-3.9.5-5.3 2.5-10.2 5.6-14.5 1.4-1.9 3-3.6 4.8-5.1 5.9-4.9 13.5-7.4 21.1-6.8 4.1.2 8 1.3 11.7 3.1 4 2 7.4 4.7 10.2 8.1.5 6.8 3.1 10.7 6.5 12.8 1.2 4.8 1.2 9.7.2 14.5l-2.2 10c-.6 2.9-.6 6 .1 8.9.7 2.9 2 5.6 3.9 7.9 5.3 6.4 9.8 14.9 11.5 22.2 5.1 23.2-9.5 45.7-32.8 49.6" class="st18"/><path d="M260.4 178.7c23.2-3.9 37.8-26.4 32.7-49.6-1.6-6.9-5.7-14.9-10.6-21.1" class="st19"/><path d="M277.5 130.6c4.6-7.6 6.4-6.6 14.6-4.4 6.6 1.7 14.2 15.2 4.1 22-10.1 6.8-30.7 2.7-18.7-17.6" class="st18"/><path d="M254.7 108.2c.9-.7 1.1-2.1.3-3-.7-1-2.1-1.2-3-.5-.9.7-1.1 2.1-.3 3 .7 1 2.1 1.2 3 .5m12.6.8c.9-.7 1.1-2.1.3-3-.7-1-2.1-1.2-3-.5-.9.7-1.1 2.1-.3 3 .7 1 2.1 1.2 3 .5"/><path d="M266 107.4c10.7 8.8 6.3 15.1 14.9 28.1" class="st20"/><path d="M253.9 127.1c6.6-4.6 8.6-5.9 11.1-5.8l6.5.6-1.7 26.4-16.5-.5z" class="st2"/><path d="M285.9 120.4c.1-.3.2-.7.1-1.1 0-.4-.2-.7-.4-1-.2-.3-.5-.6-.8-.8-.3-.2-.7-.3-1.1-.3l-11-1.6c-.8-.1-1.6.1-2.3.5-.7.4-1.2 1.1-1.4 1.9l-6.2 23c-.1.4-.2.7-.1 1.1 0 .4.2.7.4 1 .2.3.5.6.8.8.3.2.7.3 1 .3l11 1.6c.8.1 1.6-.1 2.3-.5.7-.4 1.2-1.1 1.4-1.9z"/><path d="m285.4 118.1 1.2 1.4-3.3.3z"/><path d="M290.8 133.3c-1.4-2.3-2.7-5.2-6.5-5.8l-.5 4.8z" class="st2"/><path d="M287 121.7c.1-.3.1-.7.1-1.1-.1-.4-.2-.7-.4-1-.2-.3-.5-.6-.8-.8s-.7-.3-1-.4l-11.1-1.6c-.8-.1-1.6.1-2.3.6-.7.4-1.2 1.1-1.4 1.8l-6.2 23c-.1.3-.1.7-.1 1.1.1.4.2.7.4 1 .2.3.5.6.8.8.3.2.7.3 1 .4l11.1 1.5c.8.1 1.6 0 2.2-.5.7-.4 1.1-1.1 1.4-1.8z" class="st4"/><path d="m283.6 130.8 4.5.7c.9.1 1.7.6 2.3 1.3.6.7.9 1.6.8 2.5 0 .5-.1.9-.4 1.4-.2.4-.5.8-.9 1.1-.4.3-.8.5-1.3.6-.5.1-.9.2-1.4.1l-3.2-.5c-1-.1-2-.6-2.7-1.4-.7-.7-1.2-1.7-1.3-2.7 0-.5.1-.9.2-1.3s.5-.8.8-1.1c.3-.3.8-.5 1.2-.6.5-.2 1-.2 1.4-.1" class="st2"/><path d="m282.1 137.5 3.1.5c.5.1 1 .2 1.5.5.4.3.8.6 1.1 1.1.3.4.5.9.5 1.4.1.5 0 1-.1 1.5-.2.8-.7 1.5-1.4 1.9-.7.4-1.6.6-2.4.5l-1.9-.3c-1-.1-2-.6-2.7-1.4-.7-.7-1.2-1.7-1.4-2.7 0-.5.1-.9.2-1.4.2-.4.5-.8.8-1.1.4-.3.8-.5 1.2-.6.6 0 1 0 1.5.1m-9.7 11.4-10.8-1.5.5-4.4 10.8 1.6zm2.6-17.5-6.8-1c-.3 0-.6-.2-.9-.4-.2-.2-.4-.5-.5-.8l-.6-1.8-.5-3.7-3.7 13 11 1.6c1 .1 2.1-.1 3-.6s1.6-1.3 1.9-2.3c.1-.5.1-.9 0-1.4-.1-.5-.3-.9-.6-1.3s-.6-.7-1-.9c-.4-.2-.8-.4-1.3-.4" class="st2"/><path d="m272.8 138.2-10.8-1.5.5 7.2 8.3 1.2c1 .2 2-.1 2.9-.6.9-.5 1.5-1.3 1.9-2.3.1-.4.2-.9.1-1.4-.1-.5-.3-.9-.5-1.3-.3-.4-.6-.7-1-.9-.5-.2-.9-.4-1.4-.4" class="st2"/><path d="M354.4 191.9c-2 5.9-9.4 9.3-13.9 10.9-4.5 1.6-5.1.4-8.2-4.7-5.9 1.1-11.8-1.3-16.2-7.5-4.4-6.2-6.2-10.8-14.4-15l-14.5-28.2c2.2-.7 4.2-1.2 6-1.7 2 2.1 6.5 1.3 9.4-1.1 4.1.2 7.6 1.5 11.3 4.2 7.5 5.4 14.7 13.4 20.8 17.2 6.1 3.8 15 5.5 14.7 16.3 4.1 2.7 7 3.7 5 9.6" class="st21"/><path d="M306.3 135.4s.1 6-3.7 9.2c-2.8-.1-5.8.3-9.4 1.1-.6-.6-1-1.5-1-2.7-.1-5.2 3.8-5.7 5-7.5s.8-4.5 2.1-6.2c1.3-1.8 3.8-3.2 5-1.4-.1 0 1.9 2.3 2 7.5" class="st18"/><path d="M341.9 199.4c-3.8-.9-5.3-3-7.7-6.3l-2.1-2.8c-10.3-2.1-14.5-7.6-16.8-11.6-1.1-1.9-3.1-3.4-5-4.8s-3.8-2.9-4.9-4.7c-.8-1.3-1.6-2.8-2.2-4.2-.8-2.1-1.5-3.5-2.8-3.9-1.3-.4-3.5.4-5.6 1.3-1.9.9-3.9 1.6-6 2-.2 0-.3 0-.5-.1-.1-.1-.3-.2-.3-.4s.1-.4.2-.5c.1-.1.3-.2.4-.3 2-.3 3.8-1 5.6-1.9 2.4-1 4.4-1.9 6.5-1.3 2.1.6 2.8 2.4 3.7 4.6s1.2 2.6 2 4c1.3 1.7 2.9 3.1 4.7 4.3 2 1.6 4.1 3.2 5.3 5.3 2.3 4.1 6.3 9 16.2 11h.2l.2.2c.9 1.1 1.6 2.2 2.3 3.1 2.2 3.1 3.6 5 6.8 5.8h.3c.1 0 .1.1.2.2s.1.2.1.2v.6c0 .1-.1.1-.2.2-.1 0-.2.1-.2.1-.2-.1-.3-.1-.4-.1" class="st22"/><path d="M301.1 159c-1.3 4.3-2.2 8.7-2.6 13.2" class="st19"/><path d="M307 211c-9.1 8.2-16.8 5.9-20.4 5.5s-3.2-3-3.5-5.2c-.3-2.2-.5-5.5-.5-5.5-9.1-.6-10.2-6.8-10.4-12.3-.2-5.5-1.6-6.3-2.3-10.2-11-2-21.3-6.4-30.3-13.1-9-6.6-16.3-15.2-21.4-25.1l9.5-6.9 21.2 13.8c14.3-5.3 22.2-8 29.9-8.5 7.7-.5 15.3 2.4 17.8 13.1s2.8 14 5.1 19.1c.6 1.3 1.6 3.1 2.6 5 2.8 5.7 5.7 13.7 0 22.4.7 2.7 1.6 5.3 2.7 7.9" class="st9"/><path d="M233.7 165.3c-.3-7.1 2.4-12.1 7.3-12.9l-12.4-8.6-9 3.9c2.3 6.4 8.2 13.4 14.1 17.6"/><path d="m289.6 212.9.2-1.3c-1.8-.3-1.9-1.6-2.4-7.7v-.8l-.4-.2c-4-1-6.7-3.4-6.9-11.5 0-3.8-.8-7.7-2.3-11.2-.4-.8-.7-1.7-.9-2.6-.2-.8-.5-1.6-.7-2.3-1.1-2.8-1.4-5.9-.9-8.9.4-3.1.1-4.8-.9-5.7-1-.9-3.5-.6-7.2.6h-.5c-5.9 1.9-17.7 5.8-29.6 6.8l1.5 1.1c11.6-1.1 22.8-4.8 28.5-6.6l.5-.2c3-1 5.1-1.5 6-.8.9.7.7 2 .4 4.5-.5 3.2-.2 6.5 1 9.5.3.7.5 1.5.6 2.2.3.9.6 1.8 1 2.7 1.4 3.4 2.2 7.1 2.2 10.8.2 7.5 2.3 11.2 7.4 12.7.4 6.1.6 8.4 3.4 8.9" class="st21"/><path d="M254.1 125.7c-2.9-2.5-5.1-2.3-8.6-.8-3.7-3.4-8.5-3.9-13.5-2.2-5 1.7-12.7 4-17.2 5.2-.3.1-.5.1-.8.1-.3-.1-.5-.2-.7-.4-.2-.2-.3-.4-.4-.7-.1-.3 0-.5.1-.8l3.3-12c-10.7 8-14.2 25.1-10.8 34.4s18.2 9.2 22.9 6.6c4.7-2.6 6.3-3.4 11.7-2.4 5.4 1 9.6 1.7 16.7-3.7l4.2-1.4c1.6-9.1.2-15.7-6.9-21.9" class="st18"/><path d="M302.6 144.6c-2.9 2.4-7.4 3.2-9.4 1.1 3.6-.8 6.6-1.2 9.4-1.1" class="st21"/><path d="M254.1 125.7c-2.9-2.5-5.1-2.3-8.6-.8-3.7-3.4-8.5-3.9-13.5-2.2-5 1.7-12.7 4-17.2 5.2" class="st19"/><path d="M245.5 124.9c3 2.3 5.5 5.2 7.3 8.5 1.8 3.3 3 6.9 3.4 10.7" class="st19"/><path d="M275.8 121.9c0-.1.1-.3 0-.4 0-.1-.1-.3-.1-.4l-.3-.3c-.1-.1-.3-.1-.4-.2h-1c-.3-.1-.6 0-.8.1-.2.1-.4.4-.5.7l-.9 3.3c0 .1-.1.3 0 .5 0 .2.1.3.2.4l.3.3c.1.1.3.1.4.1h1c.3 0 .5 0 .8-.2.2-.1.4-.4.4-.6z" class="st13"/><path d="m272.8 138.2-5.7-.8m16.1.5 3.2.5" class="st19"/><path d="M253.4 106.6c1.2 13.8-5.8 20.4-8 34.1" class="st20"/><path d="M269.1 183.4c-1.8-5.9-2.6-16.7 2.3-26.2" class="st19"/><path d="M268 168.7c-1.1-2.2-1.7-4.6-1.6-7.1m-47.7-34.8-7.4 2.4m80.9-3.3 5 1.4" class="st19"/><path d="M381.4 192.2c-.5.8-1.2 1.5-1.9 2.2-3.2 3.2-10.5 6.8-14.4 8.3-3 .9-5.7 2.5-8 4.6-2.9 2.3-6.5 5.4-9 3.6-3.1-2.9-6-6.1-8.6-9.5l-.3-.6c0-.2 0-.5.1-.7 1.4-4 5.9-9.7 12.4-12.7.2-.1.4-.1.7-.1.2 0 .4.1.6.3 3.8 2.7 6.1 3.4 9.2 3.3 3.1-.1 9.1-2.1 14-3.5s5 .8 5.2 4.8" class="st2"/><path d="M342.3 204.9c1.8 2.1 3.7 4.1 5.8 6 2.5 1.8 6.1-1.3 9-3.6 2.3-2.1 5-3.7 8-4.6 3.9-1.5 11.2-5.1 14.4-8.3.7-.7 1.4-1.4 1.9-2.2-.2-4-1.1-6-5.2-4.8-4.1 1.2-6.4 2.2-9.4 2.9-.9.2-1.7.7-2.3 1.4-.6.7-1.1 1.5-1.3 2.4-.1 1.1-.3 2.2-.5 3.5-5.4-1.1-10.6.7-11.7 7.8 0 0-4.6-2.5-8.7-.5" class="st12"/><path d="m379.5 194.4 1.9-2.1c.1-.2.2-.5.2-.7-.1-.8-.3-1.5-.6-2.2-.8 1.5-2.2 3-5.3 5.3-4.9 3.6-10.4 4.9-13.7 6-3 1.1-5.8 2.9-8.1 5.1-1.8 2.1-4.2 3.5-6.9 4.2l1.1.9c2.5 1.8 6.1-1.3 9-3.6 2.3-2.1 5-3.7 8-4.6 3.9-1.5 11.2-5.1 14.4-8.3" class="st4"/><path d="M318.5 198.9c-5.1-1.4-10.3 1-14.9 9.7-1.3-1-4.5-2.1-9.3-1.2-4.8.9-6.6 3-7.4 4.6-.5.9-.6 2-.4 3 .3 1.3.7 3 1.3 5.8.9 4.3.4 8.1 2.8 8.5l33.6-24.2s.9-4.4-5.7-6.2" class="st2"/><path d="M318.5 198.9c-5.1-1.4-10.3 1-14.9 9.7-.6 1.3-1.2 2.6-1.7 4-5.3-.5-7.8 1.8-8.7 6.9 0 0-3.5-2.4-5.6.4.1.3.1.6.2.9.9 4.3.4 8.1 2.8 8.5l33.6-24.2s.9-4.4-5.7-6.2" class="st12"/><path d="m324.2 203.7-2.5-2.3c-4.3-.7-7.9-.8-11.7 3.5-3.8 4.3-6.3 9-10.3 11.8-5.7 4.2-10.5 5.9-11.2 9-.7 3.1.7 3.4 2.1 3.6l33.6-24.2c.1-.5.1-.9 0-1.4" class="st4"/><path d="m319.9 199.9 2.4.7c.2 0 .4.1.6.2.2.1.3.3.4.5.9 1.6 1.3 3.4 1.1 5.2l-8.8-1.6c2.9-1.4 3.9-2.7 3.6-4.4v-.3c0-.1.1-.2.2-.2.1-.1.2-.1.3-.1 0-.1.1 0 .2 0" class="st4"/><path d="M290.8 229.4c8.6 1.7 12.4-1 16.1-4.8 1.5-1.7 3.3-3.1 5.3-4.3 5.1-2.9 9.1-6 11.8-10.9 2.7-4.9-5.6-8.1-11-3.6s-5.7 9.8-16.4 16.4c-7.3 4.6-8.3 6.7-5.8 7.2"/><path d="M292 213.8c0-1-.4-1.8-1-1.9-.6 0-1.1.7-1.2 1.7-.1 1 .4 1.8 1 1.9.6.1 1.2-.7 1.2-1.7m89.7-22.8c-.2-1-.5-2-1-2.9-.1-.1-.2-.2-.3-.1h-.1c-.2 0-.2.1-.2.2.5 2.1.7 4.5-.4 5.9 2.3-1.8 2.1-2.8 2-3.1M346 201.6c.9-.2 1.4-1.5 1.1-2.9-.3-1.4-1.3-2.4-2.2-2.2-.9.2-1.4 1.5-1.1 2.9.3 1.5 1.3 2.4 2.2 2.2" class="st4"/><path d="M421 351.4c42.3 0 77-17.6 122.6-57.8s61.6-53.4 74.5-65.9 12-20.6 5.3-36.6-11.1-13.7-11.1-13.7c-.8-13-13.5-34.5-27.5-51.8s-22.4-14.5-37.8-14.5c-15.4 0-20.5 4.2-27.4 22.6s-24.1 34-56.6 39.7c-32.5 5.7-50.3 5.4-51.2 21.7-.9 16.3 0 44.4-14.4 66.6-17.9 8.7-36.7 15.3-56.1 19.7-11.4 2.6-13.8 10.1-14.9 19.9-1.1 9.8 2.9 15.1 4.8 18.2-3.9 3.7-3.1 5.3-1.2 14 .8 3.5 1.7 7 2.5 10.1.7 2.3 2 4.2 3.9 5.6 1.9 1.4 4.2 2.2 6.5 2.2z" class="st21"/><path d="M326.4 301.3c-1.1 9.8 2.9 15.1 4.8 18.2l78.3 9 75.8-11.1s50-40.3 43.2-53.7c-6.8-13.4-21.1-.8-40.2 12.2s-38.9 14.2-61.6 10.9c-22.7-3.3-50.2-13-85.4-5.4-11.4 2.6-13.8 10.1-14.9 19.9" class="st22"/><path d="M536.6 257c.1-17.3-.5-21.4 5.3-20.6 5.8.8 15.3 2.7 15.3 2.7l-10.3 16.3zm30.4-26.9c0-8.4-.7-13.9 1.6-15.1s5 .3 9.8 4.6c4.8 4.3-11.4 10.5-11.4 10.5m-230.8 87.3c-1.3-10.1-1-18.1 1.7-20.1s5.3 2.6 7.2 6.6c2.4 5.1 5.4 9.8 9 14.2zm86.8 2.2c3.3-13.5 6.1-16.8 8.9-17 2.8-.2 4.2 6.2 8.2 15.3l-6.6 3.1z" class="st23"/><path d="M603 196.1c-42.5 41.1-67.9 63.7-103.5 90.2s-51.5 33.4-81.4 33.4-49.1-16.8-86.9-.2c-3.9 3.7-3.1 5.3-1.2 14 .8 3.5 1.7 7 2.5 10.1.7 2.3 2 4.2 3.9 5.6 1.9 1.4 4.2 2.2 6.5 2.2H421c42.3 0 77-17.6 122.6-57.8s61.6-53.4 74.5-65.9 12-20.6 5.3-36.6-11.1-13.7-11.1-13.7c0 4.5.3 9.3-9.3 18.7" class="st4"/><path d="M623.9 192.2c-.1 5.8-3.7 12.4-13.5 21.4-19.2 17.5-58.9 53.3-86.2 76.5-29.9 25.7-57.7 46.9-94.7 46.9-12.9 0-27-2.7-40.7-5.3-24.1-4.6-47-8.9-58.6 2.7.1.6.3 1.3.4 1.9 10.8-11.9 33.7-7.6 57.9-3 13.8 2.6 28 5.3 41 5.3 37.5 0 66.7-22.4 95.7-47.2 27.3-23.3 67.1-59.2 86.2-76.6 7.2-6.6 12.4-12.7 13.7-19.4z" class="st12"/><path d="m512 319-13.9-31.6c-5.3 3.9-10.2 7.4-14.7 10.5l-1.2 1.4c5.2-2.2 10.4.7 10.8 9.6.1 4.8.1 14.5.1 22.3 6.5-3.7 12.8-7.8 18.9-12.2m-163.3 24.4c-8 .1-11.9 3.3-8.7 6.4 1.2 1.1 2.7 1.7 4.3 1.6H413c-34.2 0-37.7-8.4-64.3-8"/><path d="M584.3 166.9c-10.3 13.2-13.9 18.4-9.6 32.5 1.8 6.1 4.1 12.6 6 18l22.3-21.3c9.6-9.4 9.3-14.2 9.3-18.7-.7-11.1-10-28.4-21.5-44 5.8 8.4 3.8 20.3-6.5 33.5" class="st22"/><path d="M570.6 150.1c5.9-22.5 5.3-37.5-9.2-39-4.3-.4-8.9 0-14.4 0-15.5 0-20.5 4.2-27.4 22.6s-24.1 34-56.6 39.7c-32.5 5.7-50.3 5.4-51.2 21.7-.9 16.3 0 44.4-14.4 66.6-2.1 3.7.4 6.2 30.3 6.2s47.7-1.8 52.7-14.3 12.2-39.8 15.8-50.6 3-17 22.9-21.5 45.9-9.7 51.5-31.4" class="st9"/><path d="M501.5 178.7c16-6.6 27.3-5.1 44.3-13.2s19.2-14.1 21.3-25.2c2.1-11.1 3.6-24.2-6.7-25.1-10.3-.9-19.6-.5-24.3 1.1-4.7 1.6-5.9 4.5-11 15s-7.6 26.1-30.5 36.3z"/><path d="M366.7 312.4c.1 5.1 1.5 12.4 4.3 13.1 2.8.7 4.1-5 7-12.1-3.1-3.2-11.3-6.5-11.3-1" class="st23"/><path d="M494.3 289.2c-2.5.1-4.9.8-7.1 1.9-9.3 4.7-9.2 8.7-8.9 10.1 12.7-7.7 18.3.8 21.9 25.7 1.4 9.8 3.9 14.6 11.1 14.6 8.8 0 14-6.2 13.4-22.2-.1-3-.5-6-1-9-2.5-13.4-7.7-26.9-20.3-26.9-1.9.1-3.7.7-5.3 1.7s-2.9 2.4-3.8 4.1" class="st6"/><path d="M588.2 244.1c-5.4 4.8-10.8 5.2-12 1-1.2-4.2 2.1-11.6 7.5-16.3l9.4-8.3c5.4-4.8 10.8-5.2 12-1s-2.2 11.6-7.5 16.3z" class="st24"/><path d="M494.3 289.2c8.4.9 14.8 4.8 17.5 15.4 1.9 7.5 1.3 16.3 2.6 23.9" class="st3"/><path d="m590 169.2-2.5 3.4c-7.9 10.3-10.8 14.1-2.4 40.6l1.3-1.2c-7.9-25-5.3-28.5 2.3-38.4l2.6-3.4c6.2-8.4 8.5-16.7 8.3-23.8l-1.8-2.8c1 7.3-1 16.4-7.8 25.6" class="st10"/><path d="M476.1 307.6c.8-4.5-.2-6.7-2.5-6.4-2.3.3-4.3 1.7-6.5 6.8 1.8 19.5 7 11.9 9-.4" class="st23"/><path d="m558.3 118.4 15.7-2c2.5-.3 3.4-6 4.5-13.2 1.1-7.2-.2-20.3-.2-20.3l-16.2 4.9z" class="st6"/><path d="M601.9 78.2c-6.7-7.5-40.7-33.7-40.7-33.7l-8 11.5s11.3 12.5 19.4 20.9c-16.4 1.3-46 5.2-46 5.2-21-4.2-29.9-6.2-29.9-6.2l21.6-20.5-7.9-11.8s-20.6 12.6-32.2 21.7c-11.6 9.1-13.5 20.3-2.5 28.8s14.7 11.1 14.7 11.1l70.9 7.3c20.8-5.8 33.2-12.1 40.7-18.6 7.5-6.5 6.6-8.2-.1-15.7" class="st2"/><path d="M484.5 74.8c2.5.4 6.9 1.6 6.9 1.6" class="st3"/><path d="m556.9 40.9-7.1 11.9 8 8.2c2.6-2.9 5.2-8 4.4-15.7z"/><path d="M510.9 92.9c-9.6-11.8-13-16.9-15-22.8-1.4-4.3 7.1-1.7 18.1 1.6 11 3.3 9.3 6.4-3.1 21.2" class="st6"/><path d="M497.1 75.6c-10.1 11.3-10.3 25.1-9.2 44.4 0 0-17.4 17.5-14.9 32.8s26.3 21.9 53.4 21.6c21.8-.2 24.2-5.3 26.2-15.6 1.2-6.7 2.1-14.4 2.7-20.4.6-6.3 2.2-12.5 4.7-18.3 13.4-31.1 2.6-42.3 2.6-42.3l-36.2 2.9z" class="st6"/><path d="M505.1 59.4c-8.5 6.3-6.7 15.9 5.3 29.1l5.4 5.4 34.9-5.7c11.2-13.9 9-23.2 4.9-29 5.7-9.4 6.1-15.9 6-21.7-.1-9.8-9-25.2-31.4-25-12.2.1-23 4.9-26.9 20.4-1.4 5.4-1.7 14.2 1.8 26.5" class="st12"/><path d="m532.7 70.6-2.8 7.1s-2.6 3-5.2 4.8-6.9 6.1-12.3-2.1c-5.3-8.2 11.8-7 13.7-10.4 1.9-3.4-.9-6.1 3.6-9.3 4.5-3.2 11.5 6.2 11.5 6.2s-3.5-1.2-4.6 1.2c-.7 1.4-2.4.5-3.9 2.5" class="st25"/><path d="m549.6 25.7 12 11.8v2.4l-11.9-8.3z"/><path d="M562.6 77.7c-5.6-5.3-12.3-9.5-19.5-12.2-6.5-2.3-8-2.9-9.5.8s-3.1 7.9-3.7 9.3-7.7 6.2-12 9.8-8.8 11.3-8.8 11.3l45.6 3.5zm9.8-1 5.9 6.2c-2.7 8.4-4.4 18.9-5.4 30.6l-23.3 1.7 13-37.4zm-75.3-1.1-4.3-.8c-.7-.1-1.3 0-2 .1-.6.2-1.2.5-1.7 1-4.9 4.5-8.2 10.4-9.4 16.9-1.3 7.6-.9 8.4 7.9 13.1 5.9 3.2 12-10.8 15.3-20.3.4-1 .5-2.1.4-3.2-.1-1.1-.4-2.2-1-3.1-.6-1-1.3-1.8-2.2-2.4-.9-.7-1.9-1.1-3-1.3" class="st6"/><path d="M501.3 153.4c-7.7-8.9-16.3-17-25.7-24l-22.4 11.7 7.3 21.8s6 7.6 11.6 13.6 15.7 6.2 34.3 7.8c7-12.5 3.8-20.4-5.1-30.9" class="st1"/><path d="m464.8 162.5 2-9.7" class="st3"/><path d="M543.4 149.3c-1.8-4.9-7.3-8.8-31.9-10l-9.1-9.2-25.3 19.3c9 15.2 19.2 33.5 29.3 34.9 10.1 1.4 19.2.7 31.2-6.6 7.6-4.7 8.6-6.9 8.8-10.9-.2-5.9-1.2-11.8-3-17.5" class="st26"/><path d="M570.6 150.1c-5.6 21.7-31.6 26.8-51.5 31.4-18 4.1-19.2 9.5-21.9 18.5l-13.6-3.6v-14l17.9-3.7c16-6.6 27.3-5.1 44.3-13.2s19.2-14.1 21.3-25.2c1.3-6.5 2.3-13.9.7-19l5.7.8c1.5 6.8.2 16.4-2.9 28" class="st9"/><path d="M418.4 171.6c-1.3.8-2.3 2-2.9 3.5-.5 1.5-.6 3-.1 4.5 2.9 9.2 4.2 16.3 1.5 38.7s-7.2 34.8-9.3 39.4c-.1.3-.2.6-.2.9 0 .3.1.6.2.9.1.3.4.5.6.7s.5.3.8.3c11.2 1.7 28 1.5 46.4-.9 3.1-.4 6-1.6 8.5-3.5s4.4-4.5 5.6-7.4c4.7-11.7 8.6-23.8 11.6-36.1 6.7-27.6 5.9-27.1 20.3-33.8-1.1-9.9-1-19.4-11.8-20.8-12.6-1.6-26.4 4.6-46.2 10-4.4-4.1-8.5-6.1-25 3.6" class="st22"/><path d="M472.6 159.4c-8.3 2-17.7 5.4-29.1 8.5-3.3-2.9-6.4-4.8-14.3-1.7-.3.7-.5 1.5-.7 2.3-3.6 17.9-10.4 47.2 10 45.6 20.4-1.6 22.7-13.7 22.1-24.7-.6-11-1.9-17.1 0-20.3 1.9-3.2 8.6-8.8 12-9.7" style="fill:#287ceb"/><path d="M490.9 184.7c-1.4-11.7-2.3-17.3-5.5-19.5s-4.3-1.5-8.5-.6-9.5 2.5-16.3 4.5c-12.7 3.7-28.5 8.4-34.5 8l-2-.3c1.4-1.5 10-4.6 15.7-6.7l4-1.5c.1 0 .2-.1.3-.1l.2-.2c0-.1.1-.2.1-.3v-.3l-.8.2-.7-.6-3.6 1.3c-13.3 4.9-17.1 6.6-16.8 8.5.3 1.9 1.8 1.5 3.6 1.6 6.2.4 21.5-4.1 35.1-8.1 6.7-2 12.5-3.7 16.1-4.4 3.6-.7 5.9-.7 7.3.3s3.6 8 4.9 19.8z"/><path d="M514.5 53.6c2.7-.6 5.4-.6 8.1 0" class="st3"/><path d="M430.7 133c.1.3.2.5.3.5s.2-.1.3-.4"/><path d="M447.7 128.4c-10.8 4.2-25.9 13-38.9 20.3-7.2 4-9.4 6.4-5.6 13.7 3.8 7.3 11 14.3 16.4 19.1 5.4 4.8 8.4 2.8 12.4.2l28.5-18.8 15.1-33.5c-6.3-4.4-17-5.3-27.9-1" class="st1"/><path d="M417.2 168.1c4.6.9 4.6 1.4 10.3-2.3 5.7-3.7 34.4-21 37.3-22.9" style="fill:none;stroke:#4150f2;stroke-width:2;stroke-linecap:round;stroke-miterlimit:10"/><path d="M489.4 117.8c-4.5-3.3-7.6-3.5-31.8-5.5-24.2-2-35.5-4.5-38.3-.1-2.8 4.4-.3 15.4 2.5 23.7 2.8 8.3 4.4 11 8.3 11.3 3.9.3 40.3 1.5 47 2.2l3.3 5.6 31.1-15.7s-17.7-18.2-22.1-21.5" class="st26"/><path d="M412.6 161.4c-6-4.9-8.4-5.8-7.7-2.5.7 3.3 4.5 8.2 8.6 12.6s8.8 8.9 10.4 8.6c1.6-.3-.3-3.3-2.8-8.1-2.1-4-5-7.6-8.5-10.6"/><path d="m419.2 168.7-5 3.5-4.1 2.9c-4.9 3.6-2.9 6.5-2.5 9.9.4 3.4-.7 5.9-3 5.9s-5.7-9.6-8.1-14.2c-2.4-4.6-10.3-8.3-14.4-11.8-1.7-1.5-2.1-4 0-4.8-.9-1.3-2.1-4.6.9-5.6s7.5 4.5 10 6.2 5.6 3.3 7.9 2.3c1.6-.7 3.1-1.5 4.6-2.4l3.4-2.1 3.7 2.9c2.5 2.1 4.7 4.6 6.6 7.3" class="st6"/><path d="M570.6 150.1c-5.6 21.7-31.6 26.8-51.5 31.4-19.9 4.6-19.3 10.6-22.9 21.5-3.6 10.9-10.8 38.2-15.8 50.6l66.5-39.1 27.2-51.6z" class="st21"/><path d="M493.5 237.9c-2.2 7.7-4 13.5-5 17.7-1 4.2 3.6 3.8 8.5 2.4s7-3.5 6.2-7.8c-.8-4.3-7.3-21-9.7-12.3" class="st4"/><path d="m412.6 161.4-3.7-2.9c-.9-.1-1.4-.1-1.8.2-.4.3-.3.5-.2 1 2.3-.4 8 3.7 8.2 11.8 1.3.6 2 1 2.5.7s1.2-1.7 1.6-3.5c-1.9-2.7-4.1-5.2-6.6-7.3"/><path d="M403.8 186.5c-1-3.8-4.4-11.6-7.3-14.7-2.9-3.1-7.5-10.4-9-12.8s-5.4-5.4-6.3-2.7c-.2 1.3.1 2.7.9 3.8-2.1.8-1.7 3.3 0 4.8 4.1 3.5 11.8 6.7 14.4 11.8 2.6 5.1 4.4 12.5 7.2 14l.8.2c.5-.1.2-1.5-.7-4.4" class="st5"/><path d="M518.2 6.5c-1.3 3.6-1.4 7.4-.4 11.1.2.6.5 1.2 1.1 1.6.5.4 1.2.6 1.8.6h6.1c.7 0 1.4-.1 2-.4.6-.3 1.2-.7 1.6-1.2 3.7-3.9 10.4-4.9 15.6-2.7l3.1-4.5c.3-.4.5-1 .5-1.5 0-.6-.3-1.1-.7-1.5-3-2.9-6.7-5-10.6-6.4-4-1.3-8.1-1.8-12.3-1.3-1.7.2-3.4.9-4.8 2a9.07 9.07 0 0 0-3 4.2" class="st25"/><path d="M573.3 108.8c-.4 4.7.4 6.3 1.5 4.4.8-1.7 1.2-3.5 1.4-5.4z"/><path d="M561.3 78.1c-8.6 1.1-13.4 2.6-17.7 4.6m35.3 1.4 3.7 3.7M557 119.6s-4.5 3.3-7.4 5.7" class="st3"/><path d="m517.5 93.8-.8 11.8h-5.3c.3-3.9.9-7.7 1.8-11.5.2-.6.5-1.3.9-1.8h0c1.3-1.7 2.9-3.1 4.6-4.4l9.2-6.9c2.6-1.9 4.6-4.6 5.7-7.6 1.3-3.4 2.9-7.7 3.6-8.6" style="fill:none;stroke:#f551a0;stroke-width:2;stroke-linecap:round;stroke-linejoin:round"/><path d="M573.2 77.5c-4.2 10.6-8.8 28.6-5.3 37.2.4.8.8 1.6 1.3 2.3l2-.2c-.8-.8-1.4-1.7-1.8-2.7-3.2-7.7.8-24.3 5-35.3zm-92.6 23.9c.4.5.9.9 1.4 1.2 1-11.7 5.8-21.6 13.2-27.4l-2-.3c-6.9 5.9-11.5 15.4-12.6 26.5" style="fill:#f551a0"/><path d="m560.9 118.9-11.1 1.3" class="st3"/><path d="M546 161.3c-4 2.7-12.5 6.8-17.9 8-1.3.3-2.7.4-4.1.4-2.2.1-4.3-.4-6.3-1.3s-3.6-2.3-4.9-4.1l-5.2-7.3c-4.5-6.4-10.2-14.3-14.3-20-.1-.2-.1-.3-.2-.4-6.2-8.7-9.5-12.5-14.1-13.2-4.6-.7-17.9-1.9-41.2-3.7-5.8-.4-6.7-.3-7.8 2.3 0 .1-.1.2-.2.3-.1.1-.2.1-.3.2-.1 0-.2.1-.3 0-.1 0-.2 0-.3-.1-.2-.1-.3-.2-.4-.4-.1-.2-.1-.4-.1-.6 1.6-3.9 4-3.7 9.4-3.3 13.6 1.1 36.9 2.9 41.4 3.7 4.5.8 9.4 5.9 15.1 13.9 0 .1.1.2.2.3 4.1 5.7 9.7 13.7 14.3 20l5.2 7.4c2.8 3.9 7.9 5.5 13.6 4.3s15-6 18.1-8.2c.2.6.3 1.2.3 1.8" class="st10"/><path d="M422.4 113.9c-2.9 2.7-1.4 8 .6 15.3 2 7.3 4.5 13.9 5.8 13.7 1.3-.2 2-2.8 2.3-6.6.3-3.8.2-10.6-1.3-15.7s-5.2-8.8-7.4-6.7"/><path d="m431.3 133.1-7.4-.9c-3.6-.5-7.2-.8-10.8-1-.7 4.3-2.2 9.8-4.3 12s-5.8 2.1-6.2-2.9c-.4-5-.1-12.1-3.4-26.9-1.2-5.5-3.4-8.8-4.2-13-.8-4.2 1.6-4.9 3.8-4.5-.5-2.8-.3-6.4 3.2-6.9s4.9 2.5 4.9 6.4c.5-.7 1.3-1.2 2.1-1.5.9-.2 1.8-.2 2.6.2 2.4.9 2.9 3.9 2.6 8.7-.3 4.8-.4 9.9 1.6 11.6 2 1.7 2.5 1.1 5.3 1.5l6.8.6c.8 1.3 1.5 2.7 1.9 4.1 1 4.1 1.5 8.3 1.5 12.5" class="st6"/><path d="M431.3 133.1c0-4.2-.5-8.4-1.5-12.5-.4-1.4-1.1-2.8-1.9-4.1h-.9c2.5 3.2 4 11.6 0 16.1.6.5 1.2.8 1.9 1.1.8.1 1.7-.1 2.4-.6"/><path d="M411.7 100c.4-4.7-2.9-6.7-4.8-4.6 0-3.9-1.3-6.9-4.9-6.4s-3.7 4.1-3.2 6.9c-2.2-.4-4.6.4-3.8 4.5.8 4.1 3 7.5 4.2 13 3.3 14.8 2.9 21 3.4 26.9 0 1.2.4 2.3 1.1 3.3 2.3 2.4 3.3-.5 3.2-4.9-.1-6.9.3-13.8 1.2-20.6 1-8 3.3-13.4 3.6-18.1" class="st5"/><path d="M402.4 89c3.1-.1 3.2 3.8 3.1 8.1l1.4-1.7c0-3.7-1.2-6.7-4.5-6.4" class="st6"/><path d="M482.7 138.2c-1.6 3.9-3.4 7.6-5.6 11.2 4.6-2 6.5-3 6.5-3m28.8-6.2L523 151c8.6 1.1 10.6 2.9 12.9 5.8M523 151l9.7.3" class="st3"/><path d="M496.6 252.1c-1.3 3.3-3.5 5.5-4.9 5-1.4-.5-1.4-2.1 0-5.2.6-1.3 1.1-2.6 1.5-3.9.8-2.9 2.3-3.4 3.4-2.9s1.4 3.6 0 7"/><path d="M418 207.6c-.1 1.7-.3 3.6-.5 5.6l22.4 2.5-23.6 7.4c-.5 3.4-1 6.5-1.5 9.4l15.6 1.6c-5.3 1.9-11.1 3.9-17.3 6.3-.8 3.5-1.6 6.5-2.4 9l7.3.2-8.2 2.3c-.6 2-1.3 3.9-2.2 5.8-.1.3-.2.5-.2.8 8.9-2.8 17.9-5.1 26.6-7 8.9 1.6 17.6 3.8 26.2 6.7 2.2-.9 4.1-2.3 5.7-4-3.4-1.2-8.4-2.8-14.5-4.5l-3.5-.9c8.3-1.4 16-2.6 23-3.5 1.1-2.8 2.3-6.1 3.5-9.7-6.5-1.5-13.2-2.7-19.7-3.8 9.4-2.9 16.8-5 23-6.5 1-3.4 2-7 3-10.8l-13.5-1.4 14.9-4.6 1.6-6.3-30.5 9.3zm50.3 32.4c-10.2 1.4-22.1 3.2-34.5 5.9-4.7-.8-9.6-1.4-14.7-1.8 8.9-3.3 16.7-6.1 23.7-8.4 8.1 1.1 16.9 2.5 25.5 4.3m8.6-20.3c-8.5 2.1-19.5 5.2-34.6 10.3-8.1-1.1-15.4-1.9-21.3-2.5l32.8-10.3zm-58.5-20c-.1 1.9-.1 4-.3 6.4 25.6-.8 54.9-3.9 65.9-5.2.6-2.6 1.2-4.8 1.8-6.7-7.9 1-39.8 4.7-67.4 5.5" class="st31"/><path d="m461.7 252.8 4.2 1.4c-1.6 1.7-3.5 3.1-5.7 4l-4-1.3c2.1-1 4-2.4 5.5-4.1m9.4-17.9 3.3.7c-1.2 3.6-2.4 6.9-3.5 9.7l-4.4.6c1.9-3.5 3.4-7.2 4.6-11m5.7-20.8 3.9.4c-1 3.8-2 7.4-3 10.8l-4 1c.6-2 1.1-4.1 1.6-6.2.1-.2.1-.4.2-.6.4-1.8.9-3.6 1.3-5.4m2.6-10.6 4.3-1.3-1.6 6.3-4.3 1.3c.5-2.1 1.1-4.2 1.6-6.3m6.4-9.3c-.6 1.9-1.2 4.1-1.8 6.7l-4.1.4 1.8-6.6zm-76 57.7 5-1.4c-.7 2.2-1.4 4.3-2.2 6.4l-5.2 1.6c0-.3.1-.5.2-.8.9-1.9 1.6-3.8 2.2-5.8m3.3-11.5 4.5-1.7c-.7 3.8-1.5 7.3-2.5 10.8h-4.4c.8-2.5 1.6-5.6 2.4-9.1m3.2-17.3 3.7-1.2c-.4 3.9-.9 7.5-1.4 11l-3.8-.4c.5-2.9 1-6 1.5-9.4m1.7-15.5 3.4.4-.6 5.5-3.3-.3c.2-2 .4-3.9.5-5.6m4.2-8-.6 6.4h-3.5c.2-2.4.2-4.5.3-6.4z"/><path d="m519.6 225 .2 8.5c0 .4.1.9.4 1.2.2.4.5.7.9.9.4.2.8.3 1.3.3.4 0 .9-.1 1.2-.4.5-.3.8-.7 1-1.2.2-.5.2-1.1.1-1.6l-2.9-10z" class="st4"/><path d="M505 199.4c8 2.5 9.6 11 11.3 25.4 0 .4.2.7.4 1 .2.3.5.5.8.7.3.1.7.2 1 .2.4 0 .7-.2 1-.4l2.8-2.1c.7-.5 1.3-1.2 1.7-2.1.4-.8.5-1.7.3-2.6-.3-1.8-.8-4.6-1.3-8.4-1.2-7.4-6.1-16.4-15.5-17.5-.5-.1-1 .1-1.5.3-.4.3-.8.6-1 1.1-.5 1.1-.7 2.4-.7 3.6 0 .2.1.4.2.6.1 0 .3.1.5.2" class="st31"/><path d="M508.2 23.6S510 43.1 490 39.4c-.1 0-4.1-19.5 18.2-15.8" class="st25"/><path d="M548.3 25.2c.3 0 .5.1.8.2.2.1.5.3.6.5.2.2.3.4.4.7.1.3.1.5.1.8L549 40.8c-.4 3-1.8 5.8-4 7.9-2.2 2.1-5.1 3.3-8.2 3.4h-2.7c-3.2 0-6.3-1.1-8.7-3.2s-4-5-4.4-8.1l-.5-4.5c-.1-.5-.3-1-.7-1.4-.4-.3-.9-.5-1.5-.5s-1.1.2-1.5.6c-.4.4-.7.9-.7 1.4l-.6 7.2c-.2 2.4-1.3 4.6-3.1 6.2-1.8 1.6-4 2.5-6.4 2.6-1.4.1-2.9-.2-4.2-.8-1.3-.6-2.5-1.4-3.5-2.4-1-1.1-1.7-2.3-2.1-3.7-.4-1.4-.6-2.8-.4-4.2l1.2-13.6c.1-.5.3-1 .7-1.4.4-.4.9-.6 1.5-.6z"/><path d="m496 39.3 19-13.8-7.1.1-11.4 8.3zm4.6 11.7c1.6 1 3.5 1.4 5.4 1.4 2.4 0 4.7-1 6.4-2.6 1.8-1.6 2.8-3.8 3.1-6.2l.3-3.6zm47.7-25.8h-7.9l-19.5 14.1v1.5c.2 1.5.7 3 1.5 4.4l27.1-19.5c-.3-.3-.8-.5-1.2-.5m.7 15.6.6-6.5-22.2 16.1c2 1.1 4.4 1.7 6.7 1.7h2.7c3-.1 5.9-1.3 8.2-3.4 2.2-2.1 3.6-4.9 4-7.9" class="st10"/><path d="M516.8 47.7s-2.7 5.6 2.5 5.7c5.8.1 2.6-5.7 2.6-5.7" style="fill:none;stroke:#ff8c19;stroke-width:3;stroke-linecap:round;stroke-linejoin:round;stroke-miterlimit:10"/><path d="M600.3 266.4s-16.9-9.3-23.2 9.5c0 0 8.5 9.8 18.4 1.5 10-8.3 4.8-11 4.8-11" class="st5"/><path d="m646.2 264.1.7 1.1m-10.6-8.4c2.6.8 5 2.1 7 3.9" style="fill:none;stroke-width:3;stroke:#ffa8d2;stroke-linecap:round;stroke-linejoin:round"/><path d="M600.2 270.1c1.2 1.2 2.8 2.2 4.5 1.8 1.8-.4 2.8-2.3 4.5-3 1.6-.7 3.5-.2 5.3 0s3.9-.1 4.7-1.7c.5-1 .3-2.3-.1-3.4-.2-.6-.4-1.3-.9-1.7-.4-.3-.9-.4-1.3-.5-3.3-.8-6.7-1.5-10-1.3-5.3.4-11.9 4.4-6.7 9.8m47.5.4c-1.8-.1-3.8 0-5.1 1.2-1.7 1.4-2 3.8-2.2 6-.2 1.8-.3 3.7.2 5.5.6 1.8 2 3.3 3.9 3.4.5 0 1-.1 1.5 0 1.1.2 1.9 1.2 2.7 1.8s2.3 1 3 .1c.1-.2.2-.5.3-.7 1-3.7 1.7-7.6 1.8-11.5.1-1.4.1-3.9-1.1-4.9-1.2-1-3.7-.9-5-.9" class="st24"/><path d="m650.5 276 3-2m-3.2 3.7 3.1-.5" class="st3"/><path d="M648.7 281.4c3.3-3.8 2.8-6.1 1.7-6.8-1.1-.7-2.8.6-5.8 5.4s-.5 6.6 4.1 1.4" class="st4"/><path d="M650.2 277.2c.2-.9.1-1.8-.2-2.7-.9-.1-2.3.9-4.2 3.6.2 1.4.9 2.4 1.7 2.5s2.5-1.3 2.7-3.4"/><circle cx="625.1" cy="280.6" r="11.7" class="st34"/><ellipse cx="648.7" cy="277.5" class="st34" rx="10.1" ry="11.7"/></g><g id="Layer_2"><path d="M273.2 51.4s21.5-11.5 24.7 13.8c0 0-22.7 8.2-24.7-12.9.1-.3.1-.6 0-.9" class="st18"/><path d="M298 65.2s-1.8-5.5-8.9-6c-7.2-.5-15.8-6.9-15.8-6.9s2 20.2 24.7 12.9" class="st35"/><path d="M279.8 64.6c-3.4-2.1-6-6-6.5-12.8 1.7 2 3.1 4.3 4.3 6.7.9 2 1.6 4 2.2 6.1" class="st18"/><path d="M253.4 40.8s-1.5 16.4 12.2 19.1C279.2 62.6 279 62 279 62s-5.1-18.5-25.6-21.2" style="fill:#f299ca"/><path d="M577.6 37s-17 9.6-21.8-10.2c0 0 16.1-11.7 21.8 10.2" class="st25"/><path d="M229.9 76c-1.1 5.8-.8 11.8 4.3 15 3.7 2.3 12.8 2.9 17.8 2.7 1.6-.1 12.9 0 16.4-2.5 6-4.3 5.4-12.1 4.3-16.7-2.2-9.9-10.2-18.1-22.1-17.6-11.7.4-18.7 9.1-20.7 19.1" class="st2"/><path d="M258 85.4c-1.1.7-2.5.3-2.9.2-1.3-.4-1.4-1.1-2.3-1.1-1 0-1 .8-2.3 1.1-.4.1-1.8.5-2.9-.2-1.4-.9-1.6-3.1-1.1-4.5.7-2.5 3.7-4.1 6.2-4.1h.2c2.6 0 5.5 1.5 6.2 4.1.5 1.4.3 3.6-1.1 4.5" style="fill:#fff5dc"/><circle cx="242.5" cy="79.6" r="1" class="st19"/><circle cx="263.3" cy="79.6" r="1" class="st19"/><circle cx="266" cy="56.8" r="1" class="st19"/><circle cx="237.8" cy="56.5" r="1" class="st19"/><ellipse cx="252.9" cy="77.4" class="st19" rx="1.9" ry=".7"/><path d="m240.3 83.4-6.8-.9m6.7 3.6-6.7 1m39-4.1-6.6 1.3m6.6 4-6.6-1.7" style="fill:none;stroke:#000;stroke-linecap:round;stroke-miterlimit:10"/><ellipse cx="250.9" cy="60.3" class="st35" rx="10.4" ry="5.4"/><path d="M229.3 48.9s-1.4-10.8 2.2-9.1c3.6 1.7 5.4 5.3 5.4 5.3.2-.2-.7 5.3-7.6 3.8m41.4.1s1.6-10.8-2-9.1-5.5 5.2-5.5 5.2c-.2-.3.6 5.3 7.5 3.9" style="fill:#ffd766"/><path d="M228.8 49.1s-21.5-11.5-24.7 13.8c0 0 22.7 8.2 24.7-12.9-.1-.3-.1-.6 0-.9" class="st18"/><ellipse cx="248.2" cy="56.9" rx=".8" ry=".4"/><ellipse cx="253.5" cy="56.9" rx=".8" ry=".4"/><path d="M204 62.9s1.8-5.5 8.9-6c7.2-.5 15.8-6.9 15.8-6.9s-1.9 20.2-24.7 12.9" class="st35"/><path d="M221.5 62.4c1.2 0 2.4-.6 3.2-1.5s1.5-1.9 2-3c.4-1 .8-2 .8-3.1m52.8 8.5c-1.5-1.2-2.7-2.9-3.3-4.7" class="st19"/></g></svg>