<svg xmlns="http://www.w3.org/2000/svg" xml:space="preserve" id="Layer_1" x="0" y="0" style="enable-background:new 0 0 615 360" version="1.1" viewBox="0 0 615 360"><style>.st1{fill:#b59627}.st3{fill:#b19228}.st9{fill:#ebcd0a}.st11{fill:#fbe00f}.st12{fill:#ceb019}.st14{fill:#bb9c23}.st17{fill:#c8aa1c}.st21{fill:#fad913}.st23{fill:#d4b616}.st29{fill:#fee100}.st31{fill:#fef502}.st32{fill:#c2a320}.st40{fill:#e4c60e}.st45{fill:#f8cb1c}.st46{fill:#f5b42b}.st47{fill:#dca227}.st48{fill:#a18231}.st49{fill:#f8cd1b}.st50{fill:#a28231}.st60{fill:#bfa021}.st74{fill:#a98a2c}.st76{fill:#317f3c}.st79{fill:#bd9e22}.st88{fill:#fadb12}.st91{fill:#dabc13}.st92{fill:#dbbd12}.st94{fill:#e9cb0b}.st96{fill:#efd108}.st101{fill:#f3cb0c}.st107{fill:#ae8f2a}.st108{fill:#d0b118}.st112{fill:#d6b715}.st113{fill:#e1c30f}.st115{fill:#a8892d}.st120{fill:#f7c421}.st125{fill:#f9d218}.st127{fill:#e0c210}.st132{fill:#f2c90e}.st133{fill:#e9b918}.st136{fill:#f0d307}.st141{fill:#e6b31c}.st155{fill:#eec212}.st160{fill:#f6d904}.st161{fill:#eacd0a}.st163{fill:#e2c40f}.st166{fill:#e5c70d}.st187{fill:#ebbd16}.st196{fill:#29cc7a}.st197{fill:#3442d9}.st198{fill:#ff78b9}.st199{fill:#ffe75c}.st201{fill:#5865f2}.st203{fill:#3543de}.st204{fill:#fff4b3}.st205{fill:#8cd9ff}.st206{fill:#bae8ff}.st207{fill:#eb459f}.st210,.st211{fill:none;stroke:#000;stroke-width:2;stroke-linecap:round}.st210{stroke-linejoin:round}.st211{stroke-miterlimit:10}.st212{fill:#fff}.st214{fill:#d11583}.st216{fill:#2a39d4}.st217{fill:#2331b5}.st218{fill:#ffaed9}.st219{fill:none;stroke:#3442d9;stroke-width:2;stroke-miterlimit:10}.st220{fill:#45aaf7}.st223{fill:#66bcff}.st227{fill:#adb4ff}.st231{fill:none;stroke-width:2;stroke:#ffc619;stroke-linecap:round;stroke-linejoin:round}.st236{fill-rule:evenodd;clip-rule:evenodd;fill:#f0e0c9}.st239{fill:#58595b}.st251{fill-rule:evenodd;clip-rule:evenodd;fill:#0f0f0f;stroke:#0f0f0f;stroke-width:.5}</style><path d="M37.9 118c.4.1.9.2 1.3.3-.2.1-.3.2.3-.2 1.5 3.1 3.3 6 4.3 9.2.6 1.8-.1 4-.2 6-.3.4-.5.9-.8 1.3-.3.3-.6.7-.9 1-.2-.3-.4-.7-.5-1v-.2c.3-2.9 1.5-6 .8-8.6-.8-2.9-3.2-5.3-4.8-7.7-.3.1 0 0 .3-.2.1.1.2.1.2.1" style="fill:#ab8b2c"/><path d="M33.3 118.1v-.1h1.6c.1.2.1.6.2.7 4.1 2.4 6.8 5.8 6.7 10.7 0 1.4-1.2 2.9-1.8 4.3l-.1-.1c2.7-5.6.6-10.2-7-15 .2-.2.3-.4.4-.5" class="st1"/><path d="M37.8 118c-.3.1-.6.3-.3.2 1.6 2.5 4.1 4.9 4.8 7.7.7 2.6-.5 5.7-.8 8.6 0-.2-.1-.4 0-.6.2-2.5 1.3-5.5.4-7.5-1.5-3.2-4.3-5.7-6.6-8.4z" style="fill:#b0912a"/><path d="M35.2 118c2.3 2.8 5.1 5.3 6.6 8.4.9 2-.2 5-.4 7.5v.8c-.1.1-.3.2-.4.3-.1-.2-.1-.4-.3-.9v2.5c-.2-1-.5-1.9-.7-2.9.6-1.4 1.8-2.9 1.8-4.3.1-4.9-2.5-8.3-6.7-10.7-.2-.1-.2-.5-.2-.7z" class="st3"/><path d="M31.8 220.6c-1.1-.1-2.2-.3-3.3-.4h.7l-.3-.3c.6-.3 1.2-.6 1.9-1h1.8c.1 0 .2.1.4.1-.3.5-.7 1-1 1.6z" style="fill:#f8d01a"/><path d="M40.8 220.4c-.5.1-1 .2-1.4.3H39c-.2-.1-.3-.3-.5-.4.1-.1.2-.3.3-.4-.3-.2-.6-.4-.8-.6 0-.1 0-.2.1-.2h2.7c.2 0 .4 0 .9.1-.4.1-.5.1-.6.1-.5.2-.9.5-2.2 1.1zc-.1-.1-.1-.1 0 0" style="fill:#c7a821"/><path d="M38 220.6h-2.7c.2-.5.5-.9.7-1.4h1.1c0 .4 0 .7-.1 1 .4.2.7.3 1 .4" style="fill:#dec111"/><path d="M31.9 220.6c.3-.5.7-1 1-1.6.7 0 1.3.1 2 .1-.5.2-1.1.4-1.8.7.6.5.8.6 1 .7-.8.1-1.5.1-2.2.1" style="fill:#fde201"/><path d="M38 220.6c-.3-.1-.6-.3-.9-.4 0-.3 0-.6.1-1h.7c.3.2.6.4.8.6-.1.1-.2.3-.3.4.2.1.3.3.5.4z" style="fill:#d2b418"/><path d="M36 219.2c-.2.5-.5.9-.7 1.4h-.9c.1-.5.3-.9.4-1.4z" class="st9"/><path d="M34.9 219.2c-.1.5-.3.9-.4 1.4h-.4c-.2-.1-.4-.3-1-.7.7-.3 1.3-.5 1.8-.7" style="fill:#f5d705"/><path d="M25.4 201.3c.2-.8.4-1.6.6-2.3.1 0 .3.1.3 0 1.6-4.1 3.2-8.2 4.7-12.3.1-.1.2-.3.3-.4.1-.6.3-1.1.4-1.7 0-.1.1-.2.1-.3 1.1-2.8 2-5.8 3.4-8.5.8-1.5.2-4.7 3.6-3.9-.5 1.3-1 2.6-1.4 3.9-1.7 4.8-3.3 9.6-5 14.4-.2.4-.5.9-.7 1.3l-3.3 5.1c-.5.8-1 1.5-1.4 2.3-.5.7-1 1.5-1.6 2.4" class="st11"/><path d="M23.4 122.2c.9-.6 1.9-1.3 2.8-1.9-.1.1-.2.3-.2.3 1.5.2 3.1.2 4.6.6 5.3 1.6 6.5 4.4 5.5 12-.4.5-.8 1-1.1 1.6-.6.5-1.2 1-1.7 1.4h-.1c-.1-.5-.1-1-.2-1.6.3-.2.5-.4.8-.7 2.3-2.4 3-5.1 1.3-8-2-3.5-5.4-4.4-9.2-4.1-.8.2-1.7.3-2.5.4" class="st12"/><path d="M23.4 122.2c.8-.1 1.7-.2 2.5-.3 3.8-.4 7.1.6 9.2 4.1 1.7 2.9 1 5.6-1.3 8-.2.2-.5.5-.8.7-.1-.5-.2-1-.3-1.6.3-.2.9-.4.9-.6 0-2.3.9-5.3-.2-6.7-1.4-1.7-4.4-2-6.8-2.9-.4.2-.8.4-1.3.6-.9.3-1.7.6-2.6.8l-1.5-.3c.8-.5 1.5-1.1 2.2-1.8" style="fill:#d5b716"/><path d="M33.3 118.1c-.1.2-.3.3-.4.5 7.6 4.8 9.7 9.4 7 15-.3-.4-.7-.8-1-1.2v-.3c2.8-4.3-1.2-10.5-8.4-13.1.1-.1.2-.3.3-.4.8-.2 1.7-.3 2.5-.5" class="st14"/><path d="M22.3 169.2c-.3-2.1-.6-4.3-.9-6.4v-.3c.3.3.9.6 1 1 1.7 4.2 3.5 8.5 5 12.8.4 1.2-.1 2.8-.2 4.2-.6-1.2-1.1-2.5-1.7-3.7.3-.5.8-1 .8-1.4-.5-2.1-1.2-4.3-1.9-6.4-.3-.9-1.1-1.6-1.7-2.3-.1.8-.2 1.6-.4 2.5" style="fill:#fce909"/><path d="M30.8 118.6c-.1.1-.2.3-.3.4 7.3 2.6 11.3 8.9 8.4 13.1h-1c1.6-7.9-3-11-9.7-12.4.4-.2.8-.4 1.2-.7.4-.1.9-.3 1.4-.4" style="fill:#c2a41f"/><path d="M29.3 119c-.4.2-.8.4-1.2.7 6.7 1.4 11.3 4.5 9.7 12.4-.6.4-1.1.8-1.7 1.1 1-7.6-.3-10.4-5.5-12-1.5-.4-3.1-.4-4.6-.6 0 0 .1-.1.2-.3 1-.4 2.1-.9 3.1-1.3" class="st17"/><path d="m27.5 184.7.3-2.1c.2.3.4.6.7.8.2-.4.7-.9.6-1.2-1.2-5-2.2-10-3.8-14.9-.9-2.9-2.7-5.5-4-8.3.3.3.8.5.9.8 2.6 7.4 5.3 14.9 7.7 22.4.3.9-.4 2.2-.6 3.3-.5-.2-1.1-.5-1.6-.7 0 0 0 .1-.1.4-.1-.2-.1-.4-.1-.5" style="fill:#fbde10"/><path d="M21.2 159c1.4 2.8 3.1 5.4 4 8.3 1.5 4.9 2.6 9.9 3.8 14.9.1.3-.4.8-.6 1.2-.2-.3-.4-.6-.7-.8-.1-.7-.3-1.4-.4-2.1.1-1.4.6-3 .2-4.2-1.5-4.3-3.3-8.6-5-12.8-.2-.4-.7-.7-1-1v.3c-.1-1.1-.3-2.2-.4-3.3 0-.2.1-.3.1-.5" style="fill:#fbe20e"/><path d="M22.3 169.2c.2-.8.3-1.7.5-2.6.6.8 1.4 1.5 1.7 2.3.8 2.1 1.4 4.2 1.9 6.4.1.4-.5.9-.8 1.4-1-2.5-2.2-5-3.3-7.5" style="fill:#fdf104"/><path d="M21.2 159c-.1.2-.1.3-.2.5-.1-1.1-.3-2.1-.4-3.2v-.2c.5.5 1 1.2 1.6 1.8.1.2.3.4.4.6l.3.6c.1.2.2.5.3.7.2.5.4.9.6 1.4.5 1.2 1 2.5 1.6 3.7 1.5 5.2 3.3 10.4 4.6 15.7.5 1.9 0 4.1-.1 6.1-.8-.3-1.6-.7-2.3-.9 0 .1-.2.4-.3.6.1-.6.2-1.2.3-1.7v.6c.1-.3.1-.5.1-.4.5.2 1.1.5 1.6.7.2-1.1.9-2.4.6-3.3-2.5-7.5-5.1-14.9-7.7-22.4-.2-.4-.7-.6-1-.9" class="st21"/><path d="m17.9 217.7 1.2-4.2c.8.1 1.7.2 2.5.2h.1c.1 1.4.1 2.8.2 4.1.2.1.5.2.8.3-1.2-.1-2.5-.2-3.7-.3-.3.1-.7 0-1.1-.1" style="fill:#059e37"/><path d="M17.6 130.2c.6-1.2 1.2-2.4 1.8-3.7.3.6.6 1.1.8 1.7.1 1.2-.2 2.5.3 3.4.7 1.1 2.1 1.9 3.2 2.7.7.5 1.5.9 2.4 1.5.1-.4 0-.1 0 .1-.1.2-.3.4-.4.6-4.1-1.1-7.2-3.2-7.2-8.2-.3.8-.6 1.3-.9 1.9" class="st23"/><path d="M27.2 186.4c.1-.3.3-.5.3-.6.7.3 1.5.6 2.3.9.1-2 .6-4.2.1-6.1-1.3-5.3-3-10.5-4.6-15.7.6 1.2 1.2 2.4 1.9 3.6.4 1.5.9 3 1.3 4.6 1 4.4 1.9 8.8 2.9 13.3-.1.1-.2.3-.3.4-.5.7-1 1.3-1.6 2-.7-.6-1.4-1.3-2.1-1.9 0 .1-.1.2-.1.5 0-.2 0-.3-.1-.4z" class="st21"/><path d="M20.1 151.8c-2.9-3.8-4.7-8-3.7-13 0 .5.1 1 .1 1.6v2.7c.5 1 .9 2.2 1.5 3.1 1.5 2.1 3.1 4.2 4.6 6.3-.4-.1-.8-.2-1.3-.3-.4-.2-.8-.3-1.2-.4" style="fill:#f5cf0b"/><path d="M21.7 213.7c-.8-.1-1.7-.2-2.5-.2.8-1.7 1.6-3.5 2.4-5.2 1.2.1 2.5.3 3.7.4-1.4 1.5-2.8 2.9-4.5 4.7 1 .1 1.3.1 1.8.2-.5 0-.7.1-.9.1" style="fill:#fef403"/><path d="M25.2 208.7c-1.2-.1-2.5-.3-3.7-.4.7-1.3 1.4-2.5 2-3.8.8.1 1.5.2 2.3.3.3 0 .6.1.8.1-.4.1-.8.1-1.3.2.2 1.2.4 2.5.5 3.6h.1z" style="fill:#089c37"/><path d="M29.5 188.7c.5-.7 1-1.3 1.6-2-1.6 4.1-3.2 8.2-4.7 12.3h-.3c.1-1.6.2-3.2.4-4.8.1.1.1.3.2.4.9-1.9 1.9-3.8 2.8-5.7-.1-.1-.1-.2 0-.2" style="fill:#f0c510"/><path d="M17.6 130.2c.3-.6.6-1.1 1-1.8 0 5 3.1 7.1 7.2 8.2-.1.2-.2.5-.3.7-.3 0-.7.1-.9-.1-2.4-2.1-4.8-4.2-7.2-6.4.1-.2.1-.4.2-.6" style="fill:#ceaf1a"/><path d="M19.1 217.9c1.2.1 2.5.2 3.7.3 1.2.1 2.4.2 3.7.3.3 0 .5.1.8.1-.4.4-.9.8-1.3 1.3-2.4-.3-4.9-.6-7.3-.9-.2-.1-.4-.2-.6-.4.3-.2.6-.4 1-.7" class="st29"/><path d="M17.4 130.8c2.4 2.1 4.8 4.3 7.2 6.4.2.2.6.1.9.1 0 .3-.1.6-.2.8l-.6.3c-2.6-2-5.1-4.1-7.7-6.1.2-.6.3-1 .4-1.5" class="st17"/><path d="M16.7 136c0-.3.1-.6.1-.9.6.5 1.1 1.1 1.8 1.5 1.7.8 3.4 1.5 5.1 2.3v2.3h-.1c-.2-.3-.4-.7-.7-.9-1.8-.9-3.6-1.7-5.3-2.5 0-.2 0-.1 0 0-.3-.7-.6-1.3-.9-1.8" class="st14"/><path d="M20.1 151.8c.4.1.9.3 1.3.4 1.4 1.3 2.8 2.6 4.2 3.8 3.5 3.1 7.1 6.2 10.7 9.3l.3.3c0 .3.1.6.1.9l-.1.1c-.1-.2-.1-.4-.3-.5l-14.4-12.9c-.4-.4-1-.6-1.6-.9-.1-.1-.1-.3-.2-.4-.1-.1-.1-.1 0-.1" style="fill:#c9ab1c"/><path d="M25.8 204.8c-.8-.1-1.5-.2-2.3-.3.6-1 1.2-2.1 1.8-3.1l2.1-.6c-.6 1.2-1.2 2.4-1.8 3.7.3 0 .4.1.8.1-.3.1-.4.1-.6.2" class="st31"/><path d="M23.8 138.8c-1.7-.7-3.5-1.4-5.1-2.3-.7-.3-1.2-1-1.8-1.5v-1.4c.2.1.4.3.7.4 2.3 1.5 4.7 2.9 7 4.4-.3.2-.6.3-.8.4" class="st32"/><path d="M29.3 188.8c-.9 1.9-1.8 3.8-2.8 5.7-.1-.1-.1-.3-.2-.4.1-1.4.2-2.9.4-4.3.9-.3 1.8-.6 2.6-1" style="fill:#f4cd0d"/><path d="M20.2 128.2c-.3-.6-.6-1.1-.8-1.7.6-.8 1.2-1.6 1.9-2.4l1.5.3c-.4.6-.8 1.2-1.1 1.8-.4.7-.9 1.3-1.3 2z" style="fill:#fbe30e"/><path d="M24.5 138.5c-2.3-1.5-4.7-2.9-7-4.4-.2-.1-.4-.3-.7-.4.1-.5.2-1 .3-1.4 2.6 2 5.1 4.1 7.7 6.1-.1 0-.2.1-.3.1" style="fill:#c4a520"/><path d="M29.3 188.8c-.9.3-1.7.7-2.6 1 .1-1 .3-2 .4-3 0 .1 0 .2.1.4.1-.3.1-.4.1-.5.7.6 1.4 1.3 2.1 1.9 0 .1 0 .2-.1.2" style="fill:#f9d119"/><path d="M25.9 219.9c.4-.4.9-.8 1.3-1.3h.3c.7 0 1.3.1 2 .1.4.1.9.1 1.3.2-.6.3-1.2.6-1.9 1l.3.3h-.7c-.9-.1-1.7-.2-2.6-.3" style="fill:#f9d816"/><path d="M20.1 151.9c.1.1.1.3.2.4 0 .1.1.3.1.4.1.3.3.7.4 1 .1.3.3.7.4 1 0 .2.1.5.2.7.1.1.2.3.3.4.1.2.2.5.3.7.1.2.2.5.3.7v.6c-.6-.6-1.1-1.3-1.6-1.8v.2c-.3-1.3-.5-2.8-.6-4.3" style="fill:#f9d419"/><path d="M16.5 140.4c0-.5-.1-1-.1-1.6.1-.6.1-1.2.2-1.9l.3-.3c.4 1.5.7 2.9 1.1 4.4z" style="fill:#efc412"/><path d="m27.5 200.8-2.1.6v-.1c.5-.8 1.1-1.6 1.6-2.4.4.3.9.7 1.3 1-.1.2-.3.4-.4.6l-.3.3c0-.1-.1 0-.1 0" class="st40"/><path d="M17.9 141.1c-.4-1.5-.7-2.9-1.1-4.4l-.3.3c0-.3.1-.7.1-1 .3.6.6 1.1 1 1.7 0 .5.1 1 .1 1.4.2.6.4 1.1.6 1.7v.4c-.1 0-.2-.1-.3-.1z" style="fill:#f9d616"/><path d="M19.1 217.9c-.4.2-.7.5-1.1.8.2.1.4.3.6.4-.3-.4-.5-.9-.8-1.3.5 0 .9.1 1.3.1" style="fill:#faf10a"/><path d="M52.3 213.5c.5 1.3.9 2.6 1.4 3.8-3.2.4-6.5.9-9.7 1.3h-.8c-.4-.1-.9-.1-1.6-.3.3-1.4.6-2.8.9-4h-.2c.2 0 .5-.1.8-.1.6 0 1.2-.1 1.9-.1.9-.1 1.7-.1 2.6-.2 1.5-.1 3.1-.3 4.7-.4" style="fill:#42743f"/><path d="M49.5 123.8c1 1.3 1.9 2.6 2.9 3.9-.3-.4-.6-.8-1.1-1.3 0 2.7.1 5.3 0 7.9-.1 1.6-.5 3.1-.8 4.7l-.6.3c.3.2.5.4.7.5-.4.2-.9.4-1.3.6-.2-.1-.4-.3-.7-.4.2-.2.3-.3 1.1-.9-1 .5-1.5.5-1.6.8-.2.3 0 .8 0 1.2h.3c0-.2 0-.5.1-.8.3.4.5.6.6.9v.7c-.3.2-.7.4-1.1.6-.3-.1-.7-.3-1-.4-.4-.3-.8-.7-1.3-1 .3-.2.6-.3.9-.5.7-.9 1.3-1.8 2-2.7v-.1h-.1c-.1-.3-.2-.7-.2-1 .3-.3.7-.6 1-.9.1-2.6.3-5.2.4-7.8-.2-1.1-.3-2.2-.6-3.8l.2-.2c0-.3.1-.3.2-.3" style="fill:#f6b928"/><path d="M43.9 181.3c-.1.2-.2.5-.3.7-.1-.2-.2-.3-.4-.8-1 3.2-1.9 6.2-2.8 9.1l-.6.6c-.7.6-1.3 1.1-2 1.7-.4.3-.8.6-1.1.9.5-1.6.9-3.1 1.4-4.7v-.3c.5-.5.9-1 1.4-1.6.2-.7.4-1.3.6-2 1.1-3.3 2.1-6.6 3.4-10.4.2.8.3 1.1.4 1.4-.1 1.8-.1 3.6 0 5.4" class="st45"/><path d="M50.5 138.9c.3-1.6.7-3.1.8-4.7.1-2.6 0-5.2 0-7.9.4.5.8.9 1.1 1.3.5 3.8 1.1 7.5 1.6 11.3-.3-.3-.6-.6-1-.8-.2.2-.3.5-.5.7-.6 0-1.3.1-2 .1" class="st46"/><path d="M52.6 138.8c.2-.2.3-.5.5-.7.3.3.6.6 1 .8-.8 4.6-1.7 9.1-2.5 13.7 0-.1 0-.3-.1-.5-.1.3-.2.6-.3 1-.3-1.8-.6-3.4-.9-5 .3-1.3.7-2.6 1-3.9 0-1.3.1-2.7.1-4 .1-.2.2-.4.4-.7.2.3.3.5.5 1 .1-.6.2-1.1.3-1.7" class="st47"/><path d="M52.3 213.5c-1.6.1-3.2.3-4.8.4-.5-.2-.9-.3-1.4-.5.8-1.6 1.6-3.1 2.3-4.6h-.1c.6-.1 1.2-.2 1.7-.3.8 1.7 1.5 3.3 2.3 5" class="st48"/><path d="M43.8 196.5c.7 1.3 1.4 2.5 2 3.8-1 1.5-1.9 3-2.9 4.5.2.2.4.3.5.5-.9 0-1.7.1-2.6.1h-1.5c.5-.7.9-1.3 1.4-2l3-6.6c0-.1 0-.2.1-.3" class="st49"/><path d="M40 118.4c1.5.6 3 1.2 4.5 1.9.8.7 1.7 1.4 3.2 2.7-1.6-.9-2.5-1.4-2.7-1.6.5 1.8 1.1 3.9 1.7 6-.6-.1-1.1-.2-1.7-.3-1.6-2.9-3.3-5.8-5-8.7" class="st50"/><path d="M40 118.4c1.7 2.9 3.3 5.8 5 8.7-.2.2-.4.3-.6.5.4 0 .7.1 1.1.1-.3 2.4-.5 4.7-.8 7.1-.4-.5-.7-.9-1.1-1.4.1-2 .8-4.2.2-6-1-3.2-2.8-6.1-4.3-9.2-.6.3-.5.2-.3.2.3-.1.6 0 .8 0" style="fill:#a4842f"/><path d="M44 218.6c3.2-.4 6.5-.9 9.7-1.3.1.5.2.9.4 1.6-3.7.4-7.4.9-11 1.3-.1-.1-.3-.4-.3-.4.4-.5.8-.9 1.2-1.2.2.1.1.1 0 0" class="st50"/><path d="M48.9 166.1c-.2.8-.3 1.7-.5 2.5-.4.9-.8 1.9-1.2 2.9-.4-1.3-.7-2.6-1.1-4.1-.3.4-.5.7-.7 1 .5-1.6 1.1-3.2 1.6-4.8l.1-.1c.2-.1.4-.3.6-.4.4 1 .8 2 1.2 2.8V164h.1c-.1.6-.1 1.3-.1 2.1" style="fill:#c4a51f"/><path d="M45.3 168.3c.2-.3.4-.5.7-1 .4 1.5.8 2.8 1.1 4.1.4-1 .8-1.9 1.2-2.9-.4 1.1-.8 2.3-1.1 3.4-.5 1.2-1.1 2.5-1.6 3.8-.3-1.2-.7-2.3-1-3.3-.3.7-.6 1.5-.8 1.9v-2.2c.6-1.1 1-2.5 1.5-3.8" style="fill:#caab1c"/><path d="M46.7 127.4c-.6-2.1-1.2-4.2-1.7-6 .2.1 1.1.6 2.7 1.6-1.5-1.3-2.4-2-3.2-2.7 1.6 1.2 3.3 2.4 4.9 3.5H49l-.4-.2c-.4 1.4-.7 3-1.1 4.5-.4-.2-.8-.4-.9-.5.2-.4.1-.3.1-.2" style="fill:#f7c023"/><path d="M40.3 190.3c.9-2.9 1.8-5.9 2.8-9.1.3.5.4.7.4.8 0 1.2-.1 2.5-.1 3.7v-3.1 4.7c-.6.6-1.2 1.2-1.8 1.9-.4.4-.8.7-1.3 1.1" style="fill:#f7c61f"/><path d="M41.6 189.3c.6-.6 1.2-1.2 1.8-1.9 0 1.6-.1 3.2-.1 4.9-.1-.8-.1-1.7-.2-2.4-1.2 2.2-2.4 4.4-3.6 6.7l-.3.3c-.3.1-.7.2-1 .3h-.1l.6-1.2c.9-2.3 1.9-4.5 2.9-6.7" style="fill:#c7a81d"/><path d="M50 208.5c-.6.1-1.2.2-1.7.3h-.8c-.4-.1-.7-.1-.8-.2-.1-1.4-.3-2.6-.4-3.8.2 0 .3-.1.5-.1.4-.1.8-.2 1.3-.3.6 1.4 1.2 2.8 1.9 4.1" style="fill:#41743f"/><path d="M43.9 173.9v.6c.2-.4.5-1.2.8-1.9.3 1.1.6 2.2 1 3.3.6-1.3 1.1-2.6 1.6-3.8-1.1 3.1-2.3 6.2-3.4 9.3 0-1.8-.1-3.6-.1-5.4 0-.8 0-1.5.1-2.1" style="fill:#ceb01a"/><path d="M43.3 195.4c.1.3.3.6.4.8-.2-.1-.3-.3-.7-.6-1.3 3.3-2.6 6.5-3.9 9.7h-.4c-.1-.2-.4-.4-.3-.5 1.4-3.1 2.8-6.1 4.2-9.2.1 0 .4-.1.7-.2" style="fill:#caab1b"/><path d="M39.5 196.6c1.2-2.3 2.5-4.5 3.6-6.7.1.7.1 1.6.2 2.4v.3c-.8 1.1-1.5 2.3-2.3 3.4v.1c-.2.1-.5.2-.7.3-.3 0-.5.1-.8.2" class="st60"/><path d="M39 205.4c1.3-3.2 2.6-6.4 3.9-9.7.3.3.5.5.7.6 0 .1.1.1.1.2v.3c-.1-.1-.1-.2-.2-.3-.9 2.3-1.9 4.5-2.8 6.8-.5.7-.9 1.3-1.4 2-.1.1-.2.1-.3.1" style="fill:#c4a51e"/><path d="M50.2 148.2c.3 1.6.6 3.1.9 5 .2-.5.2-.7.3-1 0 .2 0 .4.1.5-.1.7-.3 1.3-.4 2-.2.4-.4.9-.6 1.3-.3-1.9-.7-3.7-1-5.6.2-.8.4-1.5.7-2.2" style="fill:#dfa823"/><path d="M50.5 155.9c.2-.4.4-.9.6-1.3-.7 3.8-1.4 7.6-2.2 11.4v-2.2h-.1v1.9c-.3-.8-.8-1.8-1.2-2.8.3-.7.7-1.3 1-2 .3-.8.7-1.6 1-2.4.3-.9.6-1.7.9-2.6" style="fill:#c1a124"/><path d="M43.5 205.2c-.2-.1-.3-.3-.5-.5 1-1.5 1.9-3 2.9-4.5.3.5.5 1.1.8 1.6-.2-.3-.4-.5-.7-.8-.6 1.3-1.2 2.5-1.8 3.7.2.1.5.1.7.2-.2.1-.4.1-.6.2-.3 0-.6.1-.8.1" style="fill:#e1c310"/><path d="M41 196c.8-1.1 1.5-2.3 2.3-3.4 0 1 0 1.9-.1 2.9-.3.1-.5.2-.8.3-.4 0-.9.1-1.4.2" style="fill:#b79828"/><path d="M44.9 204.9c-.2-.1-.5-.1-.7-.2.6-1.2 1.2-2.4 1.8-3.7.3.3.5.6.7.8.1.2.2.4.3.5-.1-.1-.3-.2-.5-.3-.4.8-.8 1.6-1.2 2.5.3.1.5.2.7.2-.4.1-.8.2-1.1.2" style="fill:#d8ba14"/><path d="M45.9 204.8c-.2-.1-.4-.1-.7-.2.4-.8.8-1.6 1.2-2.5.2.1.3.2.5.3.2.3.3.6.5.9-.4.4-.8.7-1.3 1.1.4.2.5.2.7.3-.2 0-.3.1-.5.1z" style="fill:#cfb119"/><path d="M40.9 219.1c.1 0 .2 0 .6-.1-.5 0-.7-.1-.9-.1.3 0 .6-.1.9-.1h1c.1 0 .1.1.2.1-.2.3-.5.6-.7.9.2.1.5.2.7.4-.6 0-1.2.1-1.7.1l-.1-.1c-.2-.4-.1-.7 0-1.1" style="fill:#b39428"/><path d="M46.7 204.7c-.1-.1-.3-.1-.7-.3.5-.4.9-.8 1.3-1.1.2.4.4.8.6 1.1-.3.1-.7.2-1.2.3" style="fill:#c7a81f"/><path d="M42.5 220.2c-.2-.1-.5-.2-.7-.4.2-.3.5-.6.7-.9-.1 0-.1-.1-.2-.1.2 0 .5-.1.7-.1h.8c.1 0 .2 0 0 0-.3.3-.8.7-1.2 1.1 0 0 .2.3.3.4z" style="fill:#ac8c2e"/><path d="M43.4 187.3v-4.6 3.1c.1.4.1 1 0 1.5" class="st45"/><path d="M43.6 133.4c.4.5.7.9 1.1 1.4-.6 1.7-1.2 3.3-1.8 5-.5-.2-1.1-.5-1.6-.7.1-.4.3-.8.4-1.2.1 0 .3.1.3.1-.3-1-.7-2-1-3.1.1-.1.3-.2.4-.3.2.3.4.7.5 1 .3.2.6.6.8.6.3 0 .7-.5.7-.7 0-.3-.4-.6-.6-.9.3-.4.6-.8.8-1.2" style="fill:#f8c91e"/><path d="M42.9 134.7c.2.3.6.6.6.9 0 .2-.4.7-.7.7-.2 0-.5-.4-.8-.6.3-.4.6-.7.9-1" style="fill:#a5852f"/><path d="M38.9 132.4c.3.4.7.8 1 1.2l.1.1c.2 1 .5 1.9.7 2.9v.1c-.1-.5-.3-1-.4-1.3-.7 1.1-1.3 2.4-2.3 3.5-.9 1.1-2.1 1.9-3.2 2.8v-2.6l.4-.4c.2-.4.5-.8.7-1.2 1.1-1.7 2.1-3.4 3-5.1" style="fill:#fad615"/><path d="M40.7 136.7v-2.6c.2.5.2.7.3.9.3 1 .7 2.1 1 3.1 0 0-.2-.1-.3-.1-.3-.5-.6-.9-1-1.3" class="st74"/><path d="M30.8 219c-.4-.1-.9-.1-1.3-.2 0-1.4-.1-2.8-.1-4.3.7 0 1.3-.1 2-.1h.3c2.2 0 4.3.1 6.5.1h.6c-.4 0-.8.1-1.3.1H32v4.1c.8.1 1.7.1 2.5.2h-1.9c-.6.1-1.2.1-1.8.1" style="fill:#218b3a"/><path d="M32.6 219H38c0 .1 0 .2-.1.2H35c-.7 0-1.3-.1-2-.1-.2-.1-.3-.1-.4-.1" class="st76"/><path d="M37.9 219h-3.5c-.8-.1-1.7-.1-2.5-.2v-4.1h1.9c.3.5 1 1.1.9 1.6-.4 2.2.5 3 2.6 2.6.5 0 .9.1 1.4.1-.1-.1-.4-.1-.8 0" style="fill:#28863b"/><path d="M38.9 218.9c-.5 0-.9-.1-1.4-.1v-4.1c.4 0 .8-.1 1.3-.1h3c-1.3.1-1.6.1-1.9.2v3.9c.5.1 1.1.1 1.6.2-.3 0-.6.1-.9.1-.6-.1-1.1-.1-1.7-.1" style="fill:#377b3d"/><path d="M40.9 219.1c-.1.4-.2.8-.3 1.1h-1.9c1.3-.6 1.7-.9 2.2-1.1" class="st79"/><path d="M38.9 171.9c-3.4-.7-2.8 2.5-3.6 3.9-1.4 2.7-2.3 5.6-3.4 8.5 0-.6.1-1.1.1-1.7v-3.9c1.4-2.5 2.9-5 4.3-7.6.1 0 .2.1.3.1l.6-.3c0-.2.1-.4.1-.6l.6-2.7c.1-.8.3-1.6.4-2.4.2-.8.6-1.5.7-2.3.3-2 .5-4.1.7-6.2.3.1.7.2 1 .3-.5 3.1-1.1 6.2-1.4 9.3-.1 1.2.4 2.4.7 3.6.8-.9 2.3-1.8 2.3-2.7 0-3.9-.4-7.8-.6-11.8v-.6c.2-.1.5-.2.7-.3.3 0 .6.1.9.1.3.5.6 1 .8 1.6.2.2.3.4.5.6-.1.2-.3.4-.3.7.1 2.3.6 4.7.3 7-.4 2.5-1.7 4.9-2.6 7.4h-.4c-1 .1-1.8 0-2.7 0" style="fill:#f7d208"/><path d="M38.9 171.9c.9 0 1.7.1 2.6.1-.7 2-1.3 4.1-2 6.1-.6 1.1-1.2 2.3-1.9 3.4-.3.7-.7 1.3-1 2-.3.5-.6 1.1-.8 1.6-.4.6-.8 1.2-1.1 1.9-.4.7-.9 1.3-1.3 2-.3.4-.6.8-.9 1.1 1.7-4.8 3.3-9.6 5-14.4.4-1.3.9-2.5 1.4-3.8" style="fill:#fad914"/><path d="m28.5 196.5 3.3-5.1c1 .2 2.1.5 3.1.7-.6.7-1.1 1.3-1.7 2-.1-.5-.2-1.1-.3-1.6-.7.4-1.6.8-2.1 1.4-.5.6-.5 1.5-.7 2.2h1.4c-.5.6-1 1.2-1.6 1.9-.5-.5-.9-1-1.4-1.5" style="fill:#f4d605"/><path d="M34.9 192.1c-1-.2-2.1-.5-3.1-.7.2-.4.5-.9.7-1.3.3-.4.6-.8.9-1.1 1 .4 2.1.9 3.1 1.3-.5.6-1.1 1.2-1.6 1.8" style="fill:#ebce0a"/><path d="M31.3 186.3c-.9-4.4-1.9-8.8-2.9-13.3-.3-1.5-.8-3-1.3-4.6.4.7.8 1.3 1.1 2 .1.5.1.9.2 1.4 1.1 4.2 2.1 8.5 3.2 12.7 0 .6-.1 1.2-.3 1.8" style="fill:#f9d317"/><path d="M31.8 184.6c-1.1-4.2-2.1-8.5-3.2-12.7-.1-.5-.1-.9-.2-1.4.1.3.3.6.4.9.1.5.3.9.4 1.4 1 3.3 1.9 6.6 2.9 9.8 0 .6-.1 1.1-.1 1.7-.1.1-.2.2-.2.3" style="fill:#f9d118"/><path d="m28.5 196.5 1.4 1.4c-.5.6-1 1.2-1.6 1.8-.4-.3-.9-.7-1.3-1 .5-.6 1-1.4 1.5-2.2" style="fill:#eccf09"/><path d="M24.5 138.5c.1 0 .2-.1.3-.1l.6-.3c2.5-.6 5.1-1.1 7.7-1.7-.1-.5-.1-.3 0-.1h.1v-.1h.1c.1.5.1.9.2 1.4 0 .1-.1.3-.2.4-.3.3-.7.6-1 .8-1.3.3-2.6.5-3.9.9-1.5.4-3.1.8-4.6 1.3v-2.3c.2 0 .5-.1.7-.2" class="st11"/><path d="M33.2 136.2s0 .1 0 0l-.1.1c-.1-.2-.1-.4 0 .1-2.6.6-5.2 1.2-7.7 1.7 0-.3.1-.6.2-.8.1-.2.2-.5.3-.7.1-.2.3-.4.4-.6 1.4-.3 2.9-.6 4.3-1.1.8-.3 1.5-1.2 2.2-1.7h.1c.1.5.2 1 .3 1.6-.1.4-.1.9 0 1.4" style="fill:#fce50b"/><path d="M33.3 138.1c0-.1.1-.3.2-.4.5-.9 1-1.9 1.6-2.8.4-.5.8-1 1.1-1.6.6-.4 1.1-.8 1.7-1.1h1v.3c-.9 1.7-1.9 3.4-2.8 5.1-.1-.1-.2-.3-.3-.4-.1-.2-.3-.4-.9-1.2.1 1.3.1 1.9.2 2.5l.3.3-.4.4c-.3.3-.5.6-.8.8-.3-.6-.6-1.3-.9-1.9" class="st88"/><path d="M35.1 134.8c-.5.9-1 1.9-1.6 2.8-.1-.5-.1-.9-.2-1.4.6-.4 1.2-.9 1.8-1.4" style="fill:#c6a71d"/><path d="M20.4 128.2c.4-.7.9-1.3 1.3-2 .8-.3 1.7-.6 1.7-.6 1-1.1 1.5-1.6 2-2.1.4-.2.8-.4 1.3-.6.1.2.1.4.2.5-.2.3-.4.5-.6.7.6 0 1.1-.1 1.7-.1 0 .4-.1.9-.1 1.3.1.2.3.4.4.6-.8 0-1.6-.1-2.4-.1-.5 0-.9.3-1.4.4l1.1 1.1c.3 0 .7.1 1 .1-.3.2-.7.5-1 .7-.5 0-1 .1-1.4.1-.5.2-1 .4-1.4.6-.4.1-.9.1-1.3.2-.5-.3-.8-.5-1.1-.8" style="fill:#fce80a"/><path d="M27.9 124c-.6 0-1.1.1-1.7.1.2-.2.3-.4.6-.7 0-.1-.1-.3-.2-.5 2.3.9 5.4 1.2 6.8 2.9 1.1 1.4.3 4.4.2 6.7 0 .2-.6.4-.9.6h-.1v-.8c.4-1.2 1.3-2.5 1-3.5-.5-1.5-1.8-2.8-2.8-4.1-.1-.1-.5.1-.8.2.1-.2.1-.4.2-.8-.4.1-.7.1-.9.2-.4-.2-.9-.2-1.4-.3" class="st91"/><path d="M25.4 123.5c-.5.5-1 1-2 2.1-.1 0-.9.3-1.7.6.4-.6.8-1.2 1.1-1.8.8-.3 1.7-.6 2.6-.9" class="st92"/><path d="M28.8 171.3c-.1-.3-.3-.6-.4-.9-.4-.7-.8-1.3-1.1-2-.6-1.2-1.2-2.4-1.9-3.6-.5-1.2-1-2.5-1.6-3.7.2.1.4.3.6.4l9.9 8.1c.3.2.7.5 1 .7-1.1 1.9-2.3 3.8-3.4 5.7-.5-.9-1-1.7-1.4-2.6-.6-.6-1.2-1.3-1.7-2.1" style="fill:#fee000"/><path d="M37.3 170.4c0 .2-.1.4-.1.6-1.8-1.6-3.7-3.1-5.5-4.7-3-2.6-6.1-5.2-9.1-7.9-.1-.2-.3-.4-.4-.6v-.6c.6.5 1.2.9 1.7 1.4 4.5 4 9 7.9 13.4 11.8" class="st94"/><path d="m34.3 169.7-9.9-8.1c-.2-.2-.4-.3-.6-.4-.2-.5-.4-.9-.6-1.4z" style="fill:#f5d804"/><path d="M22.6 158.5c3 2.6 6 5.2 9.1 7.9 1.8 1.6 3.6 3.1 5.5 4.7l-.6.3c-.4-.4-.7-.8-1.1-1.2-4.2-3.7-8.4-7.4-12.5-11.1-.2-.3-.3-.4-.4-.6" class="st96"/><path d="M22.9 159c4.2 3.7 8.4 7.4 12.5 11.1.4.4.8.8 1.1 1.2-.1 0-.2-.1-.3-.1-.3-.2-.7-.5-1-.7-.3-.2-.7-.5-1-.7-3.7-3.3-7.4-6.7-11.1-10 0-.3-.1-.5-.2-.8" style="fill:#efd208"/><path d="M26.4 218.5c-1.2-.1-2.4-.2-3.7-.3-.3-.1-.6-.3-.8-.3-.1-1.3-.1-2.7-.2-4.1h1.7c1 .1 1.9.2 2.9.3-.5.1-.9.1-1.4.2v3.9c.6.1 1.3.1 2.2.2-.4.1-.5.1-.7.1" style="fill:#0c9938"/><path d="M23.4 213.8h-1.8c.2 0 .4-.1.9-.2-.5 0-.8-.1-1.8-.2 1.7-1.8 3.1-3.3 4.5-4.7h.8c.4.1.7.1 1.1.2-1.3 1.6-2.7 3.1-4.1 4.8h.4c.1 0 .1.1 0 .1.1 0 .1 0 0 0m9.2-81.6v.8c-.7.6-1.4 1.4-2.2 1.7-1.4.5-2.8.7-4.3 1.1 0-.2.1-.4 0-.1-1-.6-1.7-1-2.4-1.5l-.3-2.1c-.2-1-.4-1.9-.6-2.9.5 1.1.9 2.3 1.4 3.4 1.1 2.6 2.3.8 3.6.1.5-.4 1-.8 1.4-1.1.1-.4.3-.8.4-1.1h.1c.4 0 .8.1 1.1.1.1.3.3.7.4 1 .7.3 1 .5 1.4.6" style="fill:#fceb08"/><path d="m23.5 132.2.3 2.1c-1.1-.9-2.5-1.6-3.2-2.7-.5-.8-.2-2.2-.3-3.4h.1c.3.2.7.5 1 .7.4 1.4.8 2.7 1.5 4.9.4-1.1.5-1.4.6-1.6" class="st91"/><path d="M17.9 141.1h.1c1 1.5 1.9 3 2.9 4.6.9.9 1.9 1.7 2.8 2.6l.2.2c.1.3 0 .7.2.9 1.4 2 2.9 3.9 4.4 5.9-.7-.3-1.3-.6-2-.9-.3-.1-.6-.3-.8-.4v-.1c-1.9-2.5-3.8-5-5.8-7.4-1-1.2-2.2-2.2-3.3-3.3v-2.7c.4.1.9.3 1.3.6" style="fill:#f1c80e"/><path d="M16.5 143.1c1.1 1.1 2.3 2.1 3.3 3.3 2 2.4 3.9 4.9 5.8 7.4-.7-.2-1.3-.5-2-.7-.3-.1-.7-.3-1-.4v-.1c-1.5-2.1-3.1-4.2-4.6-6.3-.6-1.1-1-2.2-1.5-3.2" class="st101"/><path d="M22.6 152.5v.1l5.7 5.4c2.6 2.4 5.2 4.9 7.9 7.3-3.6-3.1-7.1-6.2-10.7-9.3-1.4-1.2-2.8-2.6-4.2-3.8.5.1.9.2 1.3.3" style="fill:#c3a51f"/><path d="M27.1 208.8c-.4-.1-.7-.1-1.1-.2h-.1c-.2-1.2-.4-2.4-.5-3.6.6-.1.9-.2 1.3-.2h.7c.6.1 1.2.2 1.8.2-.4 1.2-.9 2.4-1.3 3.6.1 0 .3 0 1.2.2h-1.4z" style="fill:#0e9738"/><path d="M27.3 204.8h-.7c-.3 0-.6-.1-.8-.1.2 0 .3-.1.7-.2-.3 0-.5-.1-.8-.1.6-1.3 1.2-2.5 1.8-3.7l.1-.1c1-.3 1.9-.6 2.9-.9-.9 1.6-1.9 3.3-2.8 4.9 0 0 .1 0 .8.2z" style="fill:#fdef05"/><path d="M26.4 218.5c.2 0 .3 0 .7-.1-.9-.1-1.6-.2-2.2-.2v-3.9c.5-.1 1-.1 1.4-.2 1.2.1 2.4.1 3.6.2.5 0 .9.1 1.4.1-.7 0-1.3.1-2 .1-.7-.1-1.4-.1-1.9-.2v4.3h-.3c-.2 0-.4 0-.7-.1" style="fill:#159339"/><path d="M17.8 139.1c0-.5-.1-1-.1-1.4 0-.1 0-.1 0 0 1.7.8 3.6 1.6 5.3 2.5.3.1.4.6.7.9-2-.6-4-1.2-5.9-1.8z" style="fill:#b49427"/><path d="M17.8 139.1v.2c1.9.6 3.9 1.2 5.9 1.8h.1c.2.4.5.8.7 1.2 0 .1-.1.3-.1.4l-6-1.8c-.2-.7-.4-1.2-.6-1.8" class="st107"/><path d="M20.8 153.8c-.1-.3-.3-.7-.4-1 1.1.8 2.2 1.6 3.2 2.5 4.3 3.8 8.6 7.6 12.9 11.3l.1-.1c0 .3.1.6.1.9-.2 0-.4 0-.5-.1-3.7-3.3-7.3-6.5-11-9.8-1.3-1.4-2.9-2.5-4.4-3.7" class="st108"/><path d="M36.8 167.3c0-.3-.1-.6-.1-.9 0-.3-.1-.6-.1-.9 0-.2-.1-.4-.1-.6h.1c.1.1.2.1.3.2v-1c.3-3.8.7-7.5 1-11.3l.3.9c-.1.2-.3.4-.3.6v13.3l-.6 2.7c0-.2-.1-.4-.1-.6v-.6c0-.1-.1-.2-.1-.3 0-.3-.1-.6-.1-.9-.1 0-.2-.3-.2-.6" style="fill:#edc113"/><path d="M36.3 165c0 .2.1.4.1.6l-.3-.3c-2.6-2.4-5.3-4.8-7.9-7.3l-5.7-5.4c.3.1.7.3 1 .4 2.2 2 4.3 4.1 6.5 6 1.8 1.6 3.7 3 5.5 4.5.4.6.6 1 .8 1.5" class="st32"/><path d="M36.5 166.6c-4.3-3.8-8.5-7.6-12.9-11.3-1-.9-2.2-1.7-3.2-2.5 0-.1-.1-.3-.1-.4.5.3 1.1.5 1.6.9l14.4 12.9z" style="fill:#ccad1a"/><path d="M27.5 218.6v-4.3c.5 0 1.2.1 1.9.2 0 1.4.1 2.8.1 4.3-.7-.1-1.3-.1-2-.2" style="fill:#1a8f3a"/><path d="M36.8 167.3c0 .3.1.6.1.9-2.8-2.4-5.7-4.9-8.5-7.3-2.4-2-4.8-4.1-7.2-6.1-.1-.3-.3-.7-.4-1 1.5 1.2 3.1 2.3 4.5 3.6 3.7 3.2 7.3 6.5 11 9.8.1.1.3.1.5.1" class="st112"/><path d="M37.2 169.9c0 .2.1.4.1.6-4.5-3.9-8.9-7.8-13.4-11.8-.5-.5-1.1-.9-1.7-1.4-.1-.2-.2-.5-.3-.7.4.3.8.5 1.2.8 4.7 4.2 9.4 8.3 14.1 12.5" class="st40"/><path d="M37.2 169.9c-4.7-4.1-9.4-8.3-14.1-12.4-.4-.3-.8-.6-1.2-.8-.1-.2-.2-.5-.3-.7 1.3 1 2.6 2.1 3.8 3.2 3.9 3.4 7.8 6.8 11.8 10.2z" class="st113"/><path d="M21.2 154.8c2.4 2 4.8 4.1 7.2 6.1 2.8 2.4 5.7 4.9 8.5 7.3 0 .3.1.6.1.9-3.3-2.9-6.6-5.9-9.9-8.8-1.9-1.6-3.9-3.2-5.8-4.7 0-.4 0-.6-.1-.8" class="st92"/><path d="M21.4 155.5c1.9 1.6 3.9 3.1 5.8 4.7 3.3 2.9 6.6 5.9 9.9 8.8 0 .1.1.2.1.3-3.9-3.4-7.8-6.8-11.8-10.2-1.2-1.1-2.5-2.1-3.8-3.2-.1-.1-.1-.3-.2-.4" style="fill:#ddbf11"/><path d="M30.5 199.8c-1 .3-1.9.6-2.9.9l.3-.3c1.5-1.2 3-2.4 4.6-3.6l2.7-2.1c-1.3 1.6-2.6 3.1-3.8 4.7-.3.1-.6.3-.9.4" class="st94"/><path d="M32.5 196.8c-1.5 1.2-3 2.4-4.6 3.6.1-.2.3-.4.4-.6.5-.6 1-1.2 1.6-1.8.5-.6 1-1.2 1.6-1.9.5-.6 1-1.1 1.6-1.7z" class="st21"/><path d="m18.4 140.8 6 1.8v1.1c-1.8-.6-3.6-1.1-5.4-1.6-.2-.3-.4-.6-.5-.9-.1-.1-.1-.3-.1-.4" class="st115"/><path d="M18.4 141.2c.2.3.4.6.5.9.7 1.2 1.3 2.4 2 3.5-1-1.5-1.9-3-2.9-4.6.2.1.3.1.4.2" style="fill:#f8ce1a"/><path d="M41.5 218.8c-.5-.1-1.1-.1-1.6-.2v-3.9c.3 0 .6 0 1.9-.2h-3.6l.1-.1h4.3c-.3 1.2-.5 2.6-.9 4 .7.1 1.1.2 1.6.3-.2 0-.5.1-.7.1z" style="fill:#3d773e"/><path d="M44.9 214.1c-.6 0-1.2.1-1.9.1l-.1-.1c.8-1.6 1.5-3.2 2.3-4.8.1 0 .2 0 .7-.1H45c.3-.1.6-.1.9-.2h1.2c-1.1 1.6-2.1 3.1-3.4 5H45c-.1 0-.1 0-.1.1" style="fill:#ba9a24"/><path d="M44.9 214.1v-.2c.5-1.1 1.1-2.2 1.6-3.4.2-.5.3-1.1.5-1.6h-.4c.3 0 .6-.1.9-.1h.9c-.7 1.5-1.5 3-2.3 4.6.5.2.9.3 1.4.5-.9.1-1.8.1-2.6.2" style="fill:#a9892d"/><path d="m42.9 214.1.1.1c-.2 0-.5.1-.8.1h-1.5c.7-1.7 1.3-3.3 2-5h.7c-.6 1.5-1.3 3.1-1.9 4.7h.6c.3.1.6.1.8.1" class="st108"/><path d="M42.9 139.8c.6-1.7 1.2-3.3 1.8-5 .3-2.4.5-4.7.8-7.1-.4 0-.7-.1-1.1-.1.2-.2.4-.3.6-.5.6.1 1.1.2 1.7.3v.2c.1.1.5.3.9.5-.1.1-.2.1-.4.2.2.2.4.3.6.4-.1.5-.2 1-.4 1.5l.2-.2c0 .9-.1 1.9-.1 2.8 0-.3-.1-.7-.1-1l-.5.5c.2.5.6.9.8 1.3l.2.2c-.1 0-.1.1-.2.1.3.3.6.7.9 1v.6h-.4c0 .3-.1.6-.1 1 .1.3.1.7.2 1h.1v.1c-1 .1-2 .3-3 .4-.2.6-.5 1.1-.7 1.7.6.2 1.1.4 1.7.6-.3.2-.6.3-.9.5-.8-.1-1.6-.3-2.4-.4-.1-.2-.1-.4-.2-.6" class="st120"/><path d="M51.3 140.4c0 1.3-.1 2.7-.1 4-1.7 1.1-3.3 2.3-5 3.4-1.2.3-2.4.7-3.6 1 .1-.2.2-.5.3-.7l4.8-5.7c.4-.2.9-.5 1.1-.6v-.7c.3 0 .5.1.9.1-.3-.3-.4-.6-.6-.8.4-.2.9-.4 1.3-.6z" class="st46"/><path d="m47.7 142.4-4.8 5.7c-.2.2-.2.5-.3.7-.1 0-.2.1-.3.1-.2 0-.5.1-.7.1h-.3c-1.2.1-2.5.3-3.7.4-.2-.1-.5-.2-.7-.3.4-.2.8-.4 1.1-.6 2.9-2.2 5.7-4.4 8.6-6.6h.1c.4.2.7.3 1 .5" style="fill:#f6bb27"/><path d="M47.5 132.8c0-.9.1-1.9.1-2.8.2-.5.5-.9.7-1.4.4-.2.7-.5 1.1-.7-.1 2.6-.3 5.2-.4 7.8-.1-.2-.3-.5-.4-.7-.1-.4-.1-.7-.2-.9-.3 0-.5-.1-.7-.1.1 0 .1-.1.2-.1l-.2-.2c0-.3-.1-.6-.2-.9" style="fill:#f6be25"/><path d="M45.3 138.1c1-.1 2-.3 3-.4-.7.9-1.3 1.8-2 2.7-.6-.2-1.1-.4-1.7-.6.2-.6.5-1.1.7-1.7" class="st50"/><path d="M49.4 127.8c-.4.2-.7.5-1.1.7-.2 0-.4.1-.6.1-.2-.1-.3-.2-.6-.4.1-.1.3-.1.4-.2.4-1.5.8-3 1.1-4.5-.3-.2 0 0 .4.2-.3.2-.6.5-.2.2.3 1.7.5 2.8.6 3.9" style="fill:#a5862f"/><path d="M51.3 140.4c-.3-.2-.6-.4-.8-.6-.2-.2-.4-.3-.7-.5l.6-.3c.7 0 1.4-.1 2.1-.1-.1.5-.2 1.1-.4 1.8-.2-.5-.3-.7-.5-1-.1.2-.2.4-.3.7m-4.6 1.5h-.1c-.9-.3-1.8-.6-2.7-.8-.3-.2-.6-.3-.8-.5v-.2c.8.1 1.6.3 2.4.4.4.4.8.8 1.2 1.1m2.5-1.5c.2.2.3.5.6.8-.4 0-.6-.1-.9-.1-.2-.3-.4-.5-.6-.9 0 .4 0 .6-.1.8h-.3c0-.4-.1-.9 0-1.2.1-.3.6-.3 1.6-.8-.7.6-.9.7-1.1.9.3.2.6.3.8.5" style="fill:#a08131"/><path d="M48.6 134.9c.1.2.3.5.4.7-.3.3-.7.6-1 .9 0-.3.1-.6.1-1h.4c.1-.1.1-.4.1-.6" class="st115"/><path d="M39.5 178.1c.7-2 1.3-4.1 2-6.1h.4c.7.1 1.3.2 2 .3v1.6c0 .7-.1 1.3-.1 2-.1-.3-.1-.6-.4-1.4-1.2 3.8-2.3 7.1-3.4 10.4 0-.2-.1-.5-.1-.7 0-1-.1-2-.1-3-.1-1.1-.2-2.1-.3-3.1m-7 18.7.6-2.4c0-.1.1-.2.1-.3.6-.7 1.1-1.3 1.7-2 .5-.6 1-1.2 1.6-1.9l1.6-1.6c-.5 1.6-.9 3.1-1.4 4.7-.5.4-1 .9-1.4 1.3-1 .8-1.9 1.5-2.8 2.2" class="st125"/><path d="M37.8 192.6c.7-.6 1.3-1.1 2-1.7 0 .3.1.7 0 .9-1.1 2-2.1 4-3.2 5.9v.1l-2.1.6c1-1.9 2.1-3.9 3.3-5.8" style="fill:#d6b815"/><path d="M36.5 197.7c1.1-2 2.2-3.9 3.2-5.9.1-.2 0-.6 0-.9l.6-.6c.4-.3.9-.7 1.3-1l-3 6.6-.6 1.2c-.4.2-.9.4-1.3.6z" class="st12"/><path d="M37.8 192.6c-1.1 2-2.3 3.9-3.4 5.9-.3.1-.6.3-.9.4l-2.1.6c1.3-1.6 2.6-3.1 3.8-4.7.5-.4 1-.9 1.4-1.3.4-.4.8-.7 1.2-.9" class="st127"/><path d="M34.6 187c.4-.6.8-1.2 1.1-1.9 1.2.6 2.5 1.1 3.7 1.7-.5.5-.9 1-1.4 1.6-1.1-.5-2.2-.9-3.4-1.4" class="st92"/><path d="M34.6 187c1.1.5 2.3 1 3.4 1.4v.3l-1.6 1.6c-1-.4-2.1-.9-3.1-1.3.5-.7.9-1.3 1.3-2" style="fill:#e3c50e"/><path d="M39.5 186.8c-1.2-.6-2.5-1.1-3.7-1.7.3-.5.6-1.1.8-1.6H40c-.1.7-.1.7-.1.6 0 .2.1.5.1.7-.1.7-.3 1.4-.5 2" class="st23"/><path d="M46.2 147.8c1.7-1.1 3.3-2.3 5-3.4-.3 1.3-.7 2.6-1 3.9-.2.7-.5 1.4-.7 2.1-.2.7-.5 1.3-.7 2-.1.3-.3.7-.4 1 0-.2-.1-.4-.1-.5-.8-1.8-1.5-3.4-2.1-5.1" style="fill:#b89925"/><path d="M39 205.4h2.7v.1h-1.3c-.1 1.2-.1 2.4-.2 3.5.6.1 1.2.1 1.8.2-.5.1-1 .1-1.6.2h-3.3c0-1.2.1-2.5.1-3.7l.1-.1H36c.5-.1 1-.1 1.6-.2h.9z" style="fill:#2c833c"/><path d="M42 209.2c-.6-.1-1.2-.1-1.8-.2 0-1.1.1-2.3.2-3.5h1.3v-.1h-.9c.9 0 1.7-.1 2.6-.1.3 0 .5-.1.8-.1.1 0 .2 0 .4.1-.6.1-1 .2-1.3.3v3.4c.8 0 1.6.1 2.3.1-.3.1-.6.1-.9.2-.6 0-1.3.1-1.9.1-.1-.2-.4-.2-.8-.2" style="fill:#337e3d"/><path d="M40.7 203.4c.9-2.3 1.9-4.5 2.8-6.8.1.1.1.2.2.3-1 2.1-2 4.3-3 6.5" class="st79"/><path d="M43.9 172.3c-.7-.1-1.3-.2-2-.3.9-2.4 2.2-4.8 2.6-7.4.4-2.2-.2-4.6-.3-7 0-.2.2-.4.3-.7.2.1.5.2.7.3.1 1.2.1 2.4.4 3.5.2.9.8 1.8 1.2 2.6-.5 1.6-1.1 3.2-1.6 4.8-.4 1.5-.8 2.9-1.3 4.2" class="st132"/><path d="M48.6 160.9c-.3.7-.7 1.3-1 2-.2.1-.4.3-.6.4l-.3-6.9c.3-.6.7-1.2 1-1.9.1.4.4.7.4 1.1.2 1.8.4 3.6.5 5.3" class="st133"/><path d="m46.7 156.5.3 6.9-.1.1c-.4-.9-1-1.7-1.2-2.6-.3-1.1-.3-2.3-.4-3.5.3-.1.7-.3 1-.4.2-.2.3-.4.4-.5" style="fill:#eec312"/><path d="M37.7 205.4c-.5.1-1 .1-1.6.2l-2.7-.3h1.2c.3-.1.9-.1 1-.4 1.2-2.7 2.4-5.4 3.6-8l.3-.3c.3-.1.6-.1.9-.2-1.2 2.7-2.4 5.3-3.5 8-.1.2.3.6.5.9.1 0 .2 0 .3.1" class="st113"/><path d="M39.2 196.8c-1.2 2.7-2.4 5.4-3.6 8-.1.2-.6.3-1 .4l-.1-.1c1.2-2.7 2.5-5.3 3.7-8 .3-.1.7-.2 1-.3" style="fill:#e9cc0b"/><path d="M38.2 197.1c-1.2 2.7-2.5 5.3-3.7 8h-.9c.7-1.4 1.5-2.8 2.1-4.3.4-1 .7-2.1 1-3.1.4-.2.9-.4 1.3-.6z" class="st136"/><path d="M45.7 208.9c-.8 0-1.5-.1-2.3-.1v-3.4c.3-.1.8-.1 1.3-.3-.2 0-.3-.1-.4-.1.2-.1.4-.1.6-.2.3 0 .7-.1 1-.1h.4c.1 1.2.3 2.5.4 3.8.1 0 .4.1.8.2-.3 0-.6.1-.9.1-.3.1-.6.1-.9.1" style="fill:#3a793e"/><path d="M37.7 205.4c-.1 0-.3-.1-.4-.1.3-.7.5-1.3.8-2 1-2.4 2-4.8 2.9-7.2v-.1c.5-.1.9-.2 1.4-.3-1.4 3.1-2.8 6.1-4.2 9.2 0 .1.2.3.3.5z" style="fill:#d2b317"/><path d="M41 196.1c-1 2.4-2 4.8-2.9 7.2-.3.7-.5 1.3-.8 2-.2-.3-.6-.7-.5-.9 1.1-2.7 2.3-5.3 3.5-8 .3-.1.5-.2.7-.3" style="fill:#d9bb14"/><path d="M48.7 152.3c.2-.7.5-1.3.7-2 .3 1.9.7 3.7 1 5.6-.3.9-.6 1.7-.9 2.6-.2-2.1-.5-4.1-.8-6.2" style="fill:#e2ad20"/><path d="M48.7 152.3c.3 2 .6 4.1.9 6.1-.3.8-.7 1.6-1 2.4-.1-1.7-.3-3.5-.4-5.2 0-.4-.3-.7-.4-1.1.2-.4.4-.9.6-1.3.1-.2.2-.5.3-.9" class="st141"/><path d="M40.7 136.7c.3.4.7.8 1 1.3-.1.4-.3.8-.4 1.2.2.2.3.5.5.7-.2-.1-.5-.2-.3-.1-2.1 1.7-4.1 3.4-6 5l-.6-3c1.1-.9 2.3-1.7 3.2-2.8.9-1.1 1.6-2.4 2.3-3.5.1.2.2.7.3 1.2" style="fill:#f9ce1a"/><path d="M41.8 139.8c-.2-.2-.3-.5-.5-.7.5.2 1.1.5 1.6.7 0 .2.1.5.1.7v.2h-.1c-.4-.3-.7-.6-1.1-.9" style="fill:#b29328"/><path d="m34.9 141.6.6 3v.1c-.5 1-1 2-1.6 3-.2-1.4-.4-2.9-.6-4.3-.1-.6-.3-1.2-.4-1.9l-.6-2.7c.3-.3.7-.6 1-.8.3.7.6 1.3.8 1.8l.8-.8z" class="st47"/><path d="m35.3 138.7-.3-.3c.2-.4.5-.8.7-1.3.1.1.2.3.3.4-.2.4-.4.8-.7 1.2" style="fill:#c0a121"/><path d="M38.6 209.4h1.3c-1.1 1.6-2.2 3.2-3.4 5h1.7l-.1.1c-2.2 0-4.3-.1-6.5-.1.2-.3.5-.6.7-.8.5-.5 1-1 1.4-1.6 1.7-.9 3.3-1.7 4.9-2.6" style="fill:#f6ce1a"/><path d="M37.5 214.7v4.1c-2.2.5-3-.3-2.6-2.6.1-.5-.6-1-.9-1.6 1.1.1 2.3.1 3.5.1" class="st76"/><path d="M32.3 213.5c-.2.3-.5.6-.7.8h-.3c-.5 0-.9-.1-1.4-.1.3 0 .6-.1.9-.1v-.1h-.1c.7-1.5 1.3-3 2-4.6h.7c-.3 1.5-.7 2.8-1.1 4.1" style="fill:#e6c90c"/><path d="M41.8 155.6c.2 3.9.6 7.8.6 11.8 0 .9-1.5 1.8-2.3 2.7-.3-1.2-.8-2.4-.7-3.6.3-3.1.9-6.2 1.4-9.3.3-.5.6-1.1 1-1.6" style="fill:#fbd904"/><path d="M41.8 155.6c-.3.5-.7 1.1-1 1.6-.3-.1-.7-.2-1-.3-.3-.5-.7-1-1-1.6-.2-.5-.4-1-.6-1.6l-.3-.9c-.1-.2-.2-.5-.3-.7-.1-.4-.2-.9-.3-1.3-.1-.4-.2-.8-.3-1.1l.6-.3c1.2-.1 2.5-.3 3.7-.4l-.1.1-.6.6-.3.9c.5 1.3 1 2.7 1.4 4v.4c.1.2.1.4.1.6" style="fill:#cdae1a"/><path d="M38.2 153.8c.2.5.4 1 .6 1.6-.1 3.3-.3 6.7-.4 10-.1.8-.3 1.6-.4 2.4v-13.3c-.1-.3.1-.5.2-.7" style="fill:#efc411"/><path d="M35.3 170.4c.3.2.7.5 1 .7-1.4 2.5-2.9 5-4.3 7.6 0-.9-.1-1.7-.1-2.6 1.2-1.8 2.3-3.8 3.4-5.7" style="fill:#fad804"/><path d="M38.3 165.3c.1-3.3.3-6.7.4-10 .3.5.7 1 1 1.6-.2 2.1-.4 4.1-.7 6.2-.1.7-.4 1.5-.7 2.2" class="st101"/><path d="M28.8 171.3c.6.8 1.1 1.5 1.7 2.3-.1.2-.2.4-.2.6.6 2.1 1.2 4.3 1.8 6.4v2c-1-3.3-1.9-6.6-2.9-9.8-.1-.5-.3-1-.4-1.5" style="fill:#f8cc1c"/><path d="M44.2 156.5c-.3-.5-.6-1-.8-1.6-.6-1.2-1.1-2.4-1.7-3.6.1-.7.3-1.4.4-2 .6.6 1.1 1.2 1.7 1.7v.3c-.3-.3-.5-.7-.8-1-.2-.2-.5-.2-.8-.4v1.2c.1 0 .2.1-.1 0 .2.7.2 1.1.5 1.5.2.3.6.5.9.8 0-.5.1-1 .1-1.5 0-.2.1-.4.1-.6h.1c.1 1.2.3 2.4.4 3.6.1.5 0 1 0 1.6" style="fill:#f3ca0d"/><path d="M44.2 156.5c0-.5.1-1.1.1-1.6.3-.1.7-.3 1-.4h.1l.9 2.4c-.3.1-.7.3-1 .4-.2-.1-.5-.2-.7-.3-.1-.1-.3-.3-.4-.5" style="fill:#c2a31f"/><path d="M32.1 180.6c-.6-2.1-1.2-4.3-1.8-6.4 0-.2.1-.4.2-.6.5.9 1 1.7 1.4 2.6 0 .9.1 1.7.1 2.6.1.5.1 1.2.1 1.8" style="fill:#f7c620"/><path d="M41.6 151.3c.6 1.2 1.1 2.4 1.7 3.6-.3 0-.6-.1-.9-.1-.6-1.7-1.2-3.3-1.9-5l.6-.6c.2.7.4 1.4.5 2.1" class="st155"/><path d="M40.6 149.8c.6 1.7 1.2 3.3 1.9 5-.2.1-.5.2-.7.3v-.4c-.5-1.3-1-2.7-1.4-4 0-.4.1-.6.2-.9" class="st133"/><path d="M39.9 184.1c0 .1 0 .2.1-.6h-3.4c.3-.7.7-1.3 1-2 .7-.1 1.3-.2 2-.3 0 .3.1.4.2 1.2v-1.3c0 1 .1 2 .1 3" style="fill:#cdaf1a"/><path d="M39.8 181.1v1.3c-.1-.7-.2-.9-.2-1.2-.7.1-1.3.2-2 .3.6-1.1 1.2-2.3 1.9-3.4z" style="fill:#c4a61e"/><path d="M33.2 194.1c0 .1-.1.2-.1.3-.5.6-1 1.1-1.6 1.7h-1.4c.2-.8.3-1.7.7-2.2.5-.6 1.4-.9 2.1-1.4.1.5.2 1.1.3 1.6" style="fill:#f8db03"/><path d="m32.3 138.9.6 2.7c-2 .4-4.1.8-6.1 1.2l-.1.1c-.2.3-.5.6-.7.9-.3-.3-.6-.7-.9-1-.2.5-.4.8-.5 1 0-.5 0-1-.1-1.6-.2-.4-.5-.8-.7-1.2 1.5-.4 3.1-.9 4.6-1.3 1.3-.2 2.6-.5 3.9-.8" class="st88"/><path d="M35.7 137.1c-.2.4-.5.8-.7 1.3 0-.6-.1-1.2-.2-2.5.7.8.8 1 .9 1.2" style="fill:#ccae1a"/><path d="M25.5 128.1c.3-.2.7-.5 1-.7 2.6-.2 3.2 1 2.6 3.3-.8-.6-1.7-1.2-2.5-1.8.1.6.1 1.2.2 1.8-.5-.9-.9-1.8-1.3-2.6" class="st160"/><path d="M29.3 131.8c-.5.4-1 .8-1.4 1.1-1.2-.2-2.4-.5-3.6-.7v.6c-.5-1.1-.9-2.3-1.4-3.4l-.3-.6c.5-.2 1-.4 1.4-.6 0 3.3 1.7 4.2 4.7 3.3.3.1.4.2.6.3" class="st161"/><path d="M29.1 130.7c.7-2.3 0-3.5-2.6-3.3-.3 0-.7-.1-1-.1 1.2-.1 2.5-.3 3.7-.4l.1.1c.2 1.2.4 2.5.6 3.7h-.1z" class="st136"/><path d="M28.8 131.5c-3 .9-4.7 0-4.7-3.3.5 0 1-.1 1.4-.1.4.9.9 1.7 1.3 2.6.6.2 1.3.5 2 .8" style="fill:#f0d207"/><path d="m22.6 128.8.3.6c.2 1 .4 1.9.6 2.9-.1.2-.2.4-.6 1.7-.7-2.2-1.1-3.6-1.5-4.9.4-.2.8-.2 1.2-.3" class="st163"/><path d="M29.2 126.8c-1.2.1-2.5.3-3.7.4l-1.1-1.1c.5-.1.9-.4 1.4-.4.8 0 1.6.1 2.4.1.3.1.7.3 1 .4z" class="st161"/><path d="M27.9 124c.5.1.9.2 1.4.3-.1.3-.2.7-.3 1h-1.3c.1-.5.2-.9.2-1.3" class="st163"/><path d="M27.8 125.2h1.3c0 .3.1.7.1 1-.3-.1-.7-.3-1-.4-.1-.2-.3-.4-.4-.6" style="fill:#e8cb0b"/><path d="M32.6 132.2c-.4-.1-.8-.3-1.1-.4.2-.2.4-.3.6-.5 1.6-2.9.2-4.8-2.1-6.4l.1-.1c.3-.1.7-.3.8-.2 1 1.3 2.3 2.6 2.8 4.1.2 1-.7 2.4-1.1 3.5" class="st127"/><path d="m30 124.8-.1.1c.1.6.2 1.1.3 1.7l-.9.3-.1-.1v-.6c0-.3-.1-.7-.1-1 .1-.3.2-.7.3-1 .3-.1.6-.1.9-.2-.1.4-.2.6-.3.8" style="fill:#fcec07"/><path d="M30.8 214.1c.1 0 .1.1.1.1-.3 0-.6.1-.9.1-1.2-.1-2.4-.1-3.6-.2-1-.1-1.9-.2-2.9-.3h.1s0-.1-.1-.1h-.4c1.4-1.6 2.7-3.2 4.1-4.8h.5c1.4.1 2.9.3 4.3.4-.7 1.3-1.5 2.5-2.2 3.9-.1.2.1.6.2 1 .2-.1.5-.1.8-.1" class="st29"/><path d="M30.2 126.7c-.1-.6-.2-1.1-.3-1.7 2.3 1.6 3.7 3.5 2.1 6.4-.1.2-.4.3-.6.5-.1-.3-.3-.7-.4-1-.2-1.5-.5-2.9-.8-4.2" class="st166"/><path d="M30.2 126.7c.3 1.4.6 2.8.9 4.1-.4 0-.8-.1-1.1-.1-.2-1.2-.4-2.5-.6-3.7.2-.1.5-.2.8-.3" class="st9"/><path d="M28.8 131.5c-.7-.3-1.3-.6-2-.9-.1-.6-.1-1.2-.2-1.8.8.6 1.7 1.2 2.5 1.8h.7c-.1.4-.3.8-.4 1.1-.3 0-.4-.1-.6-.2" class="st31"/><path d="M24.3 132.8v-.6c1.2.2 2.4.5 3.6.7-1.2.7-2.5 2.5-3.6-.1" class="st40"/><path d="M36.3 165c-.2-.5-.5-1-.7-1.4-.3-.6-.7-1.1-1-1.7-.4-.6-.8-1.1-1.1-1.7l-5-5c-1.5-2-2.9-3.9-4.4-5.9-.2-.2-.1-.6-.2-.9 1.4.6 2.8 1.1 4.1 1.7 2.5 3 4.9 6.1 7.4 9.1v.3c.2 1.2.5 2.5.7 3.7.1.6.2 1.2.3 1.9 0-.1 0-.1-.1-.1" style="fill:#efc511"/><path d="M28.1 150.1c-1.4-.6-2.8-1.1-4.1-1.7l-.2-.2c.2-.5.4-1 .6-1.6l8.1-.3c-.4.7-.8 1.4-1.1 2.1-1.2.6-2.2 1.1-3.3 1.7" style="fill:#f8c81e"/><path d="M24.3 146.6c-.2.5-.4 1-.6 1.6-.9-.9-1.9-1.7-2.8-2.6-.7-1.2-1.3-2.4-2-3.5 1.8.5 3.6 1.1 5.4 1.6v-1.1c0-.1.1-.3.1-.4 0 .5 0 1 .1 1.6-.1.8-.2 1.5-.3 2.3.1.1.1.3.1.5" class="st48"/><path d="M34.6 161.9c.3.6.7 1.1 1 1.7-1.8-1.5-3.7-3-5.5-4.5-2.2-2-4.3-4-6.5-6 .7.2 1.3.5 2 .7v.1c3.1 2.6 6 5.3 9 8" class="st14"/><path d="M34.6 161.9c-3-2.7-6-5.3-9-8 .3.1.6.3.8.4.4.3.7.6 1.1.9 2 1.7 3.9 3.3 5.9 5 .5.5.9 1.1 1.2 1.7" class="st1"/><path d="M33.5 160.2c-2-1.7-3.9-3.3-5.9-5-.4-.3-.7-.6-1.1-.9.7.3 1.3.6 2 .9 1.7 1.6 3.3 3.3 5 5" style="fill:#b09129"/><path d="m31.3 199.4 2.1-.6-3.3 5.4c-.1.1.2.5.3.7h1.7c-1.1.1-1.2.1-1.4.2h-1.8c-.6-.1-1.2-.2-1.8-.2h1.2c-.6-.1-.8-.2-.8-.2.9-1.6 1.8-3.2 2.8-4.9.5-.1.8-.3 1-.4" style="fill:#fcea08"/><path d="M29.1 205.1h1.8l.1.1c0 .1 0 .1-.1.2.2.9.4 1.9.5 2.8 0 .2-.2.5-.3.7.3.1.7.2 1.2.3h-.4c-1.4-.1-2.9-.3-4.3-.4H29c-.9-.1-1.1-.2-1.2-.2.4-1.1.9-2.3 1.3-3.5" style="fill:#169239"/><path d="M36.5 165c-.1-.6-.2-1.2-.3-1.9.5-3.7 1-7.3 1.4-11 .1.2.2.5.3.7-.3 3.8-.7 7.5-1 11.3v1c-.2 0-.3 0-.4-.1" style="fill:#edc014"/><path d="M38.2 214.4h-.3c.8-1.7 1.5-3.3 2.3-5h.3c.1.3.5.8.4 1-.6 1.4-1.3 2.7-2 4z" class="st166"/><path d="M38.9 214.4c.7-1.3 1.4-2.6 2-4 .1-.2-.2-.7-.4-1 .5-.1 1-.1 1.6-.2h1c.2.1.3.1.5.2h-.7c-1 1.7-1.9 3.3-2.9 5z" style="fill:#dcbe12"/><path d="M39.9 214.4c1-1.7 1.9-3.3 2.9-5-.7 1.7-1.3 3.3-2 5z" class="st112"/><path d="M47 209c-.2.5-.3 1.1-.5 1.6-.5 1.1-1.1 2.3-1.6 3.4h-1.3c1.3-1.9 2.4-3.5 3.4-5" class="st3"/><path d="M43.5 209.4c-.2-.1-.3-.1-.5-.2.6 0 1.3-.1 1.9-.1h.9c-.5.1-.6.1-.7.1l-3 4.8h-.6c.7-1.5 1.3-3.1 2-4.6" class="st17"/><path d="m42.2 214.1 3-4.8c-.8 1.6-1.5 3.2-2.3 4.8z" style="fill:#c1a220"/><path d="M45.3 138.1c-.2.6-.5 1.1-.7 1.7.2-.6.5-1.1.7-1.7" class="st74"/><path d="m47.5 132.8.3.9c-.3-.4-.6-.9-.8-1.3 0-.1.3-.4.5-.5-.1.2 0 .6 0 .9" style="fill:#a4852f"/><path d="M47.8 128.7c.2 0 .4-.1.6-.1-.2.5-.5.9-.7 1.4l-.2.2c0-.6.2-1.1.3-1.5" style="fill:#af8f2b"/><path d="M47.7 133.9c.2 0 .4 0 .7.1 0 .2.1.6.2.9-.3-.3-.6-.6-.9-1" class="st115"/><path d="m46.3 156.9-.9-2.4c-.5-1.6-.9-3.2-1.4-4.8-.6-.2-1.1-.5-1.7-.7.1 0 .2-.1.3-.1 1.2-.3 2.4-.7 3.6-1 .7 1.7 1.3 3.3 2 5 .1.2.1.4.1.5-.2.4-.4.9-.6 1.3-.3.6-.7 1.2-1 1.9-.1 0-.2.2-.4.3" class="st60"/><path d="M43.9 141.1c.9.3 1.8.6 2.7.8-2.9 2.2-5.7 4.4-8.6 6.6-.3.3-.7.4-1.1.6-.2-.5-.4-1-.6-1.6 2.6-2 5.1-4.2 7.6-6.4" style="fill:#f7c123"/><path d="M36.3 147.6c.2.5.4 1 .6 1.6.2.1.5.2.7.3l-.6.3c-.2.3-.4.5-.5.8-.5 1.9-1 3.9-1.5 5.9-.2-1.4-.5-2.9-.7-4.3.6-1.7 1.2-3.3 1.9-5 0 .1.1.3.1.4" class="st141"/><path d="M41.6 151.3c-.1-.7-.3-1.4-.4-2.1l.1-.1h.3c.8.7 1.5 1.3 2.3 2h-.1c-.6-.6-1.1-1.2-1.7-1.7-.2.6-.3 1.3-.5 1.9" class="st132"/><path d="M43.9 151c-.8-.7-1.5-1.3-2.3-2 .2 0 .5-.1.7-.1.6.2 1.1.5 1.7.7 0 .5-.1 1-.1 1.4" style="fill:#ecbf14"/><path d="M36.3 147.6c0-.1-.1-.3-.1-.4 0-.2-.1-.4-.1-.6 2.3-2 4.6-4 6.8-6h.1c.3.2.6.3.8.5-2.4 2.2-4.9 4.4-7.5 6.5" class="st120"/><path d="M30.5 205c-.1-.2-.4-.6-.3-.7l3.3-5.4c.3-.1.6-.3.9-.4l2.1-.6c-.2.3-.5.7-.7 1-1.8 2-3.6 4-5.3 6.1" style="fill:#fce50c"/><path d="M35.8 198.8c.2-.3.5-.7.7-1v-.1h.3c-.3 1-.6 2.1-1 3.1-.6 1.5-1.4 2.9-2.1 4.3-.1-.1-.3-.3-.3-.4.7-2 1.5-3.9 2.4-5.9" class="st160"/><path d="M37.3 205.7c0 1.2-.1 2.5-.1 3.7h-1.4c-.4-.1-.9-.3-1.2-.4-.1-1.2-.1-2.3-.2-3.5.9.1 1.9.1 2.9.2" style="fill:#24883b"/><path d="M40.2 209.4c-.8 1.7-1.5 3.3-2.3 5h-1.4c1.2-1.7 2.3-3.3 3.4-5z" class="st96"/><path d="M35.8 209.4h2.8c-1.6.8-3.2 1.7-4.8 2.5l.6-2.4.1-.1z" style="fill:#dabc14"/><path d="M37.3 205.7c-1 0-2-.1-3-.1-1.1 0-2.3-.1-3.4-.1 0-.1 0-.1.1-.2.8 0 1.7 0 2.5.1l2.7.3h1.3c-.1-.1-.1-.1-.2 0" style="fill:#198a3b"/><path d="M33.4 205.3c-.8 0-1.7 0-2.5-.1l-.1-.1c.2 0 .3 0 1.4-.2h-1.7c1.8-2 3.5-4.1 5.3-6.1-.8 2-1.6 3.9-2.4 5.9 0 .1.2.3.3.4h.9l.1.1c-.5 0-.9.1-1.3.1" class="st29"/><path d="M42.9 140.6c-2.3 2-4.6 4-6.8 6-.2-.6-.4-1.2-.6-1.9v-.1c2-1.6 3.9-3.2 6-5-.2-.1.1 0 .3.1.4.4.7.7 1.1.9" style="fill:#f8c71f"/><path d="M26.8 142.8c2-.4 4.1-.8 6.1-1.2.1.6.3 1.2.4 1.9l-.3.9c-2 .6-4.1 1.2-6.1 1.9v-2c0-.6-.1-1-.1-1.5" class="st125"/><path d="m33 144.3.3-.9c.2 1.4.4 2.9.6 4.3.1 1.1.2 2.3.3 3.4-1-.9-1.9-1.8-2.9-2.7.4-.7.8-1.4 1.1-2.1.3-.6.5-1.3.6-2" class="st141"/><path d="M34.2 151.2c-.1-1.1-.2-2.3-.3-3.4.5-1 1-2 1.6-3 .2.6.4 1.2.6 1.9 0 .2.1.4.1.6-.6 1.7-1.2 3.3-1.9 5 0-.4-.1-.8-.1-1.1" style="fill:#e0aa22"/><path d="m34.3 209.5-.6 2.4c-.5.5-1 1-1.4 1.6.4-1.3.8-2.7 1.1-4z" class="st127"/><path d="M34.3 209.5h-1.6c-.3.2-.7.3-.8.6-.7 1.3-1.4 2.6-2 4-.1-.3-.3-.7-.2-1 .7-1.3 1.4-2.6 2.2-3.9h.4c.7.1 1.4.1 2.1.2 0 0 0 .1-.1.1" style="fill:#f4d705"/><path d="M29.9 214.1c.7-1.3 1.3-2.7 2-4 .1-.3.5-.4.8-.6-.7 1.5-1.3 3-2 4.6z" style="fill:#edd009"/><path d="M35 156.5c.5-2 1-3.9 1.5-5.9.1-.3.3-.6.5-.8.1.4.2.8.3 1.1-.2.9-.5 1.8-.7 2.7-.4 1.9-.8 3.9-1.1 5.8v-.3c-.2-.8-.3-1.7-.5-2.6" class="st133"/><path d="M35.5 159.5c.4-1.9.7-3.9 1.1-5.8.2-.9.5-1.8.7-2.7.1.4.2.9.3 1.3-.5 3.7-1 7.3-1.4 11-.2-1.4-.5-2.6-.7-3.8" class="st187"/><path d="M40.3 150.6c.5 1.3 1 2.7 1.4 4-.4-1.3-.9-2.6-1.4-4" style="fill:#e3ae20"/><path d="M43.9 151c0-.5.1-.9.1-1.4.5 1.6.9 3.2 1.4 4.8h-.1c-.3-1.1-.5-2.2-.8-3.2-.2 0-.5.1-.7.1h-.1v-.3c.1.1.1.1.2 0" style="fill:#e8b61a"/><path d="M43.6 151.9c0 .5-.1 1-.1 1.5-.3-.3-.7-.5-.9-.8-.2-.3-.3-.8-.5-1.5.3.1.2 0 .1 0 .5.3.9.6 1.4.8" style="fill:#fbd804"/><path d="M43.9 151.3c.2 0 .4-.1.7-.1.2 1.1.5 2.1.8 3.2-.3.1-.7.3-1 .4-.2-1.1-.4-2.3-.5-3.5" class="st155"/><path d="M43.6 151.9c-.5-.2-.9-.5-1.4-.7V150c.3.1.6.2.8.4.3.3.6.7.8 1-.1.1-.1.3-.2.5" style="fill:#f6d009"/><path d="M24.2 146.1c.1-.8.2-1.5.3-2.3.1-.3.3-.5.5-1 .3.3.6.7.9 1v.4c0 .3.1.7.1 1 .1.5.1.9.2 1.4-.5-.5-1-.9-1.7-1.5-.1.6-.2.8-.3 1" style="fill:#f8cf1a"/><path d="M25.9 144.2v-.3c.2-.3.5-.7.7-1l.1-.1c0 .5.1.9.1 1.4l-.1.1c-.2 0-.5 0-.8-.1" class="st14"/><path d="M26.6 142.9c-.2.3-.5.7-.7 1v-.1c.3-.3.5-.6.7-.9" style="fill:#c7a91d"/><path d="M35 156.5c.1.9.3 1.8.4 2.7-2.5-3-4.9-6.1-7.4-9.1 1.1-.5 2.2-1 3.3-1.6 1 .9 1.9 1.8 2.9 2.7 0 .3.1.7.1 1 .3 1.4.5 2.8.7 4.3" class="st187"/><path d="M24.2 146.1c.1-.2.1-.4.3-1 .6.6 1.1 1.1 1.7 1.5.2-.1.5-.3.7-.4 2-.6 4.1-1.2 6.1-1.9-.2.7-.4 1.3-.6 2l-8.1.3c0-.2 0-.4-.1-.5" class="st49"/><path d="M34.5 209.4c-.7-.1-1.4-.1-2.1-.2-.5-.1-.9-.3-1.2-.3.1-.2.3-.5.3-.7-.1-.9-.4-1.9-.5-2.8 1.1 0 2.3.1 3.4.1.1 1.1.1 2.3.2 3.5.3.1.8.2 1.2.4z" style="fill:#1e8d3a"/><path d="M26.9 146.2c-.2.1-.5.3-.7.4-.1-.5-.1-.9-.2-1.4.2-.3.5-.6.7-.9l.1-.1c.1.7.1 1.3.1 2" style="fill:#a7872f"/><path d="M26.8 144.4c-.2.3-.5.6-.7.9 0-.3-.1-.7-.1-1 .2 0 .5 0 .8.1" class="st107"/><path d="M184.6 95.1s3.6-8.6 2.5-9.5c-1.2-.8-10.9 5-10.9 5z" class="st196"/><path d="M261 111s-2.9 14.6-14.2 4.6c0 0 3.6-12 14.2-4.6" class="st197"/><path d="M192.6 101.6s6 6 5.1 10.4c-.9 4.4-8.9 2.9-8.9 2.9l-6.6-8.9 7-6.5z" class="st196"/><path d="M26.6 205.1s-6.7-21.7 17.5-14.7c0 0 3.9 18.3-17.5 14.7" class="st198"/><path d="M352.8 19.3c.2-1.6.3-3.4-.8-4.5-.8-.8-2.1-.9-3.2-.6-1.1.3-2 1-2.9 1.6-2.7 1.9-5.3 3.8-8 5.7-.5.4 8.7 6.2 9.8 6.5 5.8 1.9 4.5-3.9 5.1-8.7m-69 8.1c-1.4-.6-3.1-1.3-4.5-.5-1 .6-1.4 1.7-1.5 2.9 0 1.1.3 2.2.7 3.3 1 3.1 2.1 6.2 3.1 9.3.2.6 8.4-6.5 9-7.5 3.6-5.2-2.4-5.6-6.8-7.5" class="st199"/><path d="M348.2 28.6S371.7 5.2 383 44.7c0 0-26.7 19.2-34.8-16.1" class="st198"/><path d="M614.2 359.4H449.3v-51.5c38.4-36.6 82.2-11.4 85.1 15.8 43.7-28.4 84.8-5.7 79.8 35.7" style="fill:#404eed"/><path d="M449.3 223.5H13.7v135.9h435.6z" class="st201"/><path d="m13.7 265.5 435.6-35.1v-6.9H13.7z" style="fill:#4b59f2"/><path d="M449.3 223.5h-3.2v135.9h3.2zm-39.3 0h-3.2v135.9h3.2zm-39.3 0h-3.2v135.9h3.2zm-39.3 0h-3.2v135.9h3.2zm-39.4 0h-3.2v135.9h3.2zm-39.3 0h-3.2v135.9h3.2zm-39.3 0h-3.2v135.9h3.2zm-39.3 0h-3.2v135.9h3.2zm-39.3 0h-3.2v135.9h3.2zm-39.3 0h-3.2v135.9h3.2zm-39.3 0H53v135.9h3.2zm-39.3 0h-3.2v135.9h3.2z" class="st203"/><path d="M131.9 97.8c-4.1-13.6-6.3-20.1 1.1-24.1s29.9-1.3 40.4 1.2 12 5.1 5.1 15.4z" class="st204"/><path d="M128.8 101.2c-3.9 4.5-7.8 9.5-12 14.8-.3.3-.5.8-.5 1.2 0 .5.1.9.4 1.3 1.3 1.9 4.4 5.3 11.1 9.7-1.3 17.9-2.3 51.5-.7 91.9l91.6-.1s4.7-33.1-14.5-48.7c4.3-14.4 6.5-25.6 6.4-34.9 0-3.1-1.2-6-3.4-8.2-2.2-2.2-5.1-3.4-8.2-3.4h-4.8s-1.6-3.1-3.8-7.1c-2-3.7-4.5-8.2-6.5-11.8 1.8-1.4 3.6-3 5.2-4.6.2-.2.3-1.5.1-1.8-20.7-20.6-33.7-19.2-43.2-13.8-10.3 5.9-17.7 16.3-25.4 25-2.5 2.8-5.1 5.9-5.4 9.6-.2 2 .3 4.2.9 6.2.6 1.9 1.6 3.8 3.3 4.9.8.5 1.7.9 2.5 1.2 3.9 1.4 8.1 2.2 12.3 2.2" class="st196"/><path d="M204.2 171.3c.6-2.1 1.2-4 1.7-6l-15.1 8.4s-23.9-16.1-64-26.1c-.7 18.6-.8 43.8.3 72.5h91.6s4.7-33.2-14.5-48.8" class="st205"/><path d="M208 175c-1.2-1.3-2.4-2.6-3.8-3.7.6-2.1 1.2-4 1.7-6l-15.1 8.4s-23.9-16.1-64-26.1c-.1 2.3-.2 4.8-.2 7.3 30.7 12.7 47.2 34.5 49.1 65.2h22.7c4-17.6 7.2-33 9.6-45.1" class="st206"/><path d="m176.1 90.7-35.8 2.6c40 7.6 41.7 8.7 35.8-2.6"/><path d="m195.9 195.5-3.8-35.5c-.1-.6-.4-1.2-.9-1.6-.5-.4-1.1-.6-1.7-.6h-3.8l-1.7-3.3c-.5-.9-1.4-1.6-2.3-1.9-1-.3-2.1-.3-3.1 0-1 .4-1.8 1.2-2.3 2.2-7.5 16.1-11.2 42.6-11.9 47.6 0 .2 0 .5.2.7.1.2.3.3.5.4l21.6 6.9c.1.1.3.1.4.1.1 0 .3-.1.4-.1.1-.1.2-.2.2-.3v-.4l-.8-10.1 8-2.5c.3-.1.6-.3.8-.6.2-.3.2-.7.2-1" class="st207"/><path d="m177.4 167.2-3.3 34.5" style="fill:none;stroke:#d11583;stroke-width:2;stroke-linecap:round;stroke-miterlimit:10"/><path d="M167.2 116.7c1.4-.6 1.6-3.2.6-5.8-1.1-2.7-3.1-4.4-4.5-3.8-1.4.6-1.6 3.2-.6 5.8 1.1 2.7 3.1 4.4 4.5 3.8m14.9-.5c.9-.4.8-2.7-.2-5.3-1-2.6-2.6-4.3-3.5-4-.9.4-.8 2.7.2 5.3 1 2.6 2.6 4.4 3.5 4"/><path d="M191.6 142.4c-7.7 0-15.2-2.6-21.2-7.5-6.2-5.1-3.7-5.7.2-5.8 3.9-.1 22.6.6 28 1.4 5.4.8 6.4 11.5-7 11.9" style="fill:#912869"/><path d="m191.2 153.6-.4-3.7c2.8-.2 5.6-1 8.1-2.3" class="st210"/><path d="M163.5 106.8c2 .1 4.1-.2 6-.8m9 .8c1.3 0 2.5-.2 3.7-.8" class="st211"/><path d="M135.3 94.3c35.7-.5 47.8-4.5 58-8.2 10.2-3.7 9.2-6.6 1.4-6.3-7.8.3-34.5 10.5-59.4 14.5" class="st204"/><path d="m126.5 158.1-.2 9.8 4.9-1.9s26.1-10.9 32.3-12.4c6.2-1.5 12.1 1.4 21 4.8s6.6 6.5 3.8 9.5-2.7 2.8-17.4 2.8c-28.1 20.3-36.7 32.2-48.2 32.2-6.9 0-12.8-3.1-17.2-16.7-4.4-13.6 3.8-19.8 21-28.1" class="st196"/><path d="m224.4 169.3-15-18.1-25.6 25.5 18.1 15.1c-.2 1.7 0 3 .9 3.9 2.7 2.7 10.6-.8 17.7-7.8s10.5-15 7.8-17.7c-.9-.9-2.2-1.1-3.9-.9" class="st212"/><path d="M200 167.4c7-7 11.2-14.2 9.3-16.1-1.9-1.9-9.1 2.3-16.1 9.3-7 7-11.2 14.2-9.3 16.1 1.8 1.9 9-2.3 16.1-9.3" class="st212"/><path d="M198.2 165.7c6.4-6.4 10.6-12.4 9.5-13.5-1.1-1.1-7.1 3.2-13.5 9.5-6.4 6.4-10.6 12.4-9.5 13.5 1.1 1.1 7.2-3.2 13.5-9.5" class="st206"/><path d="M223 161.7c4.3.6 6 4.5 4.3 9.7-.2.6-.5 1-1 1.4-.4.4-1 .7-1.5.8-.6.1-1.2.1-1.7-.1-.6-.2-1.1-.5-1.5-.9-1-1-1.6-2.4-1.7-3.8-.1-1.4.3-2.9 1.1-4.1z" class="st196"/><path d="M215.5 158.7c-.2 3.7-2.4 7.4-4 9.8-.4.7-.6 1.5-.6 2.3.1.8.4 1.5 1 2.1l.8.7c.3.3.6.5.9.6.3.1.7.2 1.1.2.4 0 .7-.1 1.1-.2.3-.1.7-.4.9-.6 3-2.8 5.1-6.3 6.1-10.3 1.2-5.4-2.7-9.2-9.5-7.4z" class="st196"/><path d="m135.3 94.3 12.2-1 29.3-5.8-7.3-7.2h-34.9z" class="st204"/><path d="M465.4 223.5H4.3" style="fill:none;stroke:#2835bd;stroke-width:8;stroke-linecap:round;stroke-linejoin:round"/><path d="M184.4 174.7c.1.2.2.4.4.5.1 0 .1 0 .1.1s7.2-3.5 13.4-9.7v-.2l-3.9-3.8-3.2-3.3-4.2.2-8.2-3.1-.3.7c3.5 1.2 4.2 13.8 5.9 18.6" class="st207"/><path d="M185.7 157.9c1.7 3.4 3.2 6.9 4.5 10.5.1.2.2.3.3.4.1.1.3.2.5.2h.3c.2-.1.4-.2.5-.4.1-.2.1-.4.1-.7-.1-.3-2.3-6.1-4.3-10zm1.2 41.8h-.2L179 202c-.1 0-.3.1-.4.2-.1.1-.2.2-.2.4v.5c.1.2.1.3.3.4l6.8 5.9c0 .1.1.2.2.2.1.1.2.1.3.1.1 0 .3 0 .4-.1.1-.1.2-.1.3-.2.1-.1.1-.2.2-.3 0-.1.1-.2 0-.4 0-.1 0-.2-.1-.3-.1-.1-.1-.2-.2-.3l-5.6-4.9 6-1.8z" class="st214"/><path d="m126 167.6-14.1 6.7" class="st210"/><path d="M180.9 82.8c-15.4 4.1-31 7.4-46.8 9.9" style="fill:none;stroke:#ffc619;stroke-width:2;stroke-linecap:round;stroke-miterlimit:10"/><path d="m193.4 178.6 10.8 9.9c.3.3.8.5 1.2.5.4 0 .9-.1 1.3-.3.2-.2.4-.4.6-.7.1-.3.2-.5.2-.8s0-.6-.1-.9c-.1-.3-.3-.5-.5-.7l-10.5-10.1c-.3-.3-.7-.5-1.2-.5-.4-.1-.9 0-1.2.2l-.3.2c-.3.2-.5.4-.7.6-.2.3-.3.6-.3.9 0 .3 0 .6.1.9.2.3.4.6.6.8" class="st206"/><path d="M220.5 170.5c1.8-2.4 3-5.3 3.3-8.3" class="st210"/><path d="M309.2 32.2c.9-4.3-1.9-8.6-6.4-9.5-4.4-.9-8.8 1.8-9.7 6.1-.9 4.3 1.9 8.6 6.4 9.5 4.4 1 8.8-1.7 9.7-6.1" class="st216"/><path d="M362.7 106.5c7.3.4 16.1 3.4 27.1 15.6 6.2-6.2 9.2-4.5 17.5 2.6s26.1 20.6 30.5 25.1c4.4 4.5 7.7 14.2-4.3 21.5s-33.3-6.1-44.5-13.9c-11.2-7.8-26.3-16.9-26.3-16.9z" class="st217"/><path d="M404 121.9c2.9 4.8 5.4 9.8 7.3 15.1 2.3 7.2-.6 11.4-6.5 16.3s-8.3 3.8-11.4 1.3c-.2-.1-.4-.1-.6-.1-.2 0-.4.2-.5.3-.1.2-.2.4-.2.6 0 .2.1.4.2.6 1.6 1.4 3.6 2.2 5.7 2.3 2.5 0 5-1.2 8-3.7 5.1-4.3 9.9-9.2 6.9-18.2-1.1-3.2-2.5-6.4-4.1-9.4-.6-1.2-1.5-2.3-2.5-3.2z" class="st197"/><path d="M388.9 151.8c5.4 5.2 18.3 14.4 18.3 14.4" class="st211"/><path d="M370.5 72.5c-.1-.6-.5-1.1-1.2-1.3-1.6-.4-3.3-.2-4.9-.2-1 0-2 .1-2.9.6-.9.4-1.6 1.3-1.7 2.3-.1 1.8 1.9 3.2 1.6 4.9-.2.9-.9 1.5-1.3 2.3-.5.7-.7 1.9 0 2.4.3.2.7.3 1.1.3 1.1.1 3.5.4 4.4-.3l.1-.1c-6.3 10.1-16.7 18.3-29.7 22-25.9 7.4-52.2-5.6-58.9-28.9-6.6-23.3 8.9-48.2 34.8-55.6 25.9-7.4 52.2 5.6 58.9 28.9 2.1 7.5 1.9 15.4-.3 22.7" class="st198"/><path d="M332.2 58.8c-1-1.3-1.6-2.8-1.7-4.5-.1-1.6.3-3.2 1.1-4.6 8-13.6 15.3-14.1 20.5-13.8s9.2 5.2 4.9 17.6c6.1 6.6 3.6 12.7-5.1 13.5-8.7.8-13.4.1-19.7-8.2" class="st214"/><path d="M365.3 83.4c-.5.3-1.4.4-2.3.3.8 0 1.6-.1 2.3-.3" class="st218"/><path d="M419.3 244.5c-3.1 14.8-20.6 46.8-33.9 79.4l-15.6-39.3 14.8-35.3s-19.2-16.7-32.7-31.6l-37.1-19.8c-2 .7-4.1.9-6.1.6-2.1-.3-4-1.2-5.7-2.5-8.1-6.5-3-27.7-7.8-49.6-4.8-21.9 11.3-31.6 11.3-31.6l-1.1-.4c-.5-.2-1-.5-1.4-.9-.4-.4-.7-.9-.9-1.4-.2-.5-.3-1.1-.2-1.6 0-.6.2-1.1.5-1.6l.4-.7-5.7-8c17.6-17.1 34.1-15.9 46.3-15.5 6.2.2 12.4-.1 18.6-.9.9 0 1.8 0 2.3-.3h.3c.4 0 .7 0 1 .1.3.1.6.3.9.5.3.2.5.5.6.9.1.3.2.7.2 1-.7 8.9-2 22.2-2 22.2 10.8 14.2 11.8 27.4 12.8 37.2s11.5 14 10.3 46.8c23 28.8 33 37.5 29.9 52.3" class="st217"/><path d="M374.8 303.8c7.4-22.9 15.7-43.6 18.2-49.6.2-.5.3-1.1.1-1.7-.1-.6-.4-1.1-.8-1.4-21.6-20.7-26.7-27.8-26.7-27.8" class="st219"/><path d="m317.7 178-13.4-9.1s8.1-11.1 12.6-17.8l1.1-1.7c0-.1.1-.2.2-.3.1-.1.2-.1.3-.2.1 0 .2-.1.3 0 .1 0 .2 0 .3.1.2.1.3.2.4.4.1.2.1.4.1.6-2.9 17.7-1.9 28-1.9 28"/><path d="M368.1 87.6c-7.1 2.4-16.5 2.3-27.7 2-11.2-.3-22.5-.6-41 12.4l3 4.3c17.1-12.1 26.3-11.8 37.9-11.5 11.6.3 19.8.4 27.4-1.6.1-1.9.3-3.8.4-5.6" class="st197"/><path d="M362.7 190.5c.2 0 .4-.1.6-.2.2-.1.3-.4.3-.6.2-16.1-5.9-32.5-8.5-38.8-2.7-6.5-4.4-13.4-4.9-20.4-.8-9.1-2.7-16.2-3.9-19l3.4-26.8h-1.8l-3.4 27.1v.2c1.1 2.4 3.1 9.5 3.9 18.7.5 7.2 2.2 14.2 4.9 20.9 2.7 6.2 8.7 22.3 8.5 38 0 .2.1.5.3.6.1.2.4.3.6.3"/><path d="M420.5 346.5c-.4-.5-.8-1-1.4-1.3-.6-.3-1.2-.5-1.8-.5.6-3.6-.1-6.6-4.8-7.7-5.4-1.2-11.1-1-16.4.5-9.2-23.6-27.4-85.8-40.1-131.2l-41.2-8.4c-.4 11.3 7 36.2 12.4 57.6s17.3 66.2 20.6 82.4c2 9.8 4.9 21.5 4.9 21.5h38.2c11.2 0 25.6-4.4 28.4-6.6 2.8-2.2 2.2-4.5 1.2-6.3" class="st217"/><path d="M359.2 336.3c-11.8-37.2-29-87.2-39.5-138" class="st219"/><path d="M339.6 192.1c.2-2.9-3.8-13.8-8.6-21.7-4.8-7.9-7.2-13.5-11.7-10.9s-15 9.4-15 9.4 8.1-11.1 12.6-17.8c9.7-14.6 6.3-34.7-10.4-36.3-13.7 7.6-15.8 14.1-28.8 37s-20.7 47.3-6.7 57.4c14 10.1 27.5 3.1 52.7-8 10.9-4.7 15.8-6.1 15.9-9.1" class="st217"/><path d="M323.9 199.7c-2.8-1.3-5.3-5.5-8.3-14.1-5-14.5-6.3-18.9-3.2-21.9l-1.9 1.2c-.4.3-.8.7-1.1 1.1-.3.5-.4 1-.4 1.5-.1 3.8 1.8 9.4 5 18.7 2 5.8 3.8 9.7 5.7 12.1.7 1 1.8 1.8 3 2.1 1.2.3 2.5.2 3.6-.3-.8.1-1.7-.1-2.4-.4" class="st197"/><path d="M331 170.4c-4.7-7.9-7.2-13.5-11.7-10.9s-27.5 17.1-27.5 17.1" class="st211"/><path d="M366.7 114.6c2.4 4.6 6.7 12.8 7.6 15.5.3 4.2.1 11.4.1 13.6 0 .2.1.4.2.6.1.2.3.3.5.3 6.8 1 9.7 1.1 12.5.8 2.8-.3 6.7-1.6 9.4-2.4.3-.1.5-.3.6-.6.1-.3.1-.6.1-.9-2.5-8.2-4.2-14.1-4.2-14.1-.5-10.2-.6-18.3-.6-21 0-.3-.1-.5-.3-.7-.2-.2-.4-.3-.7-.3-9.3-.6-12.5-.6-15.9-.4s-4.5 2.2-9.2 7.8c-.2.2-.3.6-.4.9 0 .3.1.6.3.9" class="st212"/><path d="M397.7 142.4c-.1.3-.4.5-.7.6.8-.4-.3-.8-.3-.8l-14.6-1 .6-17.1-5.5-11.7c4.8-5.2 6.8-5.1 10.1-3.7 1.9.9 3.8 1.8 5.7 2.9.1 3.9.2 9.5.5 15.8 0 0 1.7 5.9 4.2 14.1.1.3.1.6 0 .9" class="st199"/><path d="M384.3 134.2c-3.1 2-6.4 3.8-9.8 5.3-.1 1.9-.1 3.4-.1 4.2 0 .2.1.4.2.6.1.2.3.3.5.3 6.8 1 9.7 1.1 12.5.8 2.8-.3 6.7-1.6 9.4-2.4.3-.1.5-.3.6-.6.1-.3.1-.6.1-.9l-.6-2c-4.5-1.2-8.8-3-12.8-5.3" class="st212"/><path d="M397.1 139.5c-4.5-1.2-8.8-3-12.8-5.3l-2 1.3-.2 5.5c0 .1.1.1.1.2.1.1.1.1.2.1l14.3.9s1.1.4.3.8c.3-.1.5-.3.7-.6 0-.1.1-.3.1-.4 0-.2 0-.3-.1-.5l-.6-1.9z" class="st199"/><path d="M322.8 162c3.1-3.7 5.5-8 6.8-12.6 1-3 2.1-7.3 2.5-8.9s2.3-2.5 4.6-2 3.3.9 2.9 5-1.3 13.8-1.3 13.8z" class="st198"/><path d="M368.8 164.4c-1.5-4.1-2.2-6.2-3.5-7.9-1.3-1.7-2.5-2-8.3-2.3-2.3-.1-6.7 0-9.6.1 5.7-1.5 11.8-2.8 13.1-3.2 1.3-.4 3.9-.8 3-3.3s-1.7-3.1-3.1-3.1c-3.6-.1-7.2.2-10.7.9-5.1 1-10.2 2.4-15.1 4.3-2.9 1.2-6.6 6.6-11.8 12.1 2.3 8.1 7.8 20.5 13.4 26.4 7.4-2.9 11.8-9.3 13.6-11.7 9.3-1.6 12.5-.6 17.7.1 3.2.4 3.5-1.9 3.7-3 .2-1.1-1.1-5.6-2.4-9.4" class="st198"/><path d="M327.1 8.9c2.1-.4 4.2-.1 6.1 1 1.8 1 3.2 2.7 3.9 4.7 1.5 4.7 2.8 11.8-5.2 13.1-3.4.5-6.9-1-12.3-5.2-3.9-3.1-8.1-4.2-17.2.5-4.9-3.4-2.5-12.1 10.8-7.7-5.8-7.5-4.1-12.7.1-14.2 4.2-1.5 10.5-.7 13.8 7.8" class="st216"/><path d="M327.1 23.3c-2.9-3.6-5.3-8.4-7.3-12.5s-4-8.4-6.2-9.7h-.3c-.8.3-1.5.7-2.1 1.3l.7-.2c1.9.2 4 4.6 6.3 9.3 2.3 4.7 4.5 9.1 7.5 12.9 1 1.2 2.1 2.3 3.4 3.2.9.2 1.9.2 2.8.1h.1c-1.8-1.2-3.5-2.7-4.9-4.4m10.1 1.4c-.4.6-1 1.2-1.6 1.6-.5-6.6-3.4-12.9-8.3-17.4.8-.2 1.5-.2 2.3-.1 4.2 4.3 6.9 9.9 7.6 15.9"/><path d="M347.4 335.7c.1.8.3 1.5.4 2.2 2 9.8 4.9 21.5 4.9 21.5h38.2c11.2 0 25.6-4.4 28.4-6.6 2.8-2.2 2.2-4.5 1.2-6.3-.4-.5-.8-1-1.4-1.3-.6-.3-1.2-.5-1.8-.5.6-3.6-.1-6.6-4.8-7.7-5.4-1.2-11.1-1-16.4.5-1.4-3.7-3.1-8.3-4.9-13.6-16.8-.3-33.9-1.7-43.8 11.8" class="st220"/><path d="M347.4 335.7c.1.8.3 1.5.4 2.2 2 9.8 4.9 21.5 4.9 21.5h38.2c11.2 0 25.6-4.4 28.4-6.6 2.8-2.2 2.2-4.5 1.2-6.3-.4-.5-.8-1-1.4-1.3-.6-.3-1.2-.5-1.8-.5.6-3.6-.1-6.6-4.8-7.7-5.4-1.2-11.1-1-16.4.5-1.4-3.7-3.1-8.3-4.9-13.6-16.8-.3-33.9-1.7-43.8 11.8" class="st220"/><path d="m396.1 337.5-1.3.3h-.2l-10.9 2.2c-.2-.2-.3-.5-.3-.8-.8-2.8-1.3-5.8-1.3-8.7-.1-6.1-3.3-6.7-8.8-6.6l.3-.7c.7-1.9 2.1-3.6 3.8-4.8 1.7-1.2 3.8-1.8 5.8-1.7h9.1c.5 0 1.1.1 1.5.4.5.2.9.6 1.2 1 .3.4.6.9.7 1.4.1.5.2 1.1.1 1.6-1.1 4.7-1.4 10.5-.3 14.8.2.5.4 1.1.6 1.6" class="st205"/><path d="M357.5 343.6c-1.4-.5-2.8-.6-4.2-.5-1.4.1-2.8.5-4.1 1.2.1.6.2 1.2.4 1.8 1.1-.7 2.3-1.1 3.6-1.3 1.3-.2 2.5 0 3.7.4 5.6 1.9 9.7 9.2 11.8 14.2h1.9c-2.2-5.2-6.6-13.6-13.1-15.8" class="st201"/><path d="m420.2 351.9-.9.9c-2.8 2.2-17.2 6.6-28.4 6.6h-22.8v-.4c26.2-.4 44-11.3 50.1-11.3 2 0 3.2 3 2 4.2"/><path d="M351.2 130.4c-1 0-2-.4-2.7-1-.7-.7-1.2-1.6-1.3-2.6l-.8-9.1h1.8l5.3 8.7c.2.4.3.9.3 1.3 0 .5-.1.9-.4 1.3-.2.4-.6.7-1 1-.3.3-.7.4-1.2.4" class="st199"/><path d="M306.5 114.8h9.8" class="st211"/><path d="M362.2 228.4c-1.2-4.3-3-10.4-3-10.4 8-5.2 15.7-11.1 22.9-17.4 0 0-8.3 18.4-12 35.5z"/><path d="m384.6 249.3 9.7-.4" class="st211"/><path d="m396.1 337.5-1.3.3h-.2c-4.3 1-8.6 2.3-12.8 3.9h-.3c-.2 0-.3-.1-.5-.2-.1-.1-.2-.3-.3-.4 0-.1-.1-.2-.1-.3 0-.1 0-.2.1-.3 0-.1.1-.2.2-.3.1-.1.2-.1.3-.2l2.2-.9c4-1.4 8.1-2.5 12.2-3.4.1.6.3 1.2.5 1.8m-27-172.3-.3-.8-.4-1c-8.7-.9-17.8-1.5-26.7-.6-.1 0-.2.1-.3.1-.1.1-.2.1-.3.2-.1.1-.1.2-.2.3v.4c0 .2.1.2.1.3.1.1.1.2.2.3.1.1.2.1.3.2h.4c9-1 18.3-.3 27.2.6"/><path d="m301.2 53.8-5.8 2.8 8.1 3.7zm119 298.1c.6-.8-.1-1.3-2-1.3-6.1 0-23.9 8.4-50.1 8.8h-15.4l-1.1-4.4c12 0 25.1-.2 37.3-4.1 12.2-3.9 20.3-7.2 28.4-6.2.6 0 1.3.2 1.8.5.6.3 1 .8 1.4 1.3.5.8.8 1.8.8 2.8-.1.9-.5 1.9-1.1 2.6" class="st212"/><path d="M388.9 319.9h1.2c2.8 0 4.7.1 5.3.8.6.7.3 1 .1 2 .1-.6.2-1.1.4-1.7.1-.6-.1-1.3-.4-1.8-.4-.5-.9-.8-1.6-.9h-5c-4.6 0-9.8 0-12.5 5.9.6 0 1.2.1 1.8.3 2.3-4.7 6.4-4.6 10.7-4.6" class="st197"/><path d="M220.9 359.4h-66.5v-14c0-3.6 1.4-7.1 3.9-9.7l6.6-6.4c.8-.8 1.5-1.8 2-2.8.5-1.1.7-2.2.7-3.4v-16c0-3.2 1.1-6.3 3.1-8.8 2-2.5 4.8-4.3 7.9-5 10.7-2.7 21.8-3.2 30.9-1.4 3.2.7 6.1 2.4 8.2 5 2.1 2.6 3.2 5.7 3.2 9z" class="st220"/><path d="M171.5 332.6h.4c.2 0 .3 0 .5-.1.1-.1.3-.2.3-.3 3-5.8 3-14.8 3-24.4 0-9.6.9-13.2 7.3-15.6l-3.4.7c-.9.2-1.7.6-2.4 1.1-.7.6-1.3 1.3-1.7 2.1-1.4 2.8-1.6 6.5-1.6 11.7 0 9.4 0 18.2-2.8 23.6-.1.1-.1.2-.1.3v.4c0 .1.1.2.2.3.1.1.2.2.3.2" class="st206"/><path d="M220.9 305.9c0-3.3-1.2-6.5-3.2-9.1-2.1-2.6-5-4.3-8.2-4.9-5.3-.9-10.8-1.2-16.2-.9-12.8.9-10.9 9-10.9 20.8v10.1c0 3.4-.9 6.7-2.6 9.6-1.9 3.1-2.4 6.9-2.4 14.3v13.6H221v-53.5z" style="fill:#3f99f2"/><path d="M204.9 343.3c-.6-17.4-8.5-32.6-16.5-47.1-.2-.3-.3-.6-.3-1s.1-.7.2-1c.2-.3.4-.6.7-.7.3-.2.7-.3 1-.3h2c.4 0 .8.1 1.2.4.4.2.7.5.9.8 8.2 15.1 16.8 30.8 17.4 48.9.3 9.1-6.6 16.1-15.8 16.1h-6.6c9.2 0 16.1-7 15.8-16.1" class="st203"/><path d="M223.7 343.3c-.6-17.4-8.6-32.6-16.5-47.1-.2-.3-.3-.6-.3-1s.1-.7.2-1c.2-.3.4-.6.7-.7.3-.2.7-.3 1-.3h2c.4 0 .8.1 1.2.3.4.2.6.5.8.9 8.3 15.1 16.8 30.8 17.5 48.9.1 2.1-.2 4.2-1 6.2s-1.9 3.8-3.4 5.3-3.3 2.7-5.2 3.5c-2 .8-4.1 1.2-6.2 1.1h-6.6c2.1.1 4.2-.3 6.2-1.1s3.7-2 5.2-3.5 2.6-3.3 3.4-5.3 1.1-4.1 1-6.2" class="st203"/><path d="m207.4 316.3 20.3 3.5c1.6 4.2 2.4 7 2.6 9.7s-2.4 4.2-6.4 5.8c-2.9 1.2-5.5 2.9-7.8 5-5.8 5.1-10.7 8.2-19.2 8.2-1.7 0-2.9.1-3.9-1-1.1-1.2-1.7-2.7-1.8-4.3-.1-1.6.4-3.2 1.3-4.5 1-1.4 2.3-2.6 3.7-3.6 3-2 5.6-4.6 7.5-7.6 1.9-3.1 3.1-6.5 3.5-10.1.1-.5.1-.8.2-1.1" style="fill:#de3a93"/><path d="M223.9 335.3c1.7-.6 3.3-1.5 4.7-2.6 1.9-1.8 1.1-3.5-3-3.4-4.1.1-8.4 3.3-17 8.6s-21.4 10.6-11.7 10.6 13.4-3.1 19.2-8.2c2.3-2.1 4.9-3.8 7.8-5"/><path d="M205.2 310.2c-1.5.3-1.3 2-.5 3.7-1.6 3-.6 4.2 2.2 5.4 5.7 1.9 11.6 2.7 17.6 2.4 6.1-.6 5.7-2.6 5.1-4.6 2.1-1.8 1.8-3.9-.3-4.8-2.1-.9-13.4-4.4-24.1-2.1" class="st223"/><path d="M250.3 205.8h-26.2v14.3h26.2z" class="st212"/><path d="M303.6 206.1c.5 2 .5 4.2.1 6.2s-1.3 4-2.6 5.6c-1.3 1.6-2.9 3-4.8 3.9s-3.9 1.4-6 1.4h-28.6l-13.4 7.5v-.4c-6.1 0-9.6-2-6.9-24.4-1.2-6.3-6.8-31.1-9.9-49.6-2.8-16.9 3.5-23.1 20.9-32.9 7.4-22 26.6-20.7 30.3-7.5 3.6 13.2 15.8 69.3 20.9 90.2" class="st223"/><path d="m249.9 237.8-4.6.8c-.2 0-.4.1-.6.3-.2.1-.3.3-.5.5-.1.2-.2.4-.2.6 0 .2 0 .5.1.7l1 2.5c-13.9.8-26 2-30.8 6.2-4.8 4.2-4.8 10.6-7 29.7s-5.8 30.5 0 33.1c5.9 2.5 12.3 3.5 18.7 2.8 6.4-.6 7-3.9 8.3-13.8 1.3-9.9 4.4-31.9 4.4-31.9h50.5c12.5 0 19.9-8.2 21.6-15.2 1.2-5-.4-16.8-3.3-30.8h-45.9l-13.4 7.5 1 4.3z" class="st197"/><path d="M292 223.5c5 25 6 43.8-13 52.4" style="fill:none;stroke:#2330bf;stroke-width:2;stroke-miterlimit:10"/><path d="M252.7 210.9s2.1 12.3 5 26.9c3.3 16.8 2.4 16.2-20.5 17.7-20.1 1.3-18.3.3-22.5 23.2-1.6 9-4.4 25.3-3.6 34.3 0 0-.9 5.3-.7 6.4" style="fill:none;stroke:#2467d4;stroke-width:2;stroke-linecap:round;stroke-linejoin:round"/><path d="M238.7 269.3c-11.1-1.7-16.5-11.7-16.5-11.7" class="st210"/><path d="M238.7 269.3c-2.3-1.3-4.3-3.1-5.8-5.2-1.6-2.1-2.7-4.5-3.4-7.1" class="st210"/><path d="M303.6 206.1c-2.6-10.8-7.2-30.8-11.5-49.5l-22.4-1.7-17.3 12.2-10 13.4-5.1 6.9c1.8 8.6 3.3 15.6 3.9 18.6-2.7 22.4.8 24.4 6.9 24.4l17.7-7.5 41-2.9c-1-4.5-2.1-9.2-3.2-13.9" class="st207"/><path d="M257.8 194.8c1.3-7.5.6-13.8-1.5-14.1-2.1-.3-4.8 5.4-6 12.9-1.3 7.5-.6 13.8 1.5 14.1 2 .4 4.7-5.4 6-12.9"/><path d="M244.7 176.3c1-1.8 2.1-3.6 3.2-5.2 11.3-16.3 21.9-20.7 32.1-20.7h12.7c.2 0 .4.1.5.1.2.1.3.2.4.4.1.2.2.3.2.5s0 .4-.1.6l-1.7 4.6c-19.5 0-26.4-.6-42.6 16.4l-7.1 7.5z" class="st214"/><path d="M306.8 220h-33.1c-7.4 0-16.5-.4-25.6 10.4l1.1 4.7c5.3-5.1 10.2-7.3 20.8-7.3h38.4z"/><path d="M249.5 173.6c-6.7 1.2-12 4.7-15 10.9-.9 1.7-2.1 3.2-3.6 4.4l-18 13.1c-2 1.4-3.4 3.6-4 6-.5 2.4-.1 5 1.2 7.1.9 1.5 2.1 2.7 3.6 3.6 1.5.9 3.2 1.3 5 1.3h7.5c15.6-8.7 22.8-14.6 26.5-18s7.8-9.5 7.1-16.5c-.7-7-2.7-13.3-10.3-11.9" class="st212"/><path d="M255.1 121.9c-2.4-4-5.6-9.3-6.8-11.8s-4.1-1.9 0 9.3c-10-3.8-12.1-2.4-12.6-1s1.7 2.1 5.9 4.5 8.7 5.3 8.7 5.3z" class="st223"/><path d="M265.5 122.2c1.7-2.1 2.3-4.4 1.3-5.2s-2.1-.4-3.6 1.6c-.6.8-1.3 1.6-2.1 2.3-1.7 1.6-1.3 2.8-.5 3.5.8.7 3.2-.1 4.9-2.2"/><path d="M282.5 116s-11.9-5.4-17-8.7c-5.1-3.3-7.7-8.2-5.4-9.5 2.3-1.3 6.7 1.8 9.8 5.8-.1-7.1 1.1-8.6 3-8.7s2.1 2.7 2.2 6.7.8 5.6 3.8 8.3c1.8 1.6 3.1 3.7 3.6 6.1" class="st197"/><path d="M238.8 149.2c-2.8 0-5.2-2.4-3-6.6 2.2-4.2 9.4-8.4 12.9-10 3.5-1.6 5.1 0 5.2 1.2s-.4 3-2.9 6.2-7.1 9.2-12.2 9.2" class="st212"/><path d="m241 148.9-1.7.3-2.4-8.2 1.4-1.5zm6.2-4.4-1.4 1.4-2.8-10.1 1.5-1zm5.6-7-1.3 1.8-2-7 1.7-.3z" class="st205"/><path d="M250.6 131.1c1.9.9 3.8 1.7 5.7 2.3m-8.2 109.1 11 13.4" class="st210"/><path d="M256.7 238.5h-3.9l-1.2-5.5-1.1-5.1c1-1 2.1-1.9 3.2-2.8l1.3 5.6zm17.3-5.3h-3.9l-1.2-5.4-1.6-7.6h3.9l1.6 7.7zm31.9-.2H302l-1.2-5.2-1.6-7.8h3.9l1.6 7.8z" class="st197"/><path d="M295.2 169.8c-1.9-1.5-4.3-2.4-6.7-2.5-5.2 0-8.1 5.1-9.1 10-.2.8-.6 1.5-1.2 2s-1.4.8-2.2.8h-.7c-.5-.1-.9-.3-1.3-.5-.4-.3-.7-.6-1-1-.3-.4-.4-.8-.5-1.3-.1-.5-.1-.9 0-1.4 1.9-9.5 8.1-15.6 15.9-15.6 1.3 0 2.5.5 3.5 1.3s1.7 1.9 2 3.2z" class="st212"/><path d="M303.6 206.1c.2.9.3 1.8.1 2.7-.1.9-.5 1.8-1 2.6s-1.1 1.4-1.9 2c-.8.5-1.6.9-2.5 1.1l-2.5.2c-5.7 0-11.6-3.4-16.2-9.3-.3-.4-.5-.8-.6-1.2-.1-.4-.1-.9-.1-1.4s.2-.9.5-1.3c.2-.4.5-.7.9-1 .4-.3.8-.5 1.2-.6.4-.1.9-.1 1.4-.1.5.1.9.2 1.3.5.4.2.7.6 1 .9 3.2 4.1 7.1 6.6 10.6 6.6s5.6-2 7.1-4.6c.2 1 .5 2 .7 2.9" class="st217"/><path d="M296.9 177.5c-.7 0-1.4.2-2 .6-.6.4-1 1-1.2 1.7l-4.2 11.3c-.4 1.1-.4 2.2 0 3.3.4 1.1 1.1 1.9 2.1 2.5.4.3.9.4 1.4.5.5.1 1 0 1.5-.2s.9-.5 1.3-.8c.4-.4.6-.8.8-1.3l2.7-7.3c-.7-3.3-1.5-6.7-2.4-10.3" class="st201"/><path d="M291.6 196.9c-1-.6-1.7-1.5-2.1-2.5-.4-1.1-.4-2.2 0-3.3l1.2-3.1c.2-.5.5-1 .9-1.4.4-.4.9-.7 1.4-.9.5-.2 1.1-.3 1.7-.2.6 0 1.1.2 1.6.5.8.5 1.5 1.2 1.8 2.1.3.9.3 1.9 0 2.8l-1.6 4.3c-.2.5-.4.9-.8 1.3s-.8.6-1.3.8c-.5.2-1 .2-1.5.2-.4-.2-.9-.3-1.3-.6" class="st199"/><path d="M238.6 212.9c-3.2 2.2-6.8 3.8-10.6 4.7" style="fill:none;stroke:#a3d7ff;stroke-width:2;stroke-linecap:round;stroke-linejoin:round"/><path d="M277.3 359.4h-17.5c-10.7 0-20.6-8.6-22.1-19.2s5.3-16.2 16.8-18.7l2-.5c1.6-.3 3-1.3 4-2.6.9-1.4 1.3-3 1.1-4.7-.2-1.6-.9-3.1-2.1-4.2-1.1-1.1-2.6-1.8-4.2-2l-2.9-.3c-12.4-1.3-20.6-8.6-22.1-19.2s5.9-18.7 16.3-18.7h17.5c10.7 0 20.6 8.6 22.1 19.2l7.4 52.2c1.4 10.3-5.9 18.7-16.3 18.7" class="st227"/><path d="M297.6 359.4h-17.5c-10.7 0-20.6-8.6-22.1-19.2-.6-3.9.2-7.9 2.4-11.2s5.4-5.7 9.2-6.8c1.4-.4 2.6-1.3 3.4-2.5.8-1.2 1.1-2.7.9-4.1l-.5-3.8c-.2-1.2-.7-2.3-1.6-3.2-.8-.9-1.9-1.5-3.1-1.8-9.1-1.9-16.8-9.6-18.1-18.8-1.3-9.2 5.9-18.7 16.3-18.7h17.5c10.7 0 20.6 8.6 22.1 19.2l7.4 52.2c1.4 10.3-5.9 18.7-16.3 18.7" class="st212"/><path d="M293.2 286.9c.1.5 0 1-.1 1.5s-.4.9-.7 1.3c-.3.4-.7.7-1.2.9-.5.2-1 .3-1.5.3h-18.4c-1.1 0-2.2-.4-3-1.2s-1.4-1.7-1.6-2.8v-.6c-.1-.5-.1-1 .1-1.5.1-.5.4-.9.7-1.3s.7-.7 1.2-.9c.5-.2 1-.3 1.5-.3h18.5c1.1 0 2.2.4 3 1.1.8.7 1.4 1.7 1.6 2.8v.7z" class="st223"/><path d="M285.2 294.3c.1.5.1 1-.1 1.5-.1.5-.4.9-.7 1.3-.3.4-.7.7-1.2.9s-1 .3-1.5.3h-.5c-1.1 0-2.2-.4-3-1.2-.8-.7-1.4-1.7-1.6-2.8l-2.2-15.4c-.1-.5 0-1 .1-1.5s.4-.9.7-1.3c.3-.4.7-.7 1.2-.9.5-.2 1-.3 1.5-.3h.5c1.1 0 2.2.4 3 1.1.8.7 1.4 1.7 1.6 2.8z" class="st223"/><path d="M287.5 317.5v.6c-.1.2-.2.4-.3.5-.1.2-.3.3-.5.4-.2.1-.4.1-.6.2h-.3c-.5 0-.9-.2-1.2-.5-.3-.3-.6-.7-.7-1.2l-.9-6.4v-.6c.1-.2.2-.4.3-.5.1-.2.3-.3.5-.3.2-.1.4-.1.6-.1h.2c.5 0 .9.2 1.2.4.3.3.6.7.7 1.2z" class="st227"/><path d="M287.1 337.7c-1.1 0-2.2-.4-3-1.1-.8-.7-1.4-1.7-1.6-2.8v-.6c-.1-.5-.1-1 .1-1.5.1-.5.4-.9.7-1.3.3-.4.7-.7 1.2-.9.5-.2 1-.3 1.5-.3h.5c1.1 0 2.1.4 3 1.1.8.7 1.4 1.6 1.6 2.7v.7c.1.5 0 1-.1 1.5s-.4.9-.7 1.3c-.3.4-.7.7-1.2.9-.5.2-1 .3-1.5.3z" class="st223"/><path d="M289.7 352.6h-.5c-1.1 0-2.2-.4-3-1.1-.8-.7-1.4-1.7-1.6-2.8v-.9c0-.5 0-1 .2-1.4.2-.5.4-.9.7-1.2.3-.3.7-.6 1.2-.8.4-.2.9-.3 1.4-.3h.5c1.1 0 2.1.4 3 1.1.8.7 1.4 1.6 1.6 2.7v.7c.1.5.1 1-.1 1.5-.1.5-.4.9-.7 1.3-.3.4-.8.7-1.2.9-.5.2-1 .3-1.5.3" class="st198"/><path d="M287.6 337.7h-.5c-1.1 0-2.2-.4-3-1.1-.8-.7-1.4-1.7-1.6-2.8v-.6c-.1-.5-.1-1 .1-1.5.1-.5.4-.9.7-1.3.3-.4.7-.7 1.2-.9.5-.2 1-.3 1.5-.3h.5c1.1 0 2.1.4 3 1.1.8.7 1.4 1.6 1.6 2.7v.7c.1.5 0 1-.1 1.5s-.4.9-.7 1.3c-.3.4-.7.7-1.2.9-.5.2-1 .3-1.5.3" class="st201"/><path d="M297.1 345.1c-1.1 0-2.2-.4-3-1.1-.8-.7-1.4-1.7-1.6-2.8v-.6c-.1-.5-.1-1 .1-1.5.1-.5.4-.9.7-1.3.3-.4.7-.7 1.2-.9.5-.2 1-.3 1.5-.3h.5c1.1 0 2.1.4 3 1.1.8.7 1.4 1.6 1.6 2.7v.7c.1.5.1 1-.1 1.5s-.4.9-.7 1.3c-.3.4-.7.7-1.2.9-.5.2-1 .3-1.5.3z" class="st223"/><path d="M297.6 345.1h-.5c-1.1 0-2.2-.4-3-1.1-.8-.7-1.4-1.7-1.6-2.8v-.6c-.1-.5-.1-1 .1-1.5.1-.5.4-.9.7-1.3.3-.4.7-.7 1.2-.9.5-.2 1-.3 1.5-.3h.5c1.1 0 2.1.4 3 1.1.8.7 1.4 1.6 1.6 2.7v.7c.1.5.1 1-.1 1.5s-.4.9-.7 1.3c-.3.4-.7.7-1.2.9-.5.2-1 .3-1.5.3" class="st201"/><path d="M279.7 345.3h-.6c-1.1 0-2.2-.5-3-1.2-.8-.7-1.4-1.7-1.5-2.8v-.9c-.1-.5 0-1 .1-1.4.1-.5.4-.9.7-1.2.3-.4.7-.6 1.2-.8.4-.2.9-.3 1.4-.3h.6c1.1 0 2.1.5 2.9 1.2.8.7 1.4 1.7 1.6 2.7v.6c.1.5.1 1 0 1.5s-.4 1-.7 1.4c-.3.4-.7.7-1.2.9-.5.2-1 .3-1.5.3" class="st198"/><path d="m117.4 339.4-9.7-5.4c7.6-12.5 16-24.6 25.1-36.1-17.9 6.5-36.7 14.6-57.5 14.6H40.5c-2.1-4.3-2.7-8.7-2.7-15.3l42.5-15.5 16.1 3.3.5 4.6c15.4-3.9 31.3-8.4 42.8-11.1 14.5-3.4 19.4 3.9 11 16.1-16.2 23.6-33.3 44.8-33.3 44.8" class="st196"/><path d="M50.1 293.2c0 8.5 0 14.5 4.1 17.9 1 .9 2.3 1.4 3.6 1.4H62c-10.2-1.7-10.2-7.2-10.1-19.3v-.8c0-.1-.1-.2-.1-.3l-1.7.6z" style="fill:#15ad75"/><path d="M117.4 334.9c15.6-20.6 25.6-34.9 29.8-41.6 4.2-6.7 5.6-10.9-15.6-3.7s-37.3 13.7-42 11.9-3-6.6-2.7-15.1" style="fill:none;stroke:#15ad75;stroke-width:2;stroke-linecap:round;stroke-linejoin:round"/><path d="M55 237.8c-7.2-11-13.1-22.8-17.6-35.2-.6-2.1-.8-4.2-.4-6.4.4-2.1 1.2-4.1 2.5-5.8 7.3-8.8 16.9-13.5 29.7-15.7 1.4-.2 2.8.2 3.9 1.1 15.2 13.3 19.7 28.3 22.3 42.9.1.8-.1 1.7-.4 2.5-.3.8-.9 1.4-1.6 1.9-7.5 4.6-11.5 6-11.5 6l1.5 11.1z" class="st199"/><path d="M69.5 200.5c7.5.7 14.9 1.8 22.3 3.4l4.1 1.1c.2 0 .3.1.4.2.1.1.2.2.2.4v.5c0 .2-.1.3-.2.4l-.9.8 1.6 6.2c.5 1.9.4 3.9-.4 5.7s-2.1 3.3-3.8 4.3l-3.7 2.1z" class="st199"/><path d="M72.7 207.9c1.9-1.3 1.5-5.2-.8-8.6-2.4-3.4-5.8-5.1-7.7-3.7-1.9 1.3-1.5 5.2.8 8.6 2.3 3.3 5.8 5 7.7 3.7" class="st198"/><path d="M84.5 194c-1.2-1.1-2.5-1.4-3-.9s-.2 1.3.9 2.1l1.3 1.3c.9 1 1.6.8 2 .3s0-1.8-1.2-2.8"/><path d="M44.8 185.1c-.5-5.4-1.2-10.7 2.5-15.2 1-1.3 5 4.8 5.3 5 2 .8 3.8-4.5 4.6-5.9.7-1.2 1.8-2.6 3.1-2.3 1.2.2 1.8 1.4 2.1 2.6.7 2.3.3 4.3.5 6.6.1 1.5.7 3.1 1 4.6 0-.1-19.1 4.6-19.1 4.6" class="st199"/><path d="M91.5 247.3c8.5 2.9 2.5 29.5 2.5 29.5l1.2.9c1 .8 1.7 1.8 2 3 .3 1.2.2 2.5-.4 3.6l-.4.7c-5.9 0-9.8.5-17.8 6.2s-13.1 6-21.3 6H37.8v-6.6c-7.3-2.9-7.9-6.4-5.1-10.9 1.5-2.6 3.9-6.2 5.7-8.9.7-1 1.2-2.2 1.4-3.4.2-1.2.2-2.5 0-3.7-1.6-8.6-.3-13.7-.3-13.7l21.2-5.7 26.9-1.1z" class="st217"/><path d="M90.9 271.8c2.6-.7 3.5-5.7 2-11.2-1.5-5.5-4.7-9.4-7.3-8.7s-3.5 5.7-2 11.2c1.5 5.5 4.7 9.4 7.3 8.7"/><path d="M103.9 334.6c2.4-2.5 7.6-6.7 7.6-6.7 3.3 0 8.3.6 10.5 9.7l2.7 10.7c10.3 1.9 10.4 4.8 9 8.6v1.7c0 .2-.1.4-.2.6-.2.2-.4.2-.6.2h-17.2z" class="st212"/><path d="M132.9 359.4c.2 0 .4-.1.6-.2.1-.1.2-.4.2-.6v-1.7c-6.8 0-11.8.7-14.3-3.7-2.7-5.3-5.1-10.8-7.1-16.4-.9-2.6-2.8-5.7-5.7-4.8l-2.7 2.6 11.8 24.8z" class="st198"/><path d="M125.6 359.4c-1.8 0-3.6-.4-5.2-1.3s-2.9-2.1-3.9-3.6c-3.7-5.6-6-12.3-7.4-16.4s-5.9-5.7-6.3-.5c-.4 5.2 2.3 9.2 6.5 19.6.2.7.7 1.2 1.2 1.6.6.4 1.3.6 2 .6z"/><path d="M91.5 247.3c.5-.6 1-1.3 1.5-2 .3-.4.5-.8.5-1.2.1-.4.1-.9 0-1.4-.1-.4-.3-.9-.6-1.2-.3-.4-.6-.7-1-.9-27.3-15-36.9-16.8-51.9-16.8-9.7 0-9.2 2.5-8.3 7.1-6.9 6.4-6.8 8.6-2 14.9s6.3 8.8 10.8 8.8 15 .1 24.2-4.6 13.6-7.1 26.8-2.7" class="st212"/><path d="M68.8 198.4c-.6.9-1.1 1.8-1.6 2.7" class="st210"/><path d="M50.4 185.9c-.1.4-.2.7-.4 1.1-.1.2-.2.3-.3.4-.1.1-.3.2-.5.2h-.3c-.1 0-.2-.1-.3-.2-.1-.1-.2-.2-.2-.3 0-.1-.1-.2-.1-.3 0-.1 0-.2.1-.3.1-.3 2.2-6.5 4.1-10.9.1-.2.2-.3.4-.4 0 1.2.1 2.3.2 3.5.1 1.2-2.1 5.4-2.7 7.2" style="fill:#ffc619"/><path d="M118.5 272.4c2.1-.1 4.2-.3 6.3-.6" class="st231"/><path d="M54.5 294.2c-11.4-1.4-16.5-3.5-16.6-3.5h-.1v1.8c1.7.6 6.8 2.2 16.5 3.5h.1c.2 0 .4-.1.6-.2.2-.1.3-.4.3-.6v-.4c0-.1-.1-.2-.2-.3-.1-.1-.2-.2-.3-.2-.1-.1-.2-.1-.3-.1"/><path d="M96.9 289.6c-2.6.8-4.9 2.3-6.7 4.2m43.5 4.1c4-1.8 8-3.9 11.7-6.2m-9.7 5.3 5.3.2" class="st210"/><path d="M32.6 230.4c16.6-1.6 28.4 2.2 44.7 9.5-16.3-1.1-35.5-1.7-35.5-1.7" style="fill:none;stroke:#bae8ff;stroke-width:2;stroke-linecap:round;stroke-linejoin:round"/><path d="M28.1 312.5h66.6c1 0 1.9.4 2.5 1.1.7.7 1.1 1.6 1.1 2.5v43.3H24.5v-43.3c0-1 .4-1.9 1.1-2.5.6-.7 1.5-1.1 2.5-1.1" class="st205"/><path d="M91.7 312.5h3c1 0 1.9.4 2.5 1.1.7.7 1.1 1.6 1.1 2.5v43.3H88.1v-43.3c0-.5.1-.9.3-1.4.2-.4.4-.8.8-1.2.3-.3.7-.6 1.2-.8.4-.1.8-.2 1.3-.2m-57.4 33.1h44c.8 0 1.6.3 2.1.9.6.6.9 1.3.9 2.1v10.8H31.4v-10.8c0-.8.3-1.5.8-2.1.6-.5 1.3-.9 2.1-.9" class="st220"/><path d="M36.3 312.5v46.9m39.9-46.9v46.9" style="fill:none;stroke-width:2;stroke:#5865f2;stroke-miterlimit:10"/><path d="M78.7 316.1H33.8c-1.4 0-2.5 1.1-2.5 2.5v16c0 1.4 1.1 2.5 2.5 2.5h44.9c1.4 0 2.5-1.1 2.5-2.5v-16c0-1.4-1.1-2.5-2.5-2.5"/><path d="M87.2 319.5h-.4c-.1 0-.2.1-.3.2-.1.1-.2.2-.2.3 0 .1-.1.3 0 .4 0 .3.1.5.3.7.2.2.4.3.7.3h11.1v-2H87.2zm-1 5.3v.4c0 .1.1.2.2.3.1.1.2.2.3.2.1 0 .3.1.4 0h11.1v-2h-11c-.3 0-.5.1-.7.3-.2.3-.3.5-.3.8" class="st201"/><path d="M344.6 35.5c-6.5.3-13.1 3.1-16.8 8.7s-3.6 14 1.2 18.5c4.1 3.9 10.3 4.1 15.9 4.1h10.8c2.4 0 5 0 7.1-1.2 4.1-2.3 5.1-8 4.7-12.9-1-13.8-10.7-17.8-22.9-17.2" class="st214"/><path d="M86.2 329.2c0 .3.1.5.3.7.2.2.4.3.7.3h11.1v-2H86.8c-.1 0-.2.1-.3.2-.1.1-.2.2-.2.3-.1.2-.1.4-.1.5m-59.9-8.7c0 .3-.1.5-.3.7-.2.2-.4.3-.7.3h-.8v-2h.8c.3 0 .5.1.7.3.2.2.3.4.3.7m0 4.3c0 .3-.1.5-.3.7-.2.2-.4.3-.7.3h-.8v-2h.8c.3 0 .5.1.7.3.2.2.3.4.3.7m0 4.4c0 .3-.1.5-.3.7-.2.2-.4.3-.7.3h-.8v-2h.8c.3 0 .5.1.7.3.2.2.3.4.3.7" class="st201"/><path d="M65.9 317.6H36.6c-.7 0-1.3.6-1.3 1.3v13.9c0 .7.6 1.3 1.3 1.3h29.3c.7 0 1.3-.6 1.3-1.3v-13.9c0-.7-.6-1.3-1.3-1.3" class="st204"/><path d="M78.3 334.1h-8c-.5 0-.9.4-.9.9v1.2c0 .5.4.9.9.9h8c.5 0 .9-.4.9-.9V335c0-.5-.4-.9-.9-.9" class="st198"/><path d="M47.1 319.5c0 2.4 1 4.8 2.7 6.5 1.7 1.7 4.1 2.7 6.5 2.7 2.4 0 4.8-1 6.5-2.7 1.7-1.7 2.7-4.1 2.7-6.5 0-.6-.1-1.3-.2-1.9h-18c-.2.6-.2 1.3-.2 1.9M38 334.1h15c-.9-1.2-2-2.2-3.3-2.8-1.3-.7-2.8-1-4.2-1s-2.9.4-4.2 1c-1.3.6-2.4 1.6-3.3 2.8" class="st196"/><path d="M84.4 201c-1.1 1.4-1.8 3.2-2.1 4.9-.2 1.2-.4 2.4 0 3.6.7 2 2.8 3.1 4.8 3.7 1.7.5 3.5.8 5.2.3 1.7-.5 3.1-2.1 3-3.8 0-.7-.3-1.4-.1-2 .2-.7.8-1.3 1.3-1.8-1.2-1.2-3.4-.9-4.6-2.1-.3-.4-.5-.8-.7-1.3-.7-1.6-.9-4.1-2.7-4.2-1.4-.2-3.4 1.7-4.1 2.7" style="fill:#f179af"/><path d="M285.3 45.7s-32.2-8-21.7 31.6c0 0 32.8 2.8 21.7-31.6" class="st198"/><path d="M382.1 104.9c-3.1-20.8-3.7-33.8-2.9-54.8 0-.7-.1-1.3-.4-1.9-.3-.6-.7-1.1-1.2-1.6-.5-.4-1.1-.7-1.8-.8-.7-.1-1.3-.1-2 .1l-24.9 7" style="fill:none;stroke:#66bcff;stroke-width:4;stroke-linecap:round;stroke-miterlimit:10"/><path d="M351.2 48.3c-1.3 2.1-3.6 4.5-8.7 5.5 7-.8 10 3.1 10 3.1" class="st210"/><circle cx="338.8" cy="41.6" r=".6" class="st210"/><circle cx="350.7" cy="39.2" r=".6" class="st210"/><path d="M303.8 22.9c4.9 3.6 10 7.4 13 12.6 3.5 6.1 4 13.4 3.8 20.4-.1 4.5-1.1 12.8-4.3 16.3-1.5 1.6-3.8 2.2-5.5 3.6-2.7 2.1-3.6 5.9-6.3 8-3.2 2.5-7.7 1.9-11.7 1.2-6.3-1.2-16.2-2-17.7-10 5-2.8 8.7-8 9.6-13.7.9-5.7-.9-11.8-4.8-16 4.5-10.1 13.2-19.1 23.9-22.4" class="st218"/><path d="M289.8 58.2c0 9.6 4.6 18.1 10.3 19 5.7.9 7.1-4.1 7.3-13.4 0-2.4.1-4.8.3-7.3.6-8.6-2.5-13.3-7.6-14.1s-10.3 6.2-10.3 15.8" class="st212"/><ellipse cx="380.4" cy="147.8" class="st236" rx="13.7" ry="3.3"/><path d="M360.6 105.7h39.5l-6.1 42.1h-27.3z" class="st236"/><path d="M363.6 109.7h33.5l-5.2 35.7h-23.1z" style="fill-rule:evenodd;clip-rule:evenodd;fill:#fff0e1"/><ellipse cx="380.4" cy="105.7" class="st236" rx="19.8" ry="4.7"/><ellipse cx="380.4" cy="145.4" rx="11.6" ry="2.8" style="fill-rule:evenodd;clip-rule:evenodd;fill:#e6dbce"/><ellipse cx="373.3" cy="142.1" class="st239" rx="2.3" ry="2.4"/><ellipse cx="379" cy="144.2" class="st239" rx="2.3" ry="2.4"/><ellipse cx="374.5" cy="135.9" class="st239" rx="2.3" ry="2.4"/><ellipse cx="385.1" cy="142" class="st239" rx="2.3" ry="2.4"/><ellipse cx="388.7" cy="142.4" class="st239" rx="2.3" ry="2.4"/><ellipse cx="382.6" cy="143" class="st239" rx="2.3" ry="2.4"/><ellipse cx="370" cy="129.4" class="st239" rx="2.3" ry="2.4"/><ellipse cx="377.9" cy="129.5" class="st239" rx="2.3" ry="2.4"/><ellipse cx="382.2" cy="124.3" class="st239" rx="2.3" ry="2.4"/><ellipse cx="373.4" cy="131.8" class="st239" rx="2.3" ry="2.4"/><ellipse cx="389.7" cy="129.7" class="st239" rx="2.3" ry="2.4"/><ellipse cx="371.3" cy="137.3" class="st239" rx="2.3" ry="2.4"/><ellipse cx="380.6" cy="137.4" class="st239" rx="2.3" ry="2.4"/><ellipse cx="387.6" cy="136.9" class="st239" rx="2.3" ry="2.4"/><ellipse cx="376.8" cy="140.7" class="st239" rx="2.3" ry="2.4"/><ellipse cx="380.4" cy="109.7" rx="16.8" ry="4" style="fill-rule:evenodd;clip-rule:evenodd;fill:#fffce8"/><path d="M400.2 104.5c0 3.3-8.9 5.9-19.9 5.9-11 0-19.9-2.7-19.9-5.9" style="fill:none;stroke:#fff;stroke-width:2.2524;stroke-linecap:round;stroke-linejoin:round;stroke-miterlimit:10"/><ellipse cx="379.5" cy="138.5" class="st239" rx="2.3" ry="2.4"/><ellipse cx="381.8" cy="134.4" class="st239" rx="2.3" ry="2.4"/><ellipse cx="383.8" cy="138.5" class="st239" rx="2.3" ry="2.4"/><path d="M292.8 58.3c-.3 4.2 1.1 7.7 3.1 7.9 2 .2 3-1.4 3.1-5.3 0-1.6.2-3.3.6-4.9.7-3.5-.8-4.8-2.5-4.9-1.7-.1-4 3.1-4.3 7.2"/><path d="M370.5 72.5c-.8 2.6-1.8 5.1-3.1 7.6v.1c-.3.5-.5.9-.8 1.4-.3.6-.6 1.1-1 1.7l-.1.1c-.1 0-.1.1-.2.1-.8.1-1.5.2-2.3.3-.7 0-1.4-.1-1.9-.1-.4 0-.8-.1-1.1-.3-.7-.5-.5-1.6 0-2.4.5-.8 1.2-1.4 1.3-2.3.3-1.7-1.7-3.1-1.6-4.9 0-1 .8-1.8 1.7-2.3.9-.4 1.9-.5 2.9-.6 1.6 0 3.3-.1 4.9.2.8.3 1.1.8 1.3 1.4" class="st218"/><path d="M365.6 83.2c.3-.5.7-1.1 1-1.7 0 .1-.1.2-.2.3-.2.6-.4 1.1-.8 1.4" class="st218"/><path d="M55.4 197.4s15.6-16.6 21.4 8c0-.1-14 12.4-21.4-8" class="st198"/><path d="M91.1 202c-11.1-1.9-22.4-3.1-22.5-3.1h-.3c-.1 0-.2.1-.3.2-.1.1-.2.2-.2.3 0 .1-.1.2-.1.3 0 .2 0 .5.2.6.1.2.3.3.5.4.2 0 12 1.2 23.4 3.2-.2-.6-.4-1.2-.7-1.9"/><path d="M119 113.3s1.2 7.1 9.2 3.3 10.1-11.9 10.1-11.9-.2-3.8 6-4c6.2-.2 5.7-5.9 5.7-5.9l-4.4-.6h-10.2c-.1.1-14.2 13.9-16.4 19.1m29.6 29.1s-11-.7-10.4 8l16.9 6s6.3-3.4 6.9-7.2-.5-7.2-4.5-6.8c-4.1.4-8.9 0-8.9 0m-34.7 42.7c7.5-.2 8.8 4.1 13.8 2.7s5.4-2.8 6.9-2.7 8.2-2.3 9.6 3.9v2.5s-11 8.6-14.5 9.8c-1 .4-2.6 1.5-4.7 1.8-1.6.2-3.5-.4-4.9-.5-3-.2-4.8-1.5-5.8-2.2-2.1-1.5-4.5-4.1-5.4-6.3-1.5-3.8 1.4-8.9 5-9" style="fill:#caffe3"/><path d="m91.5 247.3 15.8 5.4c1.6-22.1 8.3-28.4 16.1-46 5.6-12.5 8.2-18.2 9.3-20.4.2-.4.4-.7.8-.9.3-.2.7-.3 1.1-.3h.6c.3 0 .6.1.9.2.3.1.5.3.7.5s.4.5.5.8c.1.3.1.6.1.9-1 5.9-2.6 11.7-4.7 17.3 4.7-3.2 6.8-3.2 9 .1 5.4-2.8 7.4-2.9 9.3 1.3s1.6 5 .6 8.4c-1 3.4-2.5 3.7-4.8 3.7 0 23.2-1.5 31.9-12.4 47.5-9.7 13.9-10.2 12.2-23.4 8-7.6-2.4-15.1-5.1-20-7-2.8-1-5.2-3-6.7-5.6-1.5-2.6-2.1-5.7-1.6-8.7.9-4.2 3.7-6.9 8.8-5.2" class="st199"/><path d="m107.3 252.7 6.6 1.9" class="st210"/><path d="M143.8 248c.4-1.1.5-2.2.3-3.3-.2-1.1-.6-2.2-1.2-3.1-.4-.5-.9-1-1.5-1.4-1.2-.7-2.7-1.1-4.1-1-1.4.1-2.8.5-4 1.3.6-3.4 1.4-9.6.8-14.3-.6-4.7-2.4-4.1-3.5-4.3-3.2-.6-7.6 2.8-11.5 8.9-.7-3.3-1.7-4.9-3.3-5.3-.4-.1-.9 0-1.3.2s-.7.5-.9.9l-1.5 3.6c2-3 3.1-3 3.4-3s1.6.8 2.3 6.2c0 .2.1.3.2.5s.3.2.5.2.4 0 .6-.1c.2-.1.3-.2.4-.3 4.1-7.5 8.5-10.5 10.8-10.1 2.3.4 1.9 1.7 2 2.9.9 6.1-1.1 15.8-1.1 15.9 0 .2 0 .4.1.5.1.2.2.3.3.4.2.1.4.1.6.1.2 0 .4-.1.5-.2 2.2-2.3 5.6-2.9 7.7-1.5 2.1 1.4 3.1 6.5.8 12.8 1.1-2.1 1.9-4.3 2.6-6.5" class="st204"/><path d="M127.2 207.1c3.4-1.9 4.6-3 7.6 0 4-2.1 4.8-2.1 7 1.1" class="st231"/><ellipse cx="183" cy="136.1" rx="23.5" ry="11.5" style="fill:#0faa59"/><path d="M148.6 217.9c-.1-2.8-.4-7.1-.5-7.2 0-.1 0-.2-.1-.3 0-.1-.1-.2-.2-.3-.1-.1-.2-.1-.3-.2h-.3c-.1 0-.2 0-.3.1-.1 0-.2.1-.3.2-.1.1-.1.2-.2.3v.3c0 .1.4 4.4.4 7.2v.2c0 .1 0 .1.1.1h1.6z"/><path d="M149.7 214.5h-2.2c-.1 0-.2 0-.3-.1-.1 0-.2-.1-.3-.2-.1-.1-.1-.2-.2-.3 0-.1-.1-.2-.1-.3 0-.2.1-.4.3-.6.2-.1.4-.2.6-.2h2.2c.2 0 .4.1.6.2.2.1.3.4.3.6 0 .1 0 .2-.1.3 0 .1-.1.2-.2.3-.1.1-.2.2-.3.2-.1.1-.2.1-.3.1"/><path d="M131.6 133.4s9.7-2.7 12.6-11.1" style="fill:none;stroke:#000;stroke-miterlimit:10"/><path d="M274.4 120.6s8.4-9.3 14.8 2c0 0-8.8 11.9-14.8-2m13.7 17.8s-6.9-9-12.6-.8c-5.7 8.2-6.2 5.8-9.2 6.7-3 1-6.3.3-5.2 6s2.5 4.7 2.5 4.7 6.1-3.9 11.3-4.3 16-.4 16-.4z" class="st197"/><path d="M144.2 100.8s-7.7-15.4-1.5-13c6.3 2.4 10.8 7.1 10.8 7.1l-1.2 5.9z" class="st196"/><path d="M191.6 142.4c-7.7 0-15.2-2.6-21.2-7.5-6.2-5.1-3.7-5.7.2-5.8 3.9-.1 22.6.6 28 1.4 5.4.8 6.4 11.5-7 11.9" style="fill:#611b46"/><path d="M195.3 141.9c-5.4-5.2-12.7-9.1-26.2-8.2 11.6 10.7 23.7 8.9 26.2 8.2" class="st207"/><path d="m194.4 131.2-7-.4c.8 4.2 2.8 6.4 4.5 5.7s2.3-4.4 2.5-5.3m-21.6-.9c.9 4.8 2.7 7.3 4.4 6.5s2.1-4.8 2.4-6.4z" class="st212"/><path d="M177.5 122.2c1.8-3.4 1.6-7-.5-8.1-2.1-1.1-5.2.8-6.9 4.1-1.8 3.4-1.6 7 .5 8.1 2 1.2 5.1-.7 6.9-4.1zm14.7.1c1.8-3.4 1.6-7-.5-8.1-2.1-1.1-5.2.8-6.9 4.1-1.8 3.4-1.6 7 .5 8.1s5.1-.8 6.9-4.1zm-14.1-3.6h6.1" style="fill:none;stroke:#fff;stroke-width:2;stroke-miterlimit:10"/><path d="m168.9 119.9-25.8-10.5c-.5-.2-1.1-.3-1.7-.2-.6.1-1.1.3-1.6.6s-.9.8-1.2 1.3c-.3.5-.4 1.1-.4 1.7h0c0 .7.2 1.4.6 1.9.4.6.9 1 1.5 1.3l1.7.8" style="fill:none;stroke:#fff;stroke-width:2;stroke-linecap:round;stroke-miterlimit:10"/><circle cx="177.7" cy="126.7" r=".9"/><circle cx="182.2" cy="126.7" r=".9"/><path d="m468.4 295.6-.1.1-.1.1-.1.1h.8c.5 0 .9 0 1.1.1l.3.1.3.1.3.1v.4l-.3.5c-.2.3-.4.7-.4 1.2v2.3h-.6c-.4 0-1.4-.1-3.1-.4-1.7-.3-2.9-.4-3.5-.3-.6.1-1 .1-1.1 0l-.1-.1-.1-.1-.1-.1h-.1v-.8l-.1-.1-.1-.1-.1.1-.1.1h-.2s-.1-.1-.2-.1c-.1-.1-1.1-.4-2.9-1.1s-3.9-1.4-6.4-2.1-4.1-1.1-5-1.3c-.9-.1-1.7.1-2.4.8s-1.8 1.9-3.3 3.6c-1.5 1.7-2.8 3.4-4 5.1s-1.8 2.7-2 3l-.2.6v1.4h-.2v-.2l-.5-.2c-.3-.1-.8 0-1.6.4s-1.4.8-1.7 1.2c-.4.4-.6.8-.7 1.2-.1.4-.1 1.4-.1 3 .1 1.6.2 3.1.4 4.4s.5 2.4.9 3.1c.4.7.8 1.4 1.4 2 .6.6 1.3 1.3 2.3 1.9 1 .6 1.8 1.1 2.4 1.3.6.3 1.1.4 1.5.3.4 0 .8-.2 1.2-.5.4-.3.6-.5.6-.5s.1-.1.1-.2l.1-.1h.1v.2l-.1.2-.1.2-.1.3c0 .2-.3.9-.7 2.3-.4 1.3-.7 2-.7 2-.1 0-.1.1-.2.2s-.1.2-.2.2-.1 0-.1.1-.2.2-.4.5c-.3.3-.9.4-1.9.4s-1.9-.1-2.8-.4c-.9-.3-1.7-.6-2.4-1.1s-1.6-1.3-2.7-2.3c-1.1-1.1-2-2.1-2.7-3s-1.3-1.8-1.7-2.5c-.4-.7-.7-1.6-1.2-2.7-.4-1.1-.7-1.7-.8-1.7-.1 0-.3-.3-.4-.9-.2-.6-.2-.9-.2-.9.1 0 .1-.2.1-.5v-1.3c0-.1.2-.7.4-1.6.3-.9.5-1.6.7-2.1.2-.5.3-.9.3-1.2 0-.3-.1-1-.4-2.2-.3-1.1-.4-2.4-.5-3.7l-.1-2h.2l.1-.2.1-.2v-.4l.4-.2c.3-.1.4-.3.5-.5.1-.2.5-.9 1.2-2s1.5-2.1 2.2-3.1c.8-.9 1.3-1.6 1.6-1.9.3-.4.5-.5.6-.6.1 0 .1-.1.1-.1s.6-.6 1.7-1.5 1.8-1.5 2.2-1.7c.3-.2.5-.3.5-.4 0-.1.1-.2.2-.2s.2-.1.3-.2c.1-.1.4-.4.9-.7.5-.3 1-.7 1.5-.9.5-.3.9-.4 1.2-.5.3-.1.4-.2.5-.2.1-.1.2-.1.3-.1l.2-.1v-.2l1.8-.3c1.2-.2 2-.3 2.3-.3s.7-.2 1.2-.5.8-.5.9-.6c.1-.1.5-.1 1-.2s1-.1 1.6-.3c.5-.2 1.8-.2 3.7-.1 1.9.1 3.8.4 5.6.8 1.8.4 3.6.9 5.4 1.5s3.2 1.3 4.2 1.9c1 .6 1.8 1.2 2.3 1.7.5.6.9 1.3 1.3 2 .4.8.5 1.3.5 1.6-.1.3-.3.6-.7.9-.4.3-.8.5-1.1.8.3.1.1.2.1.2z" style="fill-rule:evenodd;clip-rule:evenodd;fill:#f1f1f1;stroke:#f1f1f1;stroke-width:.5"/><path d="m436 312.3.4.5.3.1c.2.1.3.1.4.1h.2l1.8 2.6c1.2 1.7 1.8 2.6 1.8 2.7v.1h.2v.2h-.4v.2l.1.2.1.2.5 1c.4.7.5 1.4.3 2.1-.1.7-.3 1.3-.4 1.6-.1.4-.2.6-.2.7v.2l-.1.1v.1s-.1 0-.1.1l-.1.1-.1.1c0 .1-.1.2-.2.5s-.2.4-.4.4-.2 0-.2.1-.1.1-.3.3-.5.2-.9.3c-.4 0-.7 0-.9-.1-.2-.1-.7-.3-1.5-.8s-1.6-1-2.4-1.7c-.8-.7-1.4-1.5-1.9-2.3-.5-.9-.8-2.3-1.1-4.3-.3-2-.4-3.4-.4-4.2 0-.8 0-1.4.1-1.7s.2-.7.5-1c.2-.3.6-.7 1.1-1 .5-.3.9-.5 1.3-.5s.6 0 .8.1c.1.1.2.2.3.2 0 .1.1.1.2.1s.1.1.2.3c0 .2.1.3.2.3s.1.1.1.2 0 .2.1.2.1.1.2.2.1.2.2.3c.1 0 .1.1.1.2s0 .2.1.2c-.4.2-.2.4 0 .7z" style="fill-rule:evenodd;clip-rule:evenodd;fill:#fefefe;stroke:#fefefe;stroke-width:.5"/><path d="m460.7 299.8-.2 6.3c-.2 4.2-.3 6.4-.3 6.6v.9c0 .4-.1.9-.2 1.6-.1.7-1.5 1.5-4.1 2.3l-3.9 1.3-.2.1-.2.1-.2.1-.2.1v.1h-.2c-.1 0-1.4.4-3.9 1.1l-3.8 1.1h-.1c-.1 0-.4-.4-.9-1.1l-.8-1.1v-.2s0-.1-.1-.1v-.1s-.7-1-1.9-2.7l-1.9-2.7v-.1c0-.1-.5-.9-1.5-2.5l-1.5-2.4.2-.6c.1-.4.8-1.4 2-3 1.2-1.7 2.5-3.3 4-5.1s2.6-2.9 3.3-3.6 1.5-1 2.4-.8c.9.1 2.6.6 5 1.3s4.6 1.4 6.4 2.1c1.8.7 2.7 1.1 2.9 1.1z" style="fill-rule:evenodd;clip-rule:evenodd;fill:#191919;stroke:#191919;stroke-width:.5"/><path d="m444.4 340.1.1.1h.1l.1.1h.1l2.3 1.9c1.5 1.2 2.9 2.2 4 3 1.1.7 1.6 1.3 1.4 1.7-.1.4-.7 1.4-1.6 2.9-.9 1.5-1.5 2.4-1.8 2.8-.3.4-.6.7-.8.8-.3.1-.7.2-1.3.1-.6 0-2-.4-4.1-1s-4.1-1.4-5.8-2.2-2.7-1.2-2.7-1.2l-.1-.1-.1-.1-.1-.1-.1-.1-.1-.1h-.1v-.2s-.4-.7-1.2-1.9c-.8-1.3-1.5-2.7-2.1-4.2-.6-1.5-1-2.6-1.2-3.3l-.2-1 1.2-.1c.8-.1 1.4-.1 1.8-.1l.5-.1.5-.1.5-.1v-.1l3.2-.5c2.2-.3 3.4-.5 3.7-.6.3-.1.6.1.9.4.3.3 1 1 2.1 2 .3.8.9 1.4.9 1.4z" class="st251"/><path d="M484.4 320.6h.2l.8 1.9c.6 1.3 1 2.6 1.5 4 .4 1.4.7 2.5.9 3.3.1.8.2 1.4.2 1.9s-.4 1.4-1.2 2.6c-.7 1.2-1.7 2.6-2.9 4.2s-2 2.6-2.5 3c-.4.4-.6.7-.6.8v.1h-.2v.1h-.2v.1h-.2v.1h-.2v.1h-.1l-.5.5c-.3.3-.7.6-1.1.9-.4.3-1.1.3-1.9.2-.9-.1-2.2-.4-3.9-.9s-3-.9-3.7-1.3c-.8-.3-1-.9-.8-1.6l.3-1.1.1-.2.1-.2v-.4l.1-.1v-.2c0-.1.1-.2.1-.5.1-.3.5-1.8 1.2-4.8l1.1-4.4v-.4l.1-.3.1-.3.2-.9c.1-.6.4-.9.8-1.1.4-.2.6-.3.7-.3l.1-.1.2-.1.2-.1.1-.1.1-.1.1-.1.1-.1v-.1l3.2-1.4c2.1-.9 3.8-1.7 5.2-2.4 1.4.2 2.1-.1 2.2-.2z" style="fill-rule:evenodd;clip-rule:evenodd;fill:#171717;stroke:#171717;stroke-width:.5"/><path d="M460.2 313.6v-.5l.1 1c.1.7.1 1.2.1 1.5l.1.4.1-.2.1-.2h.2l.3.4c.2.3.3.5.3.7 0 .2 0 .4.1.4s0 .1-.1.1-.1.1.1.3c.1.2 1.4 1.4 3.9 3.6s4 3.6 4.5 4.2c.5.6.8.9.9 1 .1.1.1.6.2 1.3l.1 1.2h.1l-1.1 4.4c-.7 2.9-1.1 4.5-1.2 4.8-.1.3-.1.4-.1.5v.1h-.1s-.1 0-.1.1h-.1s-.1 0-.1.1l-.1.2c-.1.1-.2.2-.2.3v.1h-.2v-.1c0-.1-.1-.1-.3-.2-.2-.1-.5-.4-.9-1s-.8-1.1-1.2-1.4c-.4-.3-1.1-.6-1.9-.9-.9-.3-1.9-.5-3.1-.5-1.2 0-2 0-2.5.1s-1.5.5-3 1.2-2.9 1.3-4.1 1.8c-1.2.5-2.2.8-3 .8-.8 0-1.2.1-1.2.1 0 .1-.2 0-.7-.1-.5-.2-.7-.2-.8-.1-.1.1-.1.2 0 .3v.2h-.2l-.1-.1c0-.1-.6-.6-1.7-1.6s-1.8-1.7-2.1-2c-.3-.3-.5-.4-.9-.4-.3.1-1.6.2-3.7.6l-3.2.5h-4.2c-.4 0-.7.1-.7.2-.1.1-.1.1-.3.2-.1 0-.3-.1-.5-.3-.2-.2-.6-.7-1.3-1.4-.7-.7-1.4-1.5-2.1-2.4-.7-.9-1.2-1.5-1.3-1.6-.1-.2-.2-.3-.3-.3s-.3-.3-.7-1c-.4-.7-.7-1.1-.8-1.2-.2-.1-.2-.3-.2-.3 0-.1 0-.1-.1-.1s-.1-.1-.1-.2v-.2l-.1-.1-.1-.1h-.1l-.1-.1-.1-.1h-.4v1.2h-.1l-.1-.1-.1-.1-.1-.2-.1-.2-.1-.2-.1-.2-.1-.2c0-.1-.1-.3-.2-.5s-.1-.6-.2-1.1-.1-.9-.2-1.2l-.2-.5-.1-.3-.1-.3v-.2h.2v.2l.3.2c.2.1.4.2.5.2l.2.1.2.1.2.1h.4v-.8c0-.5.1-1 .1-1.3s.2-1.6.6-3.8l.5-3.3.1-.2.1-.2.1-.2.1-.2h.1v1.1c0 .1 0 .1-.1.1s-.1.1-.1.2 0 .2-.1.2 0 .3.2.9c.2.6.3.9.4.9.1 0 .4.6.8 1.7s.8 2 1.2 2.7c.4.7.9 1.6 1.7 2.5s1.7 2 2.7 3c1.1 1.1 2 1.8 2.7 2.3s1.5.9 2.4 1.1c.9.3 1.8.4 2.8.4s1.6-.1 1.9-.4c.3-.3.4-.4.4-.5 0-.1.1-.1.1-.1l.2-.2c.1-.1.1-.2.2-.2s.3-.7.7-2c.4-1.3.6-2.1.7-2.3l.1-.3.1-.2.1-.2v-.6l.1-.2.1-.2v-.4h.1s.1 0 .1-.1v-.2c0-.1.1-.3.2-.7.1-.4.2-.9.4-1.6.1-.7 0-1.4-.3-2.1l-.5-1-.1-.2-.1-.2v-.2h.2v.1h.2v.1l.8 1.1c.6.7.9 1.1.9 1.1h.1l-.1.1c-.1 0-.5 1.8-1.2 5.2-.7 3.4-1.1 5.3-1.1 5.6l-.1.5v.7h.2v-.2l.1-.1.1-.1.1-.1.1-.1.1-.1c0-.1.1-.2.2-.2.1-.1.3-.3.5-.6s.9-1.2 2-2.7c1.1-1.4 2.1-2.8 3.2-4 1-1.3 1.9-2.2 2.7-2.9l1.1-1.1s0-.1.1-.1.1-.1.1-.2.1-.3.3-.4l.4-.4.1-.2.1-.1.1-.1v-.1l-.1-.1-.1-.1h-1v-.1l.2-.1.2-.1.2-.1.2-.1 3.9-1.3c2.6-.8 4-1.6 4.1-2.3.3.7.4.2.4-.2zm-16 25.8v-.1.1l.2-.1v.2l-.1-.1-.1-.1zm1.8.5c.1 0 .1.1 0 0 0 .1 0 0 0 0z" style="fill-rule:evenodd;clip-rule:evenodd;fill:#d2d2d2;stroke:#d2d2d2;stroke-width:.5"/><path d="m473 295.1 1.2.8c.8.5 2 1.5 3.6 2.8 1.6 1.3 3.1 2.7 4.5 4.2 1.5 1.5 2.2 2.3 2.4 2.5.1.2.2.3.2.3l1.3-1c.9-.7 1.5-1.2 1.7-1.4.2-.3.4-.4.4-.4l.1-.1.1-.1v-.4h.1l.1.2.1.2.9 2.5c.6 1.7 1.1 3.3 1.5 4.9.4 1.6.6 3.3.8 5 .1 1.7.2 3.4.1 5.3-.1 1.8-.3 3.6-.6 5.4-.4 1.8-.8 3.4-1.3 4.9s-.9 2.5-1.2 3.1c-.3.6-.4 1-.5 1l-.1.1-.1.1-.1.1-.1.1-.1.1-.1.1-.1.1h.2v-.4l.1-.1.1-.1s0-.1.1-.1.1-.1.1-.3v-.2l-.1.1-.1.1v-.4s-.4.6-1.3 1.8c-.8 1.2-1.9 2.6-3.3 4.3l-2 2.5h-.2v.3h.2-.1v-.1h.2v-.1h.2v-.1h.2v-.1h.2v-.1c0-.1.2-.3.6-.8.4-.5 1.2-1.5 2.5-3 1.2-1.6 2.2-3 2.9-4.2.7-1.2 1.1-2.1 1.2-2.6 0-.5 0-1.2-.2-1.9-.1-.8-.4-1.8-.9-3.3-.4-1.4-.9-2.8-1.5-4l-.8-1.9h-.2c-.1 0-.8.4-2.2 1.1-1.3.7-3.1 1.5-5.2 2.4l-3.2 1.4h-.9c-.6 0-1-.1-1.1-.2-.2-.1-.3-.2-.4-.4-.1-.2-.5-.7-1.3-1.7s-1.3-1.8-1.6-2.4c-.3-.6-.7-1.5-1.3-2.6-.5-1.1-1.4-2.6-2.5-4.6l-1.8-3v-.2h-.4v.2l-.1.1c0 .1-.1.2-.1.3l-.1.2-.1.2-.1.2-.1-.3-.1-.3-.1.2c0 .1-.1.3-.1.5l-.1.3-.1-.4-.1-.4-.1.3-.1.3-.1.2c-.1.1-.2.5-.3 1.1-.1.6-.2 1.3-.2 2v1.1h-.2l-.1.2-.1.2-.1-.4c0-.3-.1-.8-.1-1.5l-.1-1v-.4c0-.3.1-2.5.3-6.6l.2-6.2h.1l.1-.1.1-.1.1.1.1.1v1.8-.4h1.2c.7 0 1.3.2 1.8.7.5.4 1 .9 1.6 1.3.5.5 1.5 1.1 3 2s2.4 1.4 2.8 1.6c.4.1.7.2 1 .2h.4l.1-.1.1-.1.1-.2v-1c0-.5-.3-1.5-.6-3s-.6-2.5-.7-3.2c-.1-.6 0-1.3.2-2.1s.3-1.2.1-1.3c-.1-.1-.2-.2-.2-.3 0-.1-.1-.2-.4-.3l-.4-.1.3-.1.3-.1-.1-.1-.1-.1.3-.1c.2 0 .4-.1.6-.1z" style="fill-rule:evenodd;clip-rule:evenodd;fill:#dadada;stroke:#dadada;stroke-width:.5"/><path d="m487.8 333.9.1.1v.2l.1-.1.1-.1v.2c0 .2 0 .3-.1.3s-.1.1-.1.1l-.1.1-.1.1v.5s-.2.4-.6 1.1c-.4.7-1.2 1.9-2.4 3.6-1.2 1.7-1.8 2.6-1.9 2.6-.1 0-.4.3-.9.9-.5.6-1.4 1.4-2.5 2.5-1.2 1.1-2.5 2.1-4 3.1s-3 1.9-4.7 2.7c-1.7.8-3.3 1.4-4.9 1.9-1.6.5-3.3.9-5 1.2-1.7.3-3.6.4-5.7.5-2.1 0-3.8 0-5.3-.2s-3.1-.5-4.8-1c-1.8-.5-3.6-1.1-5.5-1.9-1.9-.8-3.3-1.5-4.3-2.1l-1.5-.9h-.2v-.3h.2l.1.1.1.1.1.1.1.1.1.1c.1 0 1 .4 2.7 1.2s3.7 1.5 5.8 2.2 3.5 1 4.1 1c.6 0 1 0 1.3-.1.3-.1.5-.4.8-.8.3-.4.9-1.4 1.8-2.8.9-1.5 1.4-2.5 1.6-2.9.1-.4-.3-1-1.4-1.7-1.1-.7-2.4-1.7-4-3l-2.3-1.9v-.1s0-.1-.1-.1v-.1s0-.1-.1-.1v-.1h.2v-.2l-.1-.1-.1-.1v-.2h.2l.6.3c.4.2.7.2.7.2.1-.1.1-.1.2 0s.5.1 1.3 0c.8 0 1.8-.3 3-.9 1.2-.5 2.6-1.1 4.1-1.8s2.5-1.1 3-1.2 1.3-.1 2.5-.1 2.2.2 3.1.5c.9.3 1.5.6 1.9.9.4.3.8.7 1.2 1.4.4.6.7 1 .9 1 .2.1.3.1.3.2v.1h.2v-.1c0-.1.1-.2.2-.3l.1-.2v-.2h.2v.2l-.1.1-.1.1-.1.2-.1.2-.3 1.1c-.2.7.1 1.2.8 1.6.8.3 2 .8 3.7 1.3 1.7.5 3 .8 3.9.9.9.1 1.5 0 1.9-.2.4-.3.8-.5 1.1-.9l.5-.5h.1v-.1h.2v-.1h.2v-.1h.2v-.1h.3c.1 0 .7-.6 1.8-1.9 1.1-1.3 2.2-2.7 3.2-4.1 1-1.5 1.6-2.2 1.6-2.2zm-7.5 9.2h.2-.2v-.1z" style="fill-rule:evenodd;clip-rule:evenodd;fill:#b1b1b1;stroke:#b1b1b1;stroke-width:.5"/><path d="m471.1 288-.9-2.4.9.1c.6.1 1 .2 1.1.2s.2.1.3.1h.2l.1.1h.1l1.8.8c1.2.6 2.4 1.3 3.5 2.2 1.1.9 2.3 2 3.4 3 1.1 1.1 2.2 2.3 3.2 3.7 1 1.4 1.9 2.7 2.6 4s1.1 2 1.1 2v.5l-.1.1-.1.1s-.1.2-.4.4c-.2.3-.8.8-1.7 1.4l-1.3 1s-.1-.1-.2-.3c-.1-.2-.9-1-2.4-2.5s-3-2.8-4.5-4.2c-1.6-1.3-2.7-2.2-3.6-2.8l-1.2-.8-.1-.2c0-.1-.2-.9-.5-2.3-.3-1-.7-2.6-1.3-4.2z" class="st251"/><path d="M434.4 308.8v-.6l1.5 2.4c1 1.6 1.5 2.5 1.5 2.5v.1h-.2s-.2 0-.4-.1l-.3-.1-.4-.5c-.3-.3-.4-.5-.5-.5-.1 0-.1-.1-.1-.2s0-.2-.1-.2-.1-.1-.2-.3c-.1-.1-.1-.2-.2-.2s-.1-.1-.1-.2 0-.2-.1-.2-.1-.1-.2-.3c0-.2-.1-.3-.2-.3s-.1 0-.2-.1c0-.1-.1-.1-.3-.2-.1-.1-.4-.1-.8-.1s-.8.2-1.3.5-.9.7-1.1 1c-.2.3-.4.7-.5 1s-.1.9-.1 1.7c0 .8.1 2.2.4 4.2.3 2 .6 3.4 1.1 4.3.5.9 1.1 1.6 1.9 2.3.8.7 1.6 1.3 2.4 1.7.8.5 1.3.7 1.5.8s.5.1.9.1.7-.1.9-.3c.2-.1.3-.3.4-.4.1-.1.2-.2.3-.2.1 0 .2-.1.3-.3.1-.2.2-.3.2-.4l.1-.1v-.2h.2v.2l-.1.1-.1.1-.1.2-.1.2v.4h-.1l-.1.1c0 .1-.1.1-.1.2 0 0-.2.2-.6.5-.4.3-.8.5-1.2.5-.4 0-.9-.1-1.5-.3-.6-.3-1.4-.7-2.4-1.3-1-.6-1.7-1.3-2.3-1.9-.6-.6-1-1.3-1.4-2-.4-.7-.6-1.8-.9-3.1s-.4-2.8-.4-4.4c-.1-1.6-.1-2.6.1-3 .1-.4.4-.8.7-1.2.4-.4 1-.8 1.7-1.2.8-.4 1.3-.5 1.6-.4l.5.2h.2z" style="fill-rule:evenodd;clip-rule:evenodd;fill:#fafafa;stroke:#fafafa;stroke-width:.5"/><path d="M462.5 310.3h.3v.2l1.8 3c1.2 2 2 3.5 2.5 4.6.5 1.1.9 1.9 1.3 2.6.3.6.9 1.5 1.6 2.4s1.2 1.5 1.3 1.7c.1.2.2.3.4.4.2.1.6.2 1.1.2h.9v.1l-.1.1-.1.1-.1.1-.1.1-.2.1-.2.1-.1.1c-.1 0-.3.1-.7.3-.4.2-.6.5-.8 1.1l-.2.9-.1.3-.1.3v.4h-.1l-.1-1.2c0-.8-.1-1.2-.2-1.3-.1-.1-.4-.4-.9-1s-2.1-2-4.5-4.2c-2.5-2.2-3.8-3.4-3.9-3.6-.1-.2-.1-.3-.1-.3.1 0 .1-.1.1-.1s-.1-.2-.1-.4-.1-.5-.3-.7l-.3-.4v-1.1c0-.7.1-1.4.2-2 .1-.6.2-1 .3-1.1l.1-.2.1-.3.1-.3.1.4.1.4.1-.3c0-.2.1-.3.1-.5l.1-.2.1.3.1.3.1-.2.1-.2.1-.2c0-.1.1-.3.1-.3l.1-.1z" style="fill-rule:evenodd;clip-rule:evenodd;fill:#d0d0d0;stroke:#d0d0d0;stroke-width:.5"/><path d="M472.9 286v.1h-.1c-.1 0-.2-.1-.4-.1-.2-.1-.6-.2-1.2-.2l-.9-.1.9 2.4c.6 1.6 1 3.1 1.3 4.6.3 1.4.4 2.2.5 2.3l.1.2h.1v.1l-.3.1c-.2 0-.4.1-.6.1l-.3.1.1.1.1.1-.3.1-.3.1.4.1c.3.1.4.2.4.3 0 .1 0 .2.2.3.1.1.1.5-.1 1.3s-.3 1.5-.2 2.1c.1.6.3 1.7.7 3.2s.6 2.5.6 3v1l-.1.2-.1.1-.1.1h-.4c-.3 0-.6-.1-1-.2s-1.3-.7-2.8-1.6-2.5-1.6-3-2c-.5-.4-1-.9-1.6-1.3-.5-.5-1.1-.7-1.8-.7h-1.2v.4-1h.1l.1.1.1.1.1.1c.1.1.5 0 1.1 0s1.8 0 3.5.3 2.7.4 3.1.4h.6V300c0-.5.1-.9.4-1.2l.3-.5v-.4l-.3-.1-.3-.1-.3-.1h-1.1l-.8.1h-.2v-.3l.1-.1.1-.1s.2-.1.5-.4c.3-.2.7-.5 1.1-.8.4-.3.6-.6.7-.9.1-.3-.1-.8-.5-1.6s-.8-1.5-1.3-2c-.5-.6-1.3-1.2-2.3-1.7-1-.6-2.4-1.2-4.2-1.9s-3.6-1.1-5.4-1.5c-1.8-.4-3.7-.6-5.6-.8-1.9-.1-3.2-.1-3.7.1s-1.1.3-1.6.3-.8.1-1 .2c-.1.1-.4.3-.9.6s-.9.5-1.2.5-1.1.1-2.3.3l-1.8.3h-.4l-.2.1-.2.1-.2.1c-.1 0-.8.2-2 .6l-1.8.5-.2.1-.2.1-.1.1-.1.1.1-.1.1-.1.1-.1.1-.1.2-.1.2-.1 1.7-.7c1.1-.5 3.1-1.1 5.7-2 2.7-.9 4.7-1.5 6.1-2s2.9-.9 4.4-1.2c1.5-.3 2.6-.5 3.4-.4.8 0 1.2.1 1.2.1.1 0 .1.1.2.1 0 .1.2.1.4.1s.3-.1.2-.1c-.1 0 .4 0 1.3.1s2.2.4 3.9.8c1.7.4 3.6 1.1 5.6 1.9 2 .8 3.2 1.3 3.6 1.5.3.2.6.3.6.4.6-1.8.6-1.7.6-1.7z" style="fill-rule:evenodd;clip-rule:evenodd;fill:#e3e3e3;stroke:#e3e3e3;stroke-width:.5"/><path d="m422 300.9.1.7v.8l.1 2c.1 1.4.3 2.6.5 3.7.3 1.1.4 1.8.4 2.2 0 .3-.1.7-.3 1.2-.2.5-.4 1.2-.7 2.1-.3.9-.4 1.5-.4 1.6v.2h-.1l-.1.2-.1.2-.1.2-.1.2-.5 3.3c-.4 2.2-.6 3.4-.6 3.8s-.1.8-.1 1.3v.8h-.4l-.2-.1-.2-.1-.2-.1c-.1 0-.3-.1-.5-.2l-.3-.2-.1-.1h-.1v-.1s0-.1-.1-.1v-.1s-.1-.4-.2-1.1c-.1-.7-.2-2-.2-4s.1-4 .4-6 .6-3.8 1.1-5.3c.4-1.5.9-3 1.5-4.3l.9-2 .1-.1.1-.1.1-.1z" class="st251"/><path d="M451.1 319.1h1.2l.1.1.1.1v.1l-.1.1-.1.1-.1.2c-.1.1-.2.3-.4.4-.2.2-.3.3-.3.4 0 .1-.1.2-.1.2-.1 0-.1 0-.1.1s-.4.4-1.1 1.1c-.7.7-1.6 1.7-2.7 2.9-1 1.3-2.1 2.6-3.2 4s-1.7 2.3-2 2.7c-.2.3-.4.6-.5.6l-.2.2-.1.1-.1.1-.1.1-.1.1-.1.1v.2h-.1v-.7l.1-.5c0-.3.4-2.2 1.1-5.6.7-3.4 1.1-5.1 1.2-5.2l.1-.1 3.8-1.1c2.4-.4 3.7-.7 3.8-.8z" style="fill-rule:evenodd;clip-rule:evenodd;fill:#eee;stroke:#eee;stroke-width:.5"/><path d="m419.6 328.1.1.2h.1l.1.1.1.1.1.1c.1 0 .1.1.1.2s0 .1.1.1.3.4.8 1.3.7 1.3.8 1.3c.1 0 .2.1.3.3.1.2.6.7 1.3 1.6.7.9 1.4 1.7 2.1 2.4.7.7 1.1 1.2 1.3 1.4.2.2.4.3.5.3.1 0 .2-.1.3-.2.1-.1.3-.2.7-.2h4.2v.1l-.5.1-.5.1-.5.1c-.4 0-1 .1-1.8.1l-1.2.1.2 1c.1.7.5 1.8 1.2 3.3.6 1.5 1.4 2.9 2.1 4.2.8 1.3 1.2 1.9 1.2 1.9v.2h-.3l-.2-.1-.2-.1-.1-.1-.1-.1-.1-.1c-.1 0-.6-.5-1.7-1.4-1.1-.9-1.9-1.7-2.6-2.5-.7-.7-1.6-1.9-2.8-3.5-1.2-1.6-2.1-3.1-2.9-4.4-.7-1.3-1.4-2.9-2.1-4.6l-1.1-2.6v-1.2h.2z" style="fill-rule:evenodd;clip-rule:evenodd;fill:#ccc;stroke:#ccc;stroke-width:.5"/><path d="M404.3 144c-5.8 5.8-10.3 9.7-14.1 8.9-3.8-.8-5.3-5.1-7-11.2l-6.8.1c-5.1 0-5.5-2.3-6.5-4.8s-1-4.5 1.4-6.9c0 0-1.5-2.6-2.4-5-.9-2.4 2.2-5.9 7.5-11.9.3-.3.5-.6.8-.8 4.8-5.2 6.8-5.1 10.1-3.7 1.9.9 3.8 1.8 5.7 2.9 2.3 1.3 4.5 2.7 6.6 4.3 3.1 2.4 3.5 8.2 6 12.8 2.5 4.6 4.5 9.5-1.3 15.3" class="st198"/><path d="m371.5 129 14-13.2m9.6 22.3c1.4 1.9 3.5 3.3 5.8 3.8" class="st211"/></svg>